<svg width="56" height="75" viewBox="0 0 56 75" fill="none" xmlns="http://www.w3.org/2000/svg">
<g clip-path="url(#clip0_1739_26267)">
<path d="M7 0C3.13542 0 0 3.14941 0 7.03125V67.9688C0 71.8506 3.13542 75 7 75H21V63.2812C21 59.3994 24.1354 56.25 28 56.25C31.8646 56.25 35 59.3994 35 63.2812V75H49C52.8646 75 56 71.8506 56 67.9688V7.03125C56 3.14941 52.8646 0 49 0H7ZM9.33333 35.1562C9.33333 33.8672 10.3833 32.8125 11.6667 32.8125H16.3333C17.6167 32.8125 18.6667 33.8672 18.6667 35.1562V39.8438C18.6667 41.1328 17.6167 42.1875 16.3333 42.1875H11.6667C10.3833 42.1875 9.33333 41.1328 9.33333 39.8438V35.1562ZM25.6667 32.8125H30.3333C31.6167 32.8125 32.6667 33.8672 32.6667 35.1562V39.8438C32.6667 41.1328 31.6167 42.1875 30.3333 42.1875H25.6667C24.3833 42.1875 23.3333 41.1328 23.3333 39.8438V35.1562C23.3333 33.8672 24.3833 32.8125 25.6667 32.8125ZM37.3333 35.1562C37.3333 33.8672 38.3833 32.8125 39.6667 32.8125H44.3333C45.6167 32.8125 46.6667 33.8672 46.6667 35.1562V39.8438C46.6667 41.1328 45.6167 42.1875 44.3333 42.1875H39.6667C38.3833 42.1875 37.3333 41.1328 37.3333 39.8438V35.1562ZM11.6667 14.0625H16.3333C17.6167 14.0625 18.6667 15.1172 18.6667 16.4062V21.0938C18.6667 22.3828 17.6167 23.4375 16.3333 23.4375H11.6667C10.3833 23.4375 9.33333 22.3828 9.33333 21.0938V16.4062C9.33333 15.1172 10.3833 14.0625 11.6667 14.0625ZM23.3333 16.4062C23.3333 15.1172 24.3833 14.0625 25.6667 14.0625H30.3333C31.6167 14.0625 32.6667 15.1172 32.6667 16.4062V21.0938C32.6667 22.3828 31.6167 23.4375 30.3333 23.4375H25.6667C24.3833 23.4375 23.3333 22.3828 23.3333 21.0938V16.4062ZM39.6667 14.0625H44.3333C45.6167 14.0625 46.6667 15.1172 46.6667 16.4062V21.0938C46.6667 22.3828 45.6167 23.4375 44.3333 23.4375H39.6667C38.3833 23.4375 37.3333 22.3828 37.3333 21.0938V16.4062C37.3333 15.1172 38.3833 14.0625 39.6667 14.0625Z" fill="#61B8A0"/>
</g>
<defs>
<clipPath id="clip0_1739_26267">
<rect width="56" height="75" fill="white"/>
</clipPath>
</defs>
</svg>
