<svg width="25" height="27" viewBox="0 0 25 27" fill="none" xmlns="http://www.w3.org/2000/svg">
<g clip-path="url(#clip0_1738_26439)">
<path d="M12.1994 13.055C11.8994 12.755 11.6294 12.495 11.3794 12.235C11.1494 11.995 11.1494 11.795 11.3694 11.555C11.4894 11.425 11.6094 11.285 11.7494 11.175C11.9094 11.045 11.9294 10.915 11.8294 10.735C11.7194 10.525 11.6994 10.195 11.5294 10.095C11.3494 9.97504 11.0494 10.055 10.7894 10.045C10.4994 10.035 10.3394 9.87504 10.3294 9.58504C10.3194 8.45504 10.3194 7.31504 10.3294 6.18504C10.3294 5.89504 10.4994 5.74504 10.7894 5.72504C10.8694 5.72504 10.9494 5.72504 11.0294 5.72504C11.5294 5.72504 11.5294 5.72504 11.7094 5.27504C11.7594 5.15504 11.8194 5.04504 11.8594 4.92504C11.8794 4.86504 11.8994 4.76504 11.8694 4.73504C11.7294 4.56504 11.5894 4.41504 11.3194 4.41504C7.91937 4.42504 4.51938 4.42504 1.11937 4.42504H0.859375V5.30504H9.88938V6.16504H1.71938V24.275H2.96938C2.97938 24.255 2.98938 24.245 2.98938 24.235C2.98938 23.675 2.98937 23.115 2.99937 22.565C3.00937 21.845 3.57938 21.275 4.27938 21.275C4.99938 21.265 5.56937 21.835 5.57937 22.575C5.58938 22.905 5.57937 23.245 5.57937 23.575V24.295H7.30937V23.945C7.30937 23.515 7.30937 23.085 7.30937 22.645C7.30937 21.865 7.71938 21.415 8.58938 21.245V18.665H7.32937V16.075H8.58938V14.345H7.33938V11.785H9.91938V13.045H12.1994V13.055ZM3.01937 7.45504H5.57937V10.015H3.01937V7.45504ZM5.57937 18.655H3.01937V16.095H5.57937V18.655ZM5.57937 14.345H3.01937V11.785H5.57937V14.345ZM9.89937 10.015H7.33938V7.45504H9.89937V10.015Z" fill="#555555"/>
<path d="M24.4087 6.58486C24.1487 6.59486 23.9987 6.46486 23.9087 6.21486C23.7487 5.78486 23.5687 5.36486 23.3887 4.94486C23.2887 4.72486 23.2987 4.52486 23.4887 4.35486C23.6487 4.20486 23.8187 4.05486 23.9687 3.91486C23.3287 3.26486 22.7187 2.65486 22.0687 2.00486C21.9387 2.15486 21.7987 2.31486 21.6587 2.47486C21.4787 2.67486 21.2688 2.69486 21.0288 2.58486C20.6188 2.40486 20.2088 2.22486 19.7888 2.07486C19.5188 1.98486 19.3987 1.82486 19.4087 1.55486C19.4187 1.36486 19.4087 1.16486 19.4087 0.984863H16.8187C16.8187 1.18486 16.8087 1.37486 16.8187 1.56486C16.8287 1.83486 16.6988 1.98486 16.4388 2.08486C16.0188 2.24486 15.6087 2.41486 15.1987 2.59486C14.9687 2.69486 14.7587 2.69486 14.5887 2.49486C14.4387 2.32486 14.2987 2.15486 14.1887 2.01486C13.5187 2.68486 12.9087 3.29486 12.2587 3.93486C12.3987 4.05486 12.5588 4.20486 12.7188 4.34486C12.9088 4.52486 12.9287 4.72486 12.8187 4.95486C12.6387 5.37486 12.4587 5.79486 12.2987 6.22486C12.2087 6.47486 12.0487 6.58486 11.7987 6.58486C11.6087 6.57486 11.4087 6.58486 11.2188 6.58486V9.17486C11.4188 9.17486 11.5987 9.18486 11.7787 9.17486C12.0487 9.16486 12.2087 9.28486 12.2987 9.54486C12.4587 9.97486 12.6387 10.3949 12.8187 10.8149C12.9187 11.0349 12.9088 11.2349 12.7188 11.4049C12.5588 11.5549 12.3887 11.7049 12.2287 11.8449C12.8787 12.4949 13.4887 13.0949 14.1388 13.7449C14.2788 13.5949 14.4187 13.4249 14.5787 13.2649C14.7487 13.0849 14.9387 13.0749 15.1687 13.1649C15.5987 13.3549 16.0287 13.5349 16.4587 13.6949C16.6887 13.7849 16.8087 13.9349 16.7987 14.1849C16.7987 14.3849 16.7987 14.5749 16.7987 14.7849H19.3887C19.3887 14.5849 19.3887 14.4049 19.3887 14.2249C19.3887 13.8949 19.4887 13.7949 19.7987 13.6749C20.1987 13.5249 20.5987 13.3649 20.9887 13.1849C21.2487 13.0649 21.4587 13.0749 21.6387 13.2949C21.7787 13.4549 21.9087 13.6249 22.0087 13.7449C22.6888 13.0749 23.2987 12.4649 23.9288 11.8449C23.7887 11.7149 23.6287 11.5649 23.4787 11.4149C23.2887 11.2349 23.2687 11.0449 23.3787 10.8049C23.5587 10.3849 23.7387 9.96486 23.8987 9.53486C23.9887 9.29486 24.1487 9.17486 24.3987 9.17486C24.5887 9.18486 24.7887 9.17486 24.9787 9.17486V6.58486C24.7887 6.58486 24.5987 6.58486 24.4087 6.58486ZM18.9887 12.5149V9.90486C20.2487 9.24486 20.8288 8.30486 20.6888 7.17486C20.5588 6.15486 19.8387 5.24486 18.9787 5.03486C18.9787 5.75486 18.9887 6.47486 18.9687 7.19486C18.9687 7.33486 18.8887 7.49486 18.7987 7.61486C18.5987 7.85486 18.3687 8.07486 18.1387 8.32486C17.8387 8.02486 17.5587 7.75486 17.2987 7.47486C17.2487 7.42486 17.2487 7.30486 17.2487 7.22486C17.2487 6.49486 17.2487 5.77486 17.2487 5.04486C16.3987 5.23486 15.6687 6.15486 15.5387 7.17486C15.3987 8.30486 15.9887 9.25486 17.2387 9.90486V12.5149C15.6587 12.3549 13.3987 10.7349 13.3687 7.93486C13.3387 5.31486 15.4388 3.16486 18.0188 3.13486C20.6588 3.10486 22.8188 5.17486 22.8688 7.76486C22.9088 10.5549 20.7188 12.3149 18.9887 12.5149Z" fill="#555555"/>
<path d="M15.94 15.3848V16.9248H14.25V15.2048H15.96C15.96 15.0048 15.95 14.8248 15.96 14.6548C15.98 14.4848 15.89 14.4248 15.75 14.3448C15.22 14.0348 14.82 14.0848 14.44 14.6048C14.25 14.8748 13.99 14.8348 13.74 14.5948C13.57 14.4248 13.41 14.2348 13.22 14.0848C13.11 13.9948 12.96 13.9248 12.83 13.9148C11.8 13.9048 10.76 13.9048 9.73 13.9048C9.65 13.9048 9.57 13.9148 9.5 13.9148V24.2548H12.5C12.5 23.8148 12.49 23.3848 12.5 22.9548C12.52 22.3048 13.2 21.9048 13.76 22.2148C14.07 22.3848 14.22 22.6548 14.22 23.0148V24.2648H17.22V15.6648C16.8 15.5748 16.33 15.8248 15.94 15.3848ZM10.79 15.2348H12.49V16.9248H10.79V15.2348ZM12.49 20.3848H10.8V18.6948H12.49V20.3848ZM15.94 20.3848H14.24V18.6948H15.94V20.3848Z" fill="#555555"/>
<path d="M18.95 25.1748H0V26.0148H18.95V25.1748Z" fill="#555555"/>
</g>
<defs>
<clipPath id="clip0_1738_26439">
<rect width="25" height="25.03" fill="white" transform="translate(0 0.984863)"/>
</clipPath>
</defs>
</svg>
