<svg width="38" height="47" viewBox="0 0 38 47" fill="none" xmlns="http://www.w3.org/2000/svg">
<g clip-path="url(#clip0_1169_20907)">
<path d="M22.53 14.8197C22.38 16.6697 21.06 18.1297 19.26 18.4197C17.05 18.7797 14.99 17.1997 14.76 14.9697C14.54 12.8497 16.09 10.9297 18.21 10.7097C18.25 10.7097 18.28 10.6897 18.32 10.6797H18.96C19.26 10.7397 19.56 10.7797 19.84 10.8797C21.54 11.4097 22.67 13.0797 22.53 14.8197Z" stroke="#1DAEE5" stroke-miterlimit="10"/>
<path d="M25.14 24.9393C25.15 25.2893 24.98 25.4593 24.63 25.4593C22.63 25.4593 20.64 25.4593 18.64 25.4593C16.65 25.4593 14.66 25.4593 12.67 25.4593C12.31 25.4593 12.14 25.2993 12.15 24.9293C12.19 22.1893 14.21 19.8493 16.92 19.4093C17.17 19.3693 17.42 19.3493 17.67 19.3493C18.3 19.3393 18.92 19.3393 19.55 19.3493C22.06 19.3693 24.28 21.0893 24.94 23.5093C25.06 23.9693 25.13 24.4493 25.14 24.9393Z" stroke="#1DAEE5" stroke-miterlimit="10"/>
<path d="M18.16 46.9996C16.56 46.6596 15.44 45.4996 14.13 44.6596C13.74 44.4096 13.33 44.1596 13 43.8396C12.82 43.6696 12.67 43.2896 12.74 43.0796C12.82 42.8496 13.14 42.6296 13.41 42.5596C13.71 42.4696 14.06 42.5396 14.38 42.5396C17.41 42.5396 20.45 42.5396 23.48 42.5396C23.62 42.5396 23.79 42.4896 23.89 42.5596C24.13 42.6996 24.43 42.8696 24.51 43.0896C24.58 43.2896 24.46 43.6896 24.29 43.8096C22.98 44.7596 21.66 45.6896 20.3 46.5696C19.95 46.7996 19.49 46.8596 19.08 46.9996C18.78 46.9996 18.47 46.9996 18.16 46.9996ZM15.9 44.0296C15.88 44.0596 15.87 44.0896 15.85 44.1196C16.42 44.5096 16.98 44.9196 17.58 45.2796C18.06 45.5696 18.65 45.6796 19.15 45.4496C19.94 45.0896 20.67 44.6096 21.43 44.1796C21.41 44.1296 21.39 44.0796 21.36 44.0396C19.54 44.0296 17.72 44.0296 15.9 44.0296Z" fill="#1DAEE5"/>
<path d="M18.63 37.2698C16.95 37.2698 15.27 37.2698 13.59 37.2698C12.11 37.2698 11.18 36.3298 11.18 34.8398C11.18 34.2198 11.16 33.5898 11.18 32.9698C11.25 31.5198 10.68 30.3898 9.57001 29.4798C7.63001 27.8898 6.24001 25.8898 5.35001 23.5398C2.25001 15.4098 7.45001 6.21977 16.01 4.68977C23.68 3.31977 30.94 8.09977 32.47 15.6998C33.56 21.1098 31.93 25.7198 27.78 29.3798C26.62 30.3998 25.97 31.5498 26.07 33.1098C26.1 33.6198 26.08 34.1398 26.08 34.6498C26.08 36.4098 25.23 37.2598 23.48 37.2598C21.86 37.2698 20.24 37.2698 18.63 37.2698ZM18.62 35.8098C20.32 35.8098 22.01 35.8098 23.71 35.8098C24.34 35.8098 24.61 35.5398 24.62 34.8998C24.62 34.7398 24.62 34.5898 24.62 34.4298C24.63 33.6498 24.59 32.8698 24.66 32.0998C24.81 30.4698 25.71 29.2898 26.92 28.2298C30.37 25.1898 31.86 21.3198 31.2 16.7798C30.17 9.64977 23.59 4.91977 16.5 6.08977C8.98001 7.31977 4.21001 15.0298 6.46001 22.3098C7.24001 24.8398 8.68001 26.9098 10.72 28.5798C11.77 29.4398 12.43 30.5598 12.56 31.9198C12.65 32.8898 12.62 33.8798 12.64 34.8498C12.65 35.5498 12.9 35.8098 13.59 35.8098C15.27 35.8098 16.94 35.8098 18.62 35.8098Z" fill="#1DAEE5"/>
<path d="M24.56 38.0801C24.56 38.5801 24.56 39.0301 24.56 39.4901C20.6 39.4901 16.66 39.4901 12.69 39.4901C12.69 39.0101 12.69 38.5601 12.69 38.0801C16.65 38.0801 20.59 38.0801 24.56 38.0801Z" fill="#1DAEE5"/>
<path d="M12.69 41.7198C12.69 41.2698 12.69 40.8198 12.69 40.3398C16.63 40.3398 20.58 40.3398 24.56 40.3398C24.56 40.7898 24.56 41.2398 24.56 41.7198C20.62 41.7198 16.67 41.7198 12.69 41.7198Z" fill="#1DAEE5"/>
<path d="M17.91 2.88C17.91 1.92 17.91 0.97 17.91 0C18.37 0 18.83 0 19.32 0C19.32 0.94 19.32 1.89 19.32 2.88C18.88 2.88 18.42 2.88 17.91 2.88Z" fill="#1DAEE5"/>
<path d="M2.91 17.9199C2.91 18.4099 2.91 18.8499 2.91 19.3199C1.94 19.3199 0.99 19.3199 0 19.3199C0 18.8599 0 18.3999 0 17.9199C0.96 17.9199 1.91 17.9199 2.91 17.9199Z" fill="#1DAEE5"/>
<path d="M34.35 19.3299C34.35 18.8299 34.35 18.3899 34.35 17.9199C35.33 17.9199 36.28 17.9199 37.26 17.9199C37.26 18.3999 37.26 18.8499 37.26 19.3299C36.28 19.3299 35.33 19.3299 34.35 19.3299Z" fill="#1DAEE5"/>
<path d="M11.4 4.64961C10.96 4.89961 10.57 5.12961 10.15 5.36961C9.64999 4.52961 9.17999 3.69961 8.67999 2.82961C9.10999 2.57961 9.48999 2.35961 9.92999 2.09961C10.41 2.93961 10.89 3.76961 11.4 4.64961Z" fill="#1DAEE5"/>
<path d="M27.11 5.38035C26.67 5.13035 26.29 4.90035 25.86 4.65035C26.36 3.79035 26.84 2.96035 27.33 2.11035C27.75 2.35035 28.13 2.57035 28.58 2.83035C28.09 3.68035 27.61 4.50035 27.11 5.38035Z" fill="#1DAEE5"/>
<path d="M2.10999 9.91992C2.35999 9.48992 2.57999 9.10992 2.83999 8.66992C3.68999 9.15992 4.51999 9.63992 5.37999 10.1299C5.13999 10.5499 4.91999 10.9299 4.65999 11.3799C3.79999 10.8899 2.96999 10.4099 2.10999 9.91992Z" fill="#1DAEE5"/>
<path d="M4.66 25.8496C4.91 26.2696 5.13 26.6496 5.39 27.0996C4.55 27.5896 3.72 28.0596 2.85 28.5696C2.6 28.1496 2.37 27.7496 2.12 27.3196C2.96 26.8296 3.79 26.3496 4.66 25.8496Z" fill="#1DAEE5"/>
<path d="M34.41 8.66992C34.67 9.10992 34.89 9.49992 35.14 9.91992C34.3 10.4099 33.47 10.8899 32.6 11.3899C32.35 10.9699 32.13 10.5899 31.87 10.1499C32.71 9.65992 33.53 9.17992 34.41 8.66992Z" fill="#1DAEE5"/>
<path d="M32.59 25.8496C33.47 26.3596 34.29 26.8296 35.14 27.3196C34.89 27.7396 34.66 28.1396 34.41 28.5696C33.54 28.0696 32.72 27.5896 31.87 27.0996C32.12 26.6696 32.34 26.2796 32.59 25.8496Z" fill="#1DAEE5"/>
</g>
<defs>
<clipPath id="clip0_1169_20907">
<rect width="37.26" height="47" fill="white"/>
</clipPath>
</defs>
</svg>
