<svg width="46" height="45" viewBox="0 0 46 45" fill="none" xmlns="http://www.w3.org/2000/svg">
<path d="M15.9703 4.60436C15.1268 4.45039 14.5645 3.97509 14.3704 3.15836C14.1963 2.43536 14.4172 1.80608 14.9796 1.31069C15.408 0.935801 15.9235 0.855469 16.4657 0.855469C18.9762 0.862163 21.4799 0.855469 23.9903 0.855469C30.1894 0.855469 36.3884 0.855469 42.5875 0.862163C42.9356 0.862163 43.2904 0.882246 43.6185 0.982663C44.3749 1.21027 44.877 1.95336 44.877 2.75C44.877 3.51986 44.395 4.25625 43.6318 4.47717C43.2168 4.59767 43.1833 4.8052 43.1833 5.15331C43.19 11.1716 43.19 17.1899 43.19 23.2083C43.19 24.0384 43.1431 24.0785 42.3063 24.0785C38.4169 24.0785 34.5274 24.0785 30.6379 24.0785C30.4571 24.0785 30.2764 24.0785 30.0287 24.0785C30.0287 24.8417 30.0287 25.5848 30.0287 26.3212C30.0287 26.5488 29.9952 26.7831 30.0421 27.004C30.0756 27.1647 30.1693 27.3588 30.3032 27.4459C30.899 27.8408 31.1801 28.4768 30.9994 29.1329C30.8387 29.7354 30.2496 30.1839 29.6136 30.1906C28.9643 30.1973 28.3819 29.7822 28.1944 29.1797C27.9869 28.5036 28.2413 27.8676 28.8706 27.4525C28.9777 27.3789 29.1183 27.245 29.1183 27.1312C29.1383 26.1337 29.1316 25.1296 29.1316 24.0718C28.9174 24.0718 28.7434 24.0718 28.5626 24.0718C24.6263 24.0718 20.6899 24.0718 16.7536 24.0718C16.0975 24.0718 15.9971 23.9714 15.9971 23.302C15.9971 22.9673 15.9971 22.6392 15.9971 22.2041C15.5553 22.4317 15.1938 22.6727 14.7988 22.82C13.9084 23.1346 13.6206 23.6903 13.6674 24.6543C13.7612 26.6559 13.6942 28.6642 13.6942 30.6726C13.6942 31.2483 13.5804 31.3688 13.0047 31.3688C9.63069 31.3688 6.25668 31.3688 2.88268 31.3688C1.7647 31.3688 1.10864 30.7061 1.10864 29.5747C1.10864 27.2785 1.10864 24.9823 1.10864 22.6928C1.10864 20.9054 2.07265 19.7405 3.83329 19.4326C4.29521 19.3523 4.77051 19.3255 5.23912 19.3121C7.26085 19.2719 9.28258 19.2184 11.2976 19.2451C12.362 19.2585 13.3461 19.1113 14.2633 18.5623C14.7319 18.2811 15.2406 18.0736 15.716 17.8058C15.8431 17.7322 15.9837 17.5448 15.9837 17.4042C15.9971 13.1934 15.9904 8.98254 15.9904 4.77173C16.0038 4.73156 15.9837 4.6847 15.9703 4.60436ZM16.9276 4.63784C16.9276 8.82187 16.9276 12.9724 16.9276 17.21C17.6373 16.8485 18.3 16.5205 18.9494 16.1791C19.4448 15.918 19.9602 15.8444 20.4891 16.0117C21.3125 16.2661 21.7878 16.8485 21.8682 17.6987C21.9485 18.5489 21.5736 19.205 20.8238 19.62C19.6255 20.2761 18.4138 20.9054 17.2155 21.5614C17.095 21.6284 16.9276 21.7489 16.921 21.856C16.8875 22.2911 16.9076 22.7263 16.9076 23.148C25.4095 23.148 33.8445 23.148 42.2863 23.148C42.2863 16.9623 42.2863 10.8168 42.2863 4.64453C33.8178 4.63784 25.3827 4.63784 16.9276 4.63784ZM12.8106 30.4584C12.8106 30.2308 12.8106 30.05 12.8106 29.8693C12.8106 27.727 12.8173 25.5848 12.8039 23.4426C12.8039 23.061 12.9244 22.8267 13.2725 22.6459C14.4306 22.0434 15.5754 21.4208 16.7268 20.805C17.9452 20.1556 19.1636 19.5062 20.3753 18.8502C20.8506 18.5891 21.0648 18.1406 20.9778 17.6786C20.8908 17.2368 20.5427 16.8619 20.074 16.8418C19.8063 16.8284 19.505 16.9155 19.2573 17.0427C17.7176 17.8058 16.1779 18.5489 14.6716 19.3723C13.5804 19.9748 12.4424 20.1422 11.2173 20.1355C8.94116 20.1154 6.66504 20.169 4.38893 20.256C3.02995 20.3096 2.05256 21.1397 2.03917 22.2309C2.0057 24.7413 2.02578 27.245 2.02578 29.7554C2.02578 30.1437 2.24001 30.4115 2.6149 30.4517C3.07681 30.4985 3.54543 30.4651 4.04082 30.4651C4.04082 30.1772 4.04082 29.9362 4.04082 29.6952C4.04082 28.1153 4.04082 26.5354 4.04082 24.9555C4.04082 24.6409 4.12784 24.3865 4.46926 24.3798C4.84415 24.3664 4.95126 24.6342 4.94457 24.9622C4.94457 25.0559 4.94457 25.143 4.94457 25.2367C4.94457 26.8166 4.94457 28.3965 4.94457 29.9764C4.94457 30.137 4.94457 30.2977 4.94457 30.4584C7.58888 30.4584 10.1662 30.4584 12.8106 30.4584ZM29.607 1.75253C25.2623 1.75253 20.9175 1.75253 16.5728 1.75253C16.3921 1.75253 16.2046 1.74583 16.0306 1.77261C15.5285 1.85964 15.1938 2.27469 15.2005 2.76339C15.2139 3.232 15.5486 3.61359 16.044 3.68722C16.2381 3.714 16.439 3.714 16.6331 3.714C21.7343 3.714 26.8421 3.714 31.9433 3.714C35.5449 3.714 39.1399 3.714 42.7415 3.714C43.5247 3.714 43.9599 3.36589 43.9733 2.74331C43.9866 2.11403 43.5314 1.74583 42.7281 1.73914C42.621 1.73914 42.5139 1.73914 42.4068 1.73914C38.1424 1.75253 33.878 1.75253 29.607 1.75253ZM30.1626 28.7245C30.1157 28.3965 29.9417 28.1889 29.6003 28.1822C29.2789 28.1756 29.0178 28.45 29.0312 28.7647C29.0446 29.0793 29.3191 29.3203 29.6471 29.2935C29.9885 29.2668 30.1291 29.0391 30.1626 28.7245Z" fill="#61B8A0" stroke="#61B8A0" stroke-width="0.832288" stroke-miterlimit="10"/>
<path d="M22.1626 43.6606C20.9041 43.6606 19.6455 43.6539 18.3802 43.6606C17.2957 43.6673 16.8204 43.2054 16.8204 42.1142C16.8204 40.6548 16.8204 39.1954 16.8204 37.7427C16.8204 36.3302 17.6305 35.3729 19.0497 35.326C21.125 35.2524 23.2069 35.2591 25.2822 35.3193C26.7148 35.3662 27.5249 36.3302 27.5249 37.7762C27.5249 39.2356 27.5249 40.695 27.5249 42.1477C27.5249 43.192 27.063 43.6539 26.0253 43.6606C24.7467 43.6606 23.4546 43.6606 22.1626 43.6606ZM25.5634 42.7301C26.5876 42.8305 26.6412 42.777 26.6412 41.8263C26.6412 40.5075 26.6412 39.182 26.6412 37.8632C26.6412 36.7519 26.2395 36.2565 25.1149 36.203C23.6622 36.1294 22.2028 36.1427 20.7434 36.1427C20.1677 36.1427 19.5852 36.1561 19.0162 36.2231C18.2263 36.3168 17.7309 36.7854 17.7242 37.4549C17.7041 39.0682 17.7175 40.6749 17.7175 42.2883C17.7175 42.6096 17.8648 42.7703 18.1861 42.7703C18.3802 42.7703 18.5677 42.7703 18.802 42.7703C18.802 41.5719 18.802 40.4339 18.802 39.3025C18.802 38.9946 18.8221 38.6933 19.2237 38.6799C19.6455 38.6666 19.6991 38.9745 19.6991 39.3025C19.6991 40.2933 19.6991 41.2774 19.6991 42.2682C19.6991 42.4288 19.7191 42.5895 19.7258 42.7435C21.3994 42.7435 23.0128 42.7435 24.6797 42.7435C24.6797 42.1142 24.6797 41.505 24.6797 40.9025C24.6797 40.3402 24.6797 39.7778 24.6797 39.2155C24.6797 38.9076 24.7868 38.6666 25.1483 38.6799C25.4764 38.6933 25.5768 38.9142 25.5701 39.2088C25.5634 39.3427 25.5701 39.4833 25.5701 39.6172C25.5634 40.6414 25.5634 41.6724 25.5634 42.7301Z" fill="#61B8A0" stroke="#61B8A0" stroke-width="0.832288" stroke-miterlimit="10"/>
<path d="M37.0779 43.6595C35.8194 43.6595 34.5608 43.6528 33.2956 43.6595C32.1977 43.6662 31.7357 43.2244 31.7291 42.1332C31.7291 40.6738 31.7692 39.2144 31.7157 37.7617C31.6621 36.2086 32.7399 35.3584 33.9717 35.3182C36.0336 35.258 38.1022 35.2513 40.1574 35.3182C41.5967 35.3584 42.4134 36.3224 42.4134 37.755C42.4134 39.2412 42.4134 40.7341 42.4134 42.2202C42.4134 43.1641 41.9381 43.6461 40.9875 43.6595C39.6888 43.6662 38.3833 43.6595 37.0779 43.6595ZM40.4653 42.7625C40.713 42.7625 40.8804 42.7625 41.0477 42.7625C41.3958 42.7692 41.5297 42.5951 41.5297 42.2537C41.523 40.6604 41.523 39.0604 41.523 37.4672C41.523 36.9718 41.2887 36.617 40.8536 36.4161C40.6126 36.3023 40.3381 36.1952 40.077 36.1952C38.0754 36.1751 36.0738 36.1751 34.0654 36.1952C33.8177 36.1952 33.5633 36.2956 33.329 36.396C32.8872 36.5835 32.6261 36.9383 32.6194 37.427C32.606 39.0537 32.6127 40.6805 32.6127 42.3006C32.6127 42.5951 32.76 42.7558 33.0612 42.7558C33.2554 42.7558 33.4428 42.7558 33.6504 42.7558C33.6571 42.5817 33.6704 42.4612 33.6704 42.3474C33.6704 41.3165 33.6704 40.2788 33.6704 39.2479C33.6704 38.9199 33.7508 38.6588 34.1391 38.6655C34.5006 38.6722 34.5742 38.9266 34.5742 39.2345C34.5675 39.7834 34.5742 40.3257 34.5742 40.8746C34.5742 41.4905 34.5742 42.1064 34.5742 42.729C36.2679 42.729 37.9013 42.729 39.575 42.729C39.575 42.5349 39.575 42.3742 39.575 42.2068C39.575 41.2027 39.575 40.1985 39.575 39.201C39.575 38.9065 39.6553 38.6789 39.99 38.6655C40.3515 38.6521 40.4519 38.8931 40.4586 39.201C40.4586 39.4286 40.4586 39.6562 40.4586 39.8839C40.4653 40.8278 40.4653 41.7717 40.4653 42.7625Z" fill="#61B8A0" stroke="#61B8A0" stroke-width="0.832288" stroke-miterlimit="10"/>
<path d="M8.96824 18.89C6.71221 18.89 4.87793 17.0691 4.87123 14.8198C4.86454 12.5638 6.73899 10.6893 8.98833 10.7161C11.2444 10.7429 13.0653 12.5705 13.0586 14.8198C13.0586 17.0625 11.2243 18.89 8.96824 18.89ZM8.96824 17.993C10.7356 17.993 12.1548 16.5805 12.1548 14.8131C12.1615 13.0458 10.7423 11.6132 8.98163 11.5998C7.21429 11.5864 5.7549 13.0458 5.7616 14.8198C5.77499 16.5738 7.2076 17.993 8.96824 17.993Z" fill="#61B8A0" stroke="#61B8A0" stroke-width="0.832288" stroke-miterlimit="10"/>
<path d="M22.1828 28.8916C23.8564 28.8916 25.1886 30.2238 25.1953 31.8907C25.202 33.571 23.8364 34.9367 22.156 34.9233C20.5025 34.9099 19.1636 33.5509 19.1703 31.884C19.1703 30.2171 20.5092 28.8916 22.1828 28.8916ZM24.2983 31.9175C24.305 30.746 23.3811 29.7887 22.223 29.7686C21.0381 29.7485 20.0741 30.6991 20.0674 31.884C20.0607 33.0756 20.9979 34.0196 22.1895 34.0196C23.3544 34.0262 24.2916 33.089 24.2983 31.9175Z" fill="#61B8A0" stroke="#61B8A0" stroke-width="0.832288" stroke-miterlimit="10"/>
<path d="M37.0847 28.8916C38.7583 28.8983 40.0905 30.2238 40.0905 31.9041C40.0905 33.5644 38.7449 34.9233 37.0914 34.93C35.4245 34.9367 34.0387 33.551 34.0521 31.884C34.0655 30.2171 35.4178 28.8849 37.0847 28.8916ZM37.078 34.0263C38.2294 34.033 39.1867 33.0824 39.2001 31.9242C39.2135 30.7728 38.2629 29.7954 37.1115 29.782C35.9332 29.7619 34.9492 30.7192 34.9425 31.8907C34.9425 33.069 35.8864 34.0196 37.078 34.0263Z" fill="#61B8A0" stroke="#61B8A0" stroke-width="0.832288" stroke-miterlimit="10"/>
<path d="M35.7993 9.38384C35.5851 9.77882 35.411 10.1135 35.2303 10.4416C34.9424 10.9704 34.9692 11.66 35.3441 12.0951C35.4512 12.2156 35.6587 12.2558 35.8328 12.3026C37.4997 12.8047 37.2118 12.4633 37.2386 14.1704C37.252 15.0741 37.2386 15.0741 36.3482 15.3352C36.2746 15.3553 36.201 15.4022 36.134 15.4022C35.3374 15.4155 35.17 16.0448 34.9625 16.6206C34.9223 16.721 34.9893 16.8816 35.0428 16.9954C35.2303 17.3569 35.4311 17.7184 35.6319 18.0732C35.7792 18.3343 35.7524 18.5619 35.5382 18.7762C35.1834 19.131 34.8487 19.5126 34.4604 19.8272C34.3131 19.9477 34.0253 19.9611 33.811 19.9276C33.6169 19.8941 33.4161 19.7669 33.2554 19.6264C32.6797 19.131 32.104 19.2381 31.5215 19.5862C31.4077 19.6531 31.3073 19.787 31.2604 19.9142C31.1266 20.3025 31.0261 20.6975 30.9123 21.0924C30.8253 21.3937 30.6513 21.5477 30.3165 21.5343C29.8278 21.5209 29.3458 21.5209 28.8571 21.5343C28.5492 21.541 28.3684 21.4071 28.2881 21.1192C28.2279 20.9184 28.1408 20.7176 28.1141 20.51C28.0337 19.9008 27.7392 19.5193 27.1233 19.3385C26.8086 19.2448 26.6011 19.2716 26.3266 19.4188C24.7869 20.2556 25.2154 20.3025 23.9702 19.0908C23.3409 18.4749 23.3476 18.4749 23.7694 17.7117C23.8229 17.618 23.8497 17.5042 23.9233 17.4373C24.5057 16.8482 24.0907 16.2925 23.8698 15.7369C23.8363 15.6499 23.689 15.5963 23.5752 15.5561C23.1869 15.4356 22.792 15.3218 22.397 15.2147C22.089 15.1277 21.9418 14.9402 21.9485 14.6189C21.9618 14.1302 21.9552 13.6482 21.9485 13.1595C21.9418 12.8315 22.0957 12.6507 22.4104 12.5838C22.6045 12.5369 22.7853 12.4499 22.9794 12.4231C23.5886 12.3428 23.9836 12.0549 24.1509 11.4257C24.2179 11.1579 24.2848 10.9637 24.1175 10.7093C23.9099 10.3947 23.7493 10.0466 23.5618 9.71857C23.4079 9.45748 23.4413 9.23656 23.6622 9.02234C24.0237 8.67423 24.3518 8.28595 24.74 7.97131C24.8873 7.85081 25.1752 7.83073 25.3827 7.87089C25.5969 7.91106 25.7978 8.05834 25.9785 8.19223C26.4538 8.54034 26.9157 8.63406 27.4714 8.31942C27.7459 8.16545 27.9333 8.03156 28.0003 7.72362C28.0806 7.36881 28.1542 7.00061 28.3082 6.67928C28.3952 6.49853 28.6362 6.30439 28.8237 6.28431C29.3324 6.23075 29.8613 6.23075 30.3701 6.28431C30.5575 6.30439 30.7651 6.51192 30.8856 6.68598C30.9994 6.85334 31.0462 7.08095 31.073 7.28848C31.1533 7.89767 31.4345 8.28595 32.0638 8.46001C32.3516 8.54034 32.5525 8.55373 32.8136 8.41315C34.4336 7.54956 33.9048 7.44914 35.2637 8.77465C35.4646 8.9554 35.6252 9.16962 35.7993 9.38384ZM33.9784 8.78804C33.7642 8.90184 33.5232 9.00226 33.3157 9.14953C32.7801 9.53781 32.3115 9.49765 31.6554 9.27673C30.745 8.96879 30.3634 8.42654 30.2429 7.58303C30.1893 7.18137 29.9617 7.12781 29.6136 7.12781C29.2521 7.12781 28.9977 7.16798 28.9509 7.59642C28.8571 8.47339 28.422 8.98217 27.5316 9.28342C26.9224 9.49095 26.494 9.53782 25.9451 9.1964C25.1685 8.7144 25.1484 8.74787 24.5325 9.4307C24.5124 9.45079 24.5124 9.48426 24.4924 9.53781C24.6062 9.75204 24.7066 9.99304 24.8605 10.2006C25.2622 10.7428 25.1819 11.2181 24.9677 11.8608C24.6731 12.7512 24.1509 13.1327 23.3074 13.2465C22.9459 13.2934 22.8254 13.4742 22.8254 13.8557C22.8187 14.2775 22.9259 14.5051 23.361 14.5654C23.6288 14.6055 23.9099 14.6658 24.1442 14.793C24.3585 14.9135 24.566 15.1076 24.6932 15.3151C24.8806 15.6365 24.9677 16.0247 25.1417 16.3528C25.289 16.6272 25.2823 16.8549 25.1216 17.1159C24.894 17.4908 24.6999 17.8858 24.4924 18.2674C25.1082 19.0707 25.1283 19.1042 25.925 18.6088C26.4806 18.2607 26.9224 18.2942 27.5517 18.5151C28.422 18.8163 28.8504 19.2983 28.9509 20.1619C28.991 20.5167 29.1651 20.6707 29.5534 20.6506C29.9216 20.6305 30.2027 20.6238 30.2563 20.1686C30.3567 19.3117 30.7182 18.6824 31.6621 18.5553C31.6755 18.5553 31.6889 18.5419 31.7023 18.5352C32.2445 18.1134 32.7399 18.2674 33.2755 18.6021C34.0654 19.0908 34.0788 19.0573 34.6813 18.3276C34.688 18.3142 34.6947 18.3009 34.7081 18.254C34.601 18.0599 34.514 17.8322 34.3734 17.6381C33.9583 17.0758 33.9985 16.5804 34.2462 15.8909C34.5608 15.0206 35.0629 14.6457 35.8863 14.5386C36.2947 14.485 36.375 14.2574 36.3683 13.8825C36.3683 13.5143 36.3014 13.2733 35.8863 13.2265C35.0294 13.1327 34.4002 12.7645 34.2797 11.8206C34.2797 11.8072 34.2663 11.7938 34.2596 11.7805C33.8579 11.2583 33.9784 10.7763 34.3064 10.2474C34.8152 9.4307 34.7817 9.41062 34.052 8.80143C34.032 8.80812 34.0119 8.80142 33.9784 8.78804Z" fill="#61B8A0" stroke="#61B8A0" stroke-width="0.832288" stroke-miterlimit="10"/>
<path d="M29.5803 10.583C31.428 10.5763 32.9275 12.0558 32.9342 13.8901C32.9409 15.7177 31.4347 17.2306 29.6071 17.2306C27.7929 17.2306 26.2933 15.7445 26.2799 13.937C26.2732 12.0893 27.746 10.583 29.5803 10.583ZM29.5736 11.4734C28.2347 11.4801 27.177 12.5713 27.1837 13.937C27.1904 15.2625 28.2682 16.3336 29.5937 16.3336C30.9727 16.3336 32.0439 15.2424 32.0372 13.87C32.0238 12.5244 30.9326 11.4667 29.5736 11.4734Z" fill="#61B8A0" stroke="#61B8A0" stroke-width="0.832288" stroke-miterlimit="10"/>
</svg>
