<svg width="48" height="48" viewBox="0 0 48 48" fill="none" xmlns="http://www.w3.org/2000/svg">
<path d="M0.365417 41.5859C0.365417 28.3438 0.365417 15.109 0.365417 1.86695C0.719792 1.1148 1.24051 0.65918 2.13729 0.65918C11.0762 0.666412 20.0079 0.666411 28.9468 0.666411C30.0244 0.666411 30.6681 1.29561 30.697 2.3732C30.7043 2.65525 30.697 2.94454 30.697 3.21936C33.033 3.51588 33.033 3.51588 33.3657 5.74338C33.6477 5.74338 33.9298 5.74338 34.2191 5.74338C35.2243 5.75784 35.8969 6.41597 35.9114 7.42123C35.9186 8.07936 35.9114 8.74471 35.9114 9.40284C35.9114 9.98141 35.9114 10.56 35.9114 11.1675C36.0922 11.1675 36.2152 11.1675 36.3309 11.1675C41.4295 11.2326 45.7905 14.5449 47.1863 19.4411C47.3888 20.1426 47.4901 20.873 47.6347 21.589C47.6347 22.2327 47.6347 22.8763 47.6347 23.5272C47.6058 23.6429 47.5768 23.7659 47.5479 23.8816C47.2948 24.8724 47.1068 25.8849 46.7741 26.854C46.3618 28.0328 45.6676 29.0743 44.8431 30.0217C44.561 30.3471 44.1633 30.3761 43.8595 30.1302C43.5413 29.8698 43.5051 29.5154 43.7727 29.1538C43.8523 29.0453 43.9463 28.9441 44.0331 28.8356C44.7563 27.9316 45.3204 26.9408 45.6893 25.8126C45.5374 25.7619 45.4144 25.7113 45.2843 25.6752C42.4637 24.9302 39.6432 24.1926 36.8299 23.4332C36.5189 23.3464 36.3309 23.4115 36.1067 23.6285C34.0455 25.6969 31.9771 27.758 29.916 29.8192C29.8219 29.9132 29.7351 30.0144 29.605 30.1519C30.0678 30.4773 30.4873 30.8172 30.9501 31.0848C34.2191 32.9724 37.5531 33.0881 40.9377 31.3958C41.4585 31.1354 41.8345 31.2077 42.037 31.6127C42.2395 32.0177 42.0949 32.3432 41.5959 32.6036C40.5327 33.1677 39.4118 33.5799 38.2112 33.7607C37.4591 33.8764 36.6925 33.927 35.9042 34.0138C35.9042 34.1729 35.9042 34.3393 35.9042 34.5056C35.9042 36.5306 35.9114 38.5556 35.8897 40.5806C35.8897 40.8337 35.8029 41.1519 35.6366 41.3255C33.4597 43.5096 31.2611 45.6793 29.0698 47.8489C21.6496 47.8489 14.2367 47.8489 6.81649 47.8489C5.63765 47.4367 5.47131 46.4748 5.57979 45.4044C4.76979 45.3321 4.00319 45.5129 3.41015 44.891C2.83158 44.2835 2.99792 43.5241 2.93283 42.7792C2.75926 42.7792 2.62185 42.7647 2.49167 42.7792C1.5081 42.8877 0.770417 42.5261 0.365417 41.5859ZM34.5228 11.247C34.5228 10.0393 34.5011 8.86043 34.5301 7.68159C34.5445 7.21873 34.371 7.11748 33.9443 7.11748C25.1427 7.12471 16.3412 7.12471 7.54694 7.11748C7.11301 7.11748 6.9539 7.22597 6.9539 7.68159C6.96113 20.4246 6.96113 33.1677 6.9539 45.9179C6.9539 46.3663 7.10578 46.482 7.5397 46.482C14.2294 46.4676 20.9264 46.4748 27.6161 46.4748C27.7752 46.4748 27.9416 46.4748 28.1296 46.4748C28.1296 44.8837 28.1296 43.365 28.1296 41.8462C28.1296 40.6891 28.7588 40.0599 29.9304 40.0527C31.2828 40.0454 32.6352 40.0527 33.9949 40.0527C34.1612 40.0527 34.3203 40.0382 34.5011 40.031C34.5011 37.9553 34.5011 35.9159 34.5011 33.8402C32.6714 33.551 30.9863 32.8784 29.482 31.7863C27.9633 30.6798 26.7844 29.284 25.9527 27.5989C25.1283 25.9283 24.7594 24.1636 24.7884 22.305C24.8824 16.8447 29.0119 12.0426 34.5228 11.247ZM2.96176 41.3689C2.96176 41.1664 2.96176 40.9856 2.96176 40.8048C2.96176 38.288 2.96176 35.7712 2.96176 33.2472C2.96176 23.8816 2.96176 14.5087 2.96176 5.14311C2.96176 3.90641 3.59819 3.26998 4.83488 3.26998C6.28131 3.26998 7.72774 3.26998 9.17417 3.26998C9.78167 3.26998 10.0637 3.48695 10.0637 3.95704C10.071 4.43436 9.80336 4.65132 9.19586 4.65132C7.81452 4.65132 6.42595 4.65132 5.04461 4.65132C4.35033 4.65132 4.35033 4.65132 4.35033 5.33114C4.35033 18.0019 4.35033 30.6726 4.35033 43.3433C4.35033 43.4518 4.31417 43.5819 4.35756 43.6615C4.43711 43.7917 4.56006 43.958 4.69024 43.9797C4.96506 44.0303 5.26158 43.9942 5.57979 43.9942C5.57979 43.7194 5.57979 43.5024 5.57979 43.2927C5.57979 31.4247 5.57979 19.5495 5.57979 7.68159C5.57979 6.33641 6.17283 5.75061 7.51801 5.75061C15.4589 5.75061 23.3998 5.75061 31.3335 5.75061C31.5143 5.75061 31.6951 5.75061 31.8614 5.75061C32.0205 4.69471 31.9916 4.65855 31.0369 4.65855C25.2078 4.65855 19.3715 4.65855 13.5424 4.65855C12.8843 4.65855 12.6167 4.45605 12.6167 3.9715C12.6167 3.49418 12.8987 3.27721 13.5424 3.27721C13.6509 3.27721 13.7593 3.27721 13.8678 3.27721C18.8074 3.27721 23.7469 3.27721 28.6865 3.27721C28.8818 3.27721 29.0698 3.27721 29.2723 3.27721C29.2868 3.09641 29.294 2.99516 29.294 2.88668C29.3085 2.06222 29.3085 2.06221 28.4695 2.06221C19.791 2.06221 11.1124 2.06221 2.43381 2.06221C1.73229 2.06221 1.73229 2.06222 1.73229 2.76373C1.73229 15.297 1.73229 27.8231 1.73229 40.3564C1.74676 41.4629 1.74676 41.4629 2.96176 41.3689ZM39.6649 13.1925C36.1356 11.7388 30.7549 12.5922 27.8114 17.0617C25.0415 21.2563 26.0974 26.4562 28.6648 29.0887C28.7082 29.0526 28.7588 29.0164 28.8022 28.973C31.0225 26.76 33.2427 24.5469 35.4558 22.3267C35.6004 22.182 35.7089 21.9795 35.7957 21.7915C36.5623 20.1064 37.3217 18.4069 38.081 16.7218C38.609 15.5357 39.1369 14.3641 39.6649 13.1925ZM37.177 22.088C40.1639 22.8763 43.0929 23.6502 46.0219 24.4312C46.9693 20.3523 44.7274 15.5502 40.9233 13.7711C39.6793 16.5337 38.4354 19.2964 37.177 22.088ZM33.5176 41.434C32.2158 41.434 31.0225 41.434 29.8219 41.434C29.5399 41.434 29.5182 41.6293 29.5182 41.8462C29.5182 42.6418 29.5182 43.4445 29.5182 44.2401C29.5182 44.6089 29.5182 44.985 29.5182 45.3538C30.8489 44.052 32.1362 42.7864 33.5176 41.434Z" fill="#1DAEE5"/>
<path d="M20.4057 33.0735C21.2663 33.0735 22.0763 33.0735 22.8863 33.0735C23.6891 33.0735 23.8844 33.276 23.8916 34.086C23.8916 36.0387 23.8916 37.9841 23.8916 39.9368C23.8916 40.1031 23.8916 40.2695 23.8916 40.472C24.0941 40.4937 24.2749 40.5009 24.4485 40.5371C24.8318 40.6166 25.0415 40.8553 25.0198 41.2531C24.9981 41.6219 24.7739 41.8389 24.4051 41.8823C24.2677 41.8967 24.1302 41.8967 23.9928 41.8967C19.9935 41.8967 15.9941 41.8967 11.9947 41.8967C11.8573 41.8967 11.7199 41.8967 11.5825 41.8823C11.2136 41.8389 10.9967 41.6219 10.975 41.2531C10.9533 40.8553 11.163 40.6166 11.5463 40.5371C11.7127 40.5081 11.879 40.5081 12.1032 40.4865C12.1032 40.1465 12.1032 39.8139 12.1032 39.4812C12.1032 38.2373 12.1032 36.9933 12.1032 35.7494C12.1032 35.0696 12.3274 34.8454 13.0217 34.8454C13.8534 34.8454 14.6778 34.8454 15.5529 34.8454C15.5602 34.6501 15.5746 34.491 15.5746 34.3247C15.5746 33.1603 15.5746 31.9887 15.5746 30.8243C15.5746 30.159 15.7916 29.9565 16.4642 29.9492C17.4767 29.9492 18.4964 29.9492 19.5089 29.9492C20.196 29.9492 20.4057 30.1662 20.4057 30.8677C20.4057 31.5837 20.4057 32.3069 20.4057 33.0735ZM18.9954 40.4865C18.9954 37.4345 18.9954 34.4042 18.9954 31.3739C18.3011 31.3739 17.643 31.3739 16.9849 31.3739C16.9849 34.4331 16.9849 37.449 16.9849 40.4865C17.6647 40.4865 18.3156 40.4865 18.9954 40.4865ZM20.4419 34.4838C20.4419 36.516 20.4419 38.4831 20.4419 40.472C21.1361 40.472 21.8015 40.472 22.4741 40.472C22.4741 38.4542 22.4741 36.4726 22.4741 34.4838C21.7798 34.4838 21.1217 34.4838 20.4419 34.4838ZM15.5312 40.4865C15.5312 39.0617 15.5312 37.6587 15.5312 36.2701C14.8297 36.2701 14.1644 36.2701 13.5062 36.2701C13.5062 37.6948 13.5062 39.0834 13.5062 40.4865C14.1933 40.4865 14.8514 40.4865 15.5312 40.4865Z" fill="#1DAEE5"/>
<path d="M18.3591 13.4454C16.2184 13.4454 14.0849 13.4454 11.9442 13.4454C11.7634 13.4454 11.5753 13.4382 11.3945 13.402C11.0329 13.3224 10.8955 13.0476 10.91 12.7149C10.9244 12.3823 11.098 12.1291 11.4668 12.0858C11.5898 12.0713 11.7127 12.0713 11.8357 12.0713C16.1894 12.0713 20.5432 12.0713 24.8897 12.0713C25.0126 12.0713 25.1356 12.0713 25.2585 12.0858C25.6201 12.1291 25.8009 12.3606 25.8299 12.7005C25.8516 13.0549 25.6997 13.3369 25.3236 13.4165C25.1428 13.4526 24.9548 13.4526 24.774 13.4526C22.6405 13.4454 20.4998 13.4454 18.3591 13.4454Z" fill="#1DAEE5"/>
<path d="M16.8113 18.5151C15.119 18.5151 13.4267 18.5224 11.7343 18.5151C11.163 18.5151 10.8303 18.1824 10.9171 17.7124C10.975 17.4014 11.1485 17.1772 11.4957 17.1483C11.5752 17.141 11.6476 17.1338 11.7271 17.1338C15.1118 17.1338 18.4892 17.1338 21.8738 17.1338C22.5247 17.1338 22.8574 17.5749 22.6404 18.1029C22.4885 18.4645 22.1776 18.5151 21.8377 18.5151C20.167 18.5151 18.4892 18.5151 16.8113 18.5151Z" fill="#1DAEE5"/>
<path d="M16.0809 22.2109C17.5129 22.2109 18.9376 22.2109 20.3696 22.2109C20.9409 22.2109 21.2157 22.4351 21.223 22.8835C21.2302 23.3319 20.9409 23.5923 20.3913 23.5923C17.4984 23.5995 14.6128 23.5995 11.7199 23.5923C11.098 23.5923 10.7653 23.1511 10.9606 22.6376C11.0907 22.2905 11.3583 22.2109 11.6982 22.2109C13.1591 22.2109 14.62 22.2109 16.0809 22.2109Z" fill="#1DAEE5"/>
</svg>
