<svg width="48" height="60" viewBox="0 0 48 60" fill="none" xmlns="http://www.w3.org/2000/svg">
<path d="M17.9686 0.606445C18.6629 0.606445 19.3572 0.606445 20.0514 0.606445C22.6767 1.25734 25.302 1.25734 27.9272 0.606445C28.6215 0.606445 29.3158 0.606445 30.0101 0.606445C31.5072 0.881267 32.8885 1.44537 33.9444 2.54466C35.8898 4.56966 38.1173 6.16073 40.6269 7.42636C42.6591 8.44609 43.903 10.2107 44.243 12.4527C44.6552 15.1286 45.4363 17.6454 46.7091 20.0464C47.5553 21.6375 47.7795 23.3949 47.2298 25.1596C46.9622 26.0202 46.6296 26.8808 46.1956 27.6619C45.2555 29.3614 44.7347 31.1623 44.4672 33.0788C44.1851 35.1038 43.5487 36.9986 41.8564 38.3293C41.4947 38.6114 41.4586 38.8283 41.6466 39.2333C43.5631 43.3773 45.4507 47.5358 47.3528 51.6871C47.6999 52.4464 47.7867 53.1769 47.2009 53.8495C46.6368 54.4931 45.9281 54.551 45.1397 54.3123C44.1851 54.0231 43.2088 53.7627 42.2469 53.4951C41.0247 53.1552 39.8024 52.8153 38.5657 52.4754C38.4572 52.6923 38.3632 52.8587 38.2837 53.025C37.452 54.7824 36.5986 56.5326 35.7958 58.3045C35.4848 58.9915 35.1015 59.5773 34.4145 59.9173C34.1035 59.9173 33.7997 59.9173 33.4888 59.9173C32.7872 59.628 32.4039 59.0711 32.1002 58.3913C30.2632 54.3196 28.3973 50.2623 26.5531 46.1979C26.394 45.8435 26.206 45.6844 25.8082 45.6193C24.5932 45.4313 23.3999 45.424 22.1849 45.6265C21.7872 45.6916 21.5991 45.8507 21.44 46.1979C19.5958 50.2623 17.7299 54.3196 15.893 58.3913C15.5892 59.0711 15.2059 59.628 14.5044 59.9173C14.1934 59.9173 13.8897 59.9173 13.5787 59.9173C12.8844 59.5773 12.5083 58.9915 12.1973 58.3045C11.3078 56.359 10.3748 54.4425 9.45635 52.4971C9.30448 52.526 9.196 52.5405 9.08752 52.5694C7.00466 53.148 4.92903 53.7265 2.84618 54.2906C2.53519 54.3774 2.19528 54.457 1.8843 54.4136C0.647604 54.2617 0.0328725 53.0467 0.582515 51.8389C2.4918 47.6298 4.41555 43.4207 6.35377 39.2189C6.5418 38.8139 6.50564 38.5969 6.14403 38.3148C5.05921 37.4759 4.336 36.3549 3.98885 35.0387C3.69234 33.9032 3.46091 32.7461 3.28734 31.5889C3.05591 30.0485 2.311 28.7178 1.63841 27.3509C0.97305 26.0057 0.459569 24.6244 0.502961 23.0912C0.546354 21.6737 1.00921 20.3574 1.68903 19.1424C2.68707 17.3633 3.29457 15.483 3.526 13.4652C3.88037 10.406 5.45698 8.19296 8.26305 6.88395C8.48725 6.77546 8.70421 6.64529 8.92841 6.5368C10.3676 5.87868 11.6115 4.95296 12.6964 3.80305C14.1428 2.24814 15.77 0.953588 17.9686 0.606445ZM19.0172 4.04171C17.5636 3.98386 16.5511 4.80109 15.6615 5.76296C13.9981 7.55653 12.0816 8.98127 9.84689 9.97207C8.10394 10.7459 7.1493 12.0622 6.9468 13.9642C6.69367 16.3508 5.99216 18.6 4.77716 20.6829C4.63251 20.9288 4.53126 21.2036 4.40832 21.4639C3.82975 22.6717 3.80805 23.8795 4.39385 25.0872C4.5385 25.3838 4.64698 25.6948 4.80609 25.9768C5.91984 27.9295 6.67198 30.0051 6.86725 32.2471C7.06252 34.4673 8.1618 35.9572 10.2157 36.825C12.3347 37.7146 14.0994 39.1176 15.6181 40.8172C16.9561 42.3142 18.5689 42.7771 20.5288 42.3648C22.4597 41.9598 24.4197 41.8007 26.394 42.184C26.922 42.2853 27.4644 42.3142 27.9923 42.4227C29.7497 42.7843 31.1383 42.1406 32.2882 40.875C33.9589 39.0308 35.9188 37.6061 38.1897 36.5864C38.3632 36.5068 38.5223 36.3911 38.6959 36.3043C39.976 35.6462 40.7354 34.612 40.9162 33.1873C41.2633 30.4173 42.0661 27.8138 43.4547 25.3838C44.3225 23.865 44.1489 22.3318 43.3028 20.8709C42.0299 18.6651 41.2995 16.3002 40.9957 13.7762C40.8222 12.3081 40.2364 11.028 38.8189 10.3698C36.1068 9.10421 33.7491 7.38296 31.7097 5.19886C30.7767 4.20082 29.5545 3.9477 28.2021 4.13573C26.3723 4.38886 24.5498 4.78662 22.6767 4.54073C21.4617 4.37439 20.2395 4.20805 19.0172 4.04171ZM17.7444 45.9158C16.0665 45.6338 14.7431 44.7659 13.5642 43.6449C12.8482 42.9651 12.1756 42.2491 11.4307 41.6127C10.8883 41.1498 10.2519 40.7882 9.62269 40.3543C8.13287 43.616 6.70091 46.7547 5.22555 49.9803C5.47868 49.9297 5.60885 49.908 5.73903 49.8718C7.09144 49.4957 8.44385 49.1124 9.8035 48.7508C10.7798 48.4905 11.5103 48.8159 11.9659 49.7127C12.3347 50.4504 12.6819 51.2098 13.0363 51.9547C13.3472 52.6056 13.6582 53.2564 14.0343 54.0375C15.2999 51.2604 16.5149 48.6134 17.7444 45.9158ZM33.9589 54.052C34.6821 52.526 35.3257 51.1519 35.9911 49.7778C36.4612 48.8087 37.1916 48.4905 38.2258 48.7653C38.7465 48.9027 39.2672 49.0473 39.788 49.192C40.7426 49.4523 41.7045 49.7199 42.7748 50.0164C41.2778 46.7475 39.8458 43.6015 38.3994 40.4411C37.0687 40.998 36.1213 41.9598 35.1811 42.9217C33.7925 44.3248 32.3316 45.5831 30.2415 45.9158C31.471 48.6062 32.6788 51.2604 33.9589 54.052Z" fill="#1DAEE5"/>
<path d="M29.7787 23.3216C30.3283 23.6398 30.8563 23.8857 31.3119 24.2256C32.7294 25.2887 33.4165 26.7496 33.4599 28.5142C33.4815 29.5918 33.4743 30.6767 33.4599 31.7542C33.4454 32.9403 32.7656 33.6418 31.594 33.6418C26.517 33.6491 21.4473 33.6491 16.3703 33.6418C15.3289 33.6418 14.5767 33.0126 14.5406 32.0218C14.4899 30.6911 14.461 29.3532 14.5695 28.0297C14.7431 25.9107 15.893 24.4209 17.8312 23.5458C17.9541 23.4879 18.0698 23.4301 18.1711 23.3794C16.6885 20.6384 16.6162 17.7528 17.5274 14.9034C18.5255 11.8008 21.8884 9.93487 25.0706 10.4701C28.419 11.0342 30.8924 13.8764 30.9431 17.2249C30.9503 17.7239 30.9286 18.2301 30.9503 18.7292C31.0154 20.3853 30.7116 21.9258 29.7787 23.3216ZM27.515 18.4254C27.5006 18.4254 27.4861 18.4254 27.4644 18.4254C27.4644 18.0204 27.4789 17.6154 27.4644 17.2104C27.3849 15.3517 25.8516 13.8909 23.9857 13.8981C22.1198 13.9053 20.5866 15.3734 20.5288 17.2393C20.5071 18.0276 20.5071 18.8232 20.5288 19.6115C20.5794 21.3544 21.9463 22.7864 23.6892 22.9527C25.3888 23.1118 27.0015 21.9619 27.3632 20.2696C27.4861 19.6621 27.4644 19.0329 27.515 18.4254ZM18.0409 30.1415C22.0186 30.1415 25.9746 30.1415 29.945 30.1415C29.945 29.4689 30.0174 28.8252 29.9161 28.2105C29.8582 27.82 29.6413 27.3209 29.3303 27.1401C28.5058 26.6628 27.6018 26.3229 26.7195 25.9541C26.6038 25.9034 26.423 25.9975 26.2783 26.0409C24.7451 26.5616 23.2191 26.5616 21.6859 26.0409C21.4834 25.9685 21.2231 25.9613 21.0278 26.0264C20.3914 26.2506 19.7694 26.5109 19.1547 26.7785C18.5255 27.0461 18.106 27.5307 18.0482 28.2177C17.9903 28.8397 18.0409 29.4689 18.0409 30.1415Z" fill="#1DAEE5"/>
</svg>
