<svg width="48" height="48" viewBox="0 0 48 48" fill="none" xmlns="http://www.w3.org/2000/svg">
<path d="M9.00772 3.76845C9.15236 1.59881 9.9045 0.615234 11.4016 0.615234C12.8914 0.615234 13.6363 1.57711 13.7882 3.73229C16.3845 3.73229 18.9808 3.73229 21.6423 3.73229C21.6423 3.45747 21.635 3.18988 21.6423 2.91506C21.6857 1.63497 22.7271 0.622467 23.9999 0.615234C25.2728 0.615234 26.3142 1.6205 26.3649 2.90782C26.3721 3.16818 26.3649 3.42854 26.3649 3.73229C28.9829 3.73229 31.5865 3.73229 34.2479 3.73229C34.2479 3.4647 34.2407 3.18988 34.2479 2.92229C34.2913 1.6422 35.3255 0.622467 36.5983 0.622467C37.8712 0.622467 38.9199 1.62773 38.9633 2.90782C38.9705 3.16818 38.9633 3.43577 38.9633 3.77568C39.1513 3.77568 39.3249 3.77568 39.4984 3.77568C40.8581 3.77568 42.2249 3.76845 43.5846 3.77568C45.9206 3.79015 47.6274 5.48247 47.6274 7.81845C47.6346 19.831 47.6346 31.8509 47.6274 43.8634C47.6274 46.1922 45.9133 47.8918 43.5701 47.8918C30.5233 47.899 17.4693 47.899 4.42254 47.8918C2.05763 47.8918 0.358073 46.185 0.358073 43.8201C0.350841 31.8364 0.358073 19.8527 0.358073 7.87631C0.358073 5.47523 2.05039 3.79015 4.44423 3.77568C5.96298 3.76845 7.46727 3.76845 9.00772 3.76845ZM1.94191 14.8192C1.94191 15.0361 1.94191 15.1952 1.94191 15.3616C1.94191 24.7995 1.94191 34.2375 1.94191 43.6754C1.94191 45.375 2.88932 46.3151 4.60334 46.3151C17.5344 46.3151 30.4727 46.3151 43.4038 46.3151C45.1178 46.3151 46.0652 45.375 46.0652 43.6754C46.0652 34.2375 46.0652 24.7995 46.0652 15.3616C46.0652 15.188 46.0652 15.0144 46.0652 14.8192C31.3333 14.8192 16.6666 14.8192 1.94191 14.8192ZM1.94914 13.1919C16.681 13.1919 31.355 13.1919 46.058 13.1919C46.058 11.3694 46.0652 9.58309 46.058 7.79675C46.0508 6.35756 45.0455 5.35952 43.6063 5.35229C42.196 5.34506 40.7858 5.35229 39.3755 5.35229C39.2525 5.35229 39.1224 5.37398 38.9777 5.38845C38.9777 6.12613 38.9777 6.82764 38.9777 7.52916C38.9705 9.00452 37.9869 10.0749 36.6273 10.0749C35.2604 10.0821 34.2624 9.01175 34.2551 7.54363C34.2551 6.82764 34.2551 6.11166 34.2551 5.38122C31.6082 5.38122 29.0118 5.38122 26.3721 5.38122C26.3721 6.19845 26.3866 6.97952 26.3721 7.76782C26.3432 8.96113 25.4464 9.93023 24.2748 10.0676C23.0887 10.2051 21.9822 9.43122 21.7218 8.23791C21.6423 7.87631 21.6567 7.493 21.6495 7.11693C21.6423 6.53113 21.6495 5.95256 21.6495 5.38122C18.9808 5.38122 16.399 5.38122 13.7665 5.38122C13.7665 6.19122 13.7809 6.97952 13.7665 7.76059C13.7375 9.06961 12.6816 10.0893 11.3871 10.0821C10.1142 10.0749 9.08004 9.05515 9.05111 7.76782C9.03664 6.97229 9.05111 6.17675 9.05111 5.35952C7.37325 5.35952 5.76048 5.33059 4.15495 5.36675C3.02673 5.39568 2.02147 6.33586 1.9853 7.46407C1.90575 9.35889 1.94914 11.2609 1.94914 13.1919ZM12.1826 5.38122C12.1826 4.62907 12.1899 3.8697 12.1826 3.11756C12.1754 2.54622 11.8572 2.19184 11.3799 2.20631C10.917 2.22077 10.6133 2.56068 10.6133 3.10309C10.606 4.59291 10.606 6.08997 10.6133 7.57979C10.6133 8.15113 10.9387 8.5055 11.416 8.49827C11.8716 8.49104 12.1754 8.14389 12.1826 7.59425C12.1899 6.85657 12.1826 6.1189 12.1826 5.38122ZM23.2116 5.29443C23.2116 6.04657 23.2044 6.80595 23.2116 7.55809C23.2189 8.13666 23.5226 8.49104 23.9999 8.49104C24.4773 8.49104 24.781 8.13666 24.7883 7.55809C24.7955 6.08273 24.7955 4.60738 24.7883 3.12479C24.7883 2.54622 24.4773 2.19184 23.9999 2.19184C23.5226 2.19184 23.2189 2.54622 23.2116 3.12479C23.2044 3.85524 23.2116 4.57845 23.2116 5.29443ZM35.8173 5.30889C35.8173 6.06104 35.81 6.82041 35.8173 7.57256C35.8245 8.1439 36.1355 8.49827 36.6128 8.49827C37.0757 8.49104 37.3866 8.15113 37.3866 7.60149C37.3939 6.08997 37.3939 4.57845 37.3866 3.07416C37.3866 2.53898 37.054 2.19184 36.5911 2.19907C36.1283 2.20631 35.8245 2.54622 35.8173 3.08863C35.81 3.83354 35.8173 4.57122 35.8173 5.30889Z" fill="#1DAEE5"/>
<path d="M24.0577 32.0102C24.2458 30.8459 24.4338 29.6164 24.658 28.3942C24.7303 28.0036 24.658 27.7216 24.3615 27.4395C23.5587 26.6657 22.7993 25.8485 22.011 25.0529C21.7434 24.7853 21.5409 24.496 21.6784 24.091C21.8158 23.7005 22.134 23.5848 22.5245 23.5269C23.6455 23.3678 24.7593 23.2015 25.873 22.999C26.0683 22.9628 26.3069 22.782 26.3937 22.6012C26.9289 21.5309 27.4279 20.446 27.9269 19.3612C28.0933 19.0068 28.303 18.7393 28.7225 18.7393C29.1419 18.7393 29.3589 19.0141 29.518 19.3612C30.0026 20.4171 30.516 21.4585 30.9861 22.5217C31.1308 22.8471 31.3333 22.9845 31.6659 23.0279C32.7725 23.1798 33.8645 23.3678 34.971 23.5269C35.3399 23.5776 35.6364 23.7222 35.7593 24.091C35.8895 24.4671 35.7159 24.7564 35.4628 25.0168C34.6601 25.834 33.8718 26.6729 33.0473 27.4685C32.7725 27.736 32.7218 27.9892 32.7869 28.3435C32.9894 29.5224 33.1992 30.7012 33.3438 31.8873C33.38 32.1621 33.2426 32.531 33.0545 32.7479C32.8014 33.0372 32.4326 32.936 32.1071 32.7479C31.1091 32.1838 30.0966 31.6486 29.0985 31.0773C28.8237 30.9182 28.6068 30.9254 28.3319 31.0845C27.3194 31.6631 26.3069 32.2272 25.28 32.7768C24.658 33.1168 24.036 32.7552 24.0577 32.0102ZM25.873 30.6578C26.6396 30.2384 27.3267 29.8912 27.9776 29.4862C28.4983 29.1608 28.9539 29.1535 29.4818 29.479C30.14 29.8912 30.8343 30.2384 31.5792 30.6506C31.4345 29.7321 31.3405 28.9004 31.1597 28.0832C31.0295 27.5118 31.1886 27.1141 31.5936 26.7308C32.1939 26.1594 32.7508 25.5519 33.3872 24.8938C32.4253 24.7419 31.5792 24.5973 30.7185 24.4816C30.2991 24.4237 30.0387 24.214 29.8724 23.8379C29.5686 23.1509 29.2359 22.471 28.9105 21.7912C28.8599 21.69 28.7876 21.596 28.6935 21.4513C28.3536 22.1745 28.0065 22.8037 27.7534 23.4763C27.4858 24.1778 27.0518 24.5105 26.2997 24.5611C25.5765 24.6118 24.8677 24.7709 24.1518 24.8793C24.1011 24.9517 24.0577 25.024 24.0071 25.0963C24.6652 25.6893 25.3234 26.2752 25.9887 26.8682C26.3142 27.1575 26.4009 27.5046 26.3214 27.9313C26.1551 28.8064 26.0321 29.6743 25.873 30.6578Z" fill="#1DAEE5"/>
<path d="M16.9486 25.046C16.4424 25.046 15.9289 25.0532 15.4226 25.046C14.8441 25.0315 14.5548 24.7422 14.5475 24.1564C14.5403 23.1729 14.5403 22.1893 14.5475 21.2057C14.5548 20.6271 14.8513 20.3379 15.4371 20.3306C16.4207 20.3234 17.4042 20.3234 18.3878 20.3306C18.9664 20.3379 19.2629 20.6344 19.2629 21.2202C19.2701 22.2037 19.2701 23.1873 19.2629 24.1709C19.2557 24.7495 18.9591 25.0387 18.3733 25.046C17.9033 25.0532 17.4259 25.046 16.9486 25.046ZM17.6863 21.9217C17.1439 21.9217 16.6521 21.9217 16.1531 21.9217C16.1531 22.4496 16.1531 22.9487 16.1531 23.426C16.6883 23.426 17.18 23.426 17.6863 23.426C17.6863 22.9125 17.6863 22.4424 17.6863 21.9217Z" fill="#1DAEE5"/>
<path d="M40.5109 25.0454C40.0191 25.0454 39.5273 25.0526 39.0355 25.0454C38.4859 25.0309 38.1894 24.7344 38.1821 24.1775C38.1749 23.1795 38.1677 22.1742 38.1821 21.1762C38.1894 20.6266 38.4931 20.33 39.0427 20.3228C40.0408 20.3156 41.046 20.3083 42.0441 20.3228C42.5937 20.33 42.8902 20.6338 42.8975 21.1834C42.9119 22.1815 42.9119 23.1867 42.8975 24.1848C42.8902 24.7344 42.5865 25.0237 42.0296 25.0382C41.5306 25.0526 41.0244 25.0454 40.5109 25.0454ZM39.7949 21.9139C39.7949 22.4491 39.7949 22.9481 39.7949 23.4254C40.3301 23.4254 40.8219 23.4254 41.3064 23.4254C41.3064 22.8974 41.3064 22.4129 41.3064 21.9139C40.7929 21.9139 40.3084 21.9139 39.7949 21.9139Z" fill="#1DAEE5"/>
<path d="M9.05111 28.1988C9.5429 28.1988 10.0347 28.1916 10.5265 28.1988C11.0833 28.2133 11.3799 28.5026 11.3871 29.0522C11.4016 30.0502 11.4016 31.0555 11.3871 32.0535C11.3799 32.6104 11.0833 32.9069 10.5337 32.9142C9.53567 32.9286 8.5304 32.9286 7.53236 32.9142C6.97549 32.9069 6.67897 32.6104 6.67174 32.0608C6.65727 31.0627 6.65727 30.0575 6.67174 29.0594C6.67897 28.5026 6.97549 28.206 7.52513 28.1988C8.03138 28.1843 8.53763 28.1988 9.05111 28.1988ZM8.26281 31.3159C8.79799 31.3159 9.28977 31.3159 9.77433 31.3159C9.77433 30.7879 9.77433 30.2889 9.77433 29.7971C9.25361 29.7971 8.76906 29.7971 8.26281 29.7971C8.26281 30.3034 8.26281 30.7879 8.26281 31.3159Z" fill="#1DAEE5"/>
<path d="M16.9053 32.9205C16.3991 32.9205 15.8856 32.935 15.3793 32.9205C14.8586 32.9061 14.5549 32.6096 14.5477 32.0888C14.5332 31.0691 14.5332 30.0566 14.5477 29.0369C14.5549 28.5089 14.8514 28.2124 15.3793 28.2052C16.3991 28.1907 17.4116 28.1907 18.4313 28.2052C18.952 28.2124 19.2558 28.5162 19.263 29.0369C19.2775 30.0566 19.2775 31.0691 19.263 32.0888C19.2558 32.6096 18.952 32.9061 18.4313 32.9205C17.9251 32.935 17.4188 32.9205 16.9053 32.9205ZM16.146 31.315C16.6811 31.315 17.1729 31.315 17.6575 31.315C17.6575 30.7871 17.6575 30.288 17.6575 29.7963C17.1368 29.7963 16.6522 29.7963 16.146 29.7963C16.146 30.3025 16.146 30.7871 16.146 31.315Z" fill="#1DAEE5"/>
<path d="M40.5472 28.1988C41.0534 28.1988 41.5669 28.1843 42.0732 28.1988C42.5939 28.2133 42.8976 28.5098 42.9049 29.0305C42.9193 30.0502 42.9193 31.0627 42.9049 32.0825C42.8976 32.6032 42.5939 32.9069 42.0732 32.9142C41.0534 32.9286 40.0409 32.9286 39.0212 32.9142C38.5005 32.9069 38.1967 32.6032 38.1895 32.0825C38.175 31.0627 38.175 30.0502 38.1895 29.0305C38.1967 28.5098 38.5005 28.2133 39.0212 28.1988C39.5274 28.1843 40.0337 28.1988 40.5472 28.1988ZM39.795 29.7826C39.795 30.2961 39.795 30.8024 39.795 31.3159C40.3085 31.3159 40.8075 31.3159 41.2921 31.3159C41.2921 30.7879 41.2921 30.2889 41.2921 29.7826C40.7858 29.7826 40.3157 29.7826 39.795 29.7826Z" fill="#1DAEE5"/>
<path d="M11.3943 38.4826C11.3943 38.9744 11.4088 39.4662 11.3943 39.958C11.3798 40.4787 11.0833 40.7825 10.5626 40.7897C9.54287 40.8041 8.53037 40.8041 7.51064 40.7897C6.98992 40.7825 6.68617 40.4787 6.67894 39.958C6.66447 38.9383 6.66447 37.9258 6.67894 36.906C6.68617 36.3781 6.98992 36.0816 7.51064 36.0743C8.53037 36.0599 9.54287 36.0599 10.5626 36.0743C11.0833 36.0816 11.3798 36.3853 11.3943 36.906C11.4015 37.434 11.3943 37.9619 11.3943 38.4826ZM9.78876 39.1986C9.78876 38.6779 9.78876 38.1789 9.78876 37.6799C9.26081 37.6799 8.76903 37.6799 8.27724 37.6799C8.27724 38.2078 8.27724 38.7068 8.27724 39.1986C8.80519 39.1986 9.28974 39.1986 9.78876 39.1986Z" fill="#1DAEE5"/>
<path d="M19.2702 38.4904C19.2702 38.9822 19.2847 39.474 19.2702 39.9658C19.2557 40.4865 18.9592 40.7903 18.4385 40.7975C17.4188 40.812 16.4063 40.812 15.3866 40.7975C14.8658 40.7903 14.5621 40.4865 14.5549 39.9658C14.5404 38.9461 14.5404 37.9336 14.5549 36.9138C14.5621 36.3931 14.8658 36.0894 15.3866 36.0821C16.4063 36.0677 17.4188 36.0677 18.4385 36.0821C18.9592 36.0894 19.2557 36.3931 19.2702 36.9138C19.2847 37.4345 19.2702 37.9625 19.2702 38.4904ZM16.1532 37.6732C16.1532 38.2084 16.1532 38.7074 16.1532 39.1847C16.6883 39.1847 17.1801 39.1847 17.6647 39.1847C17.6647 38.6568 17.6647 38.1722 17.6647 37.6732C17.1584 37.6732 16.6739 37.6732 16.1532 37.6732Z" fill="#1DAEE5"/>
<path d="M27.1532 38.4686C27.1532 38.9459 27.1604 39.4232 27.1532 39.8933C27.1459 40.4791 26.8567 40.7901 26.2853 40.7974C25.2873 40.8118 24.282 40.8118 23.284 40.7974C22.7343 40.7901 22.4378 40.4864 22.4306 39.9295C22.4234 38.9315 22.4161 37.9262 22.4306 36.9282C22.4378 36.3785 22.7416 36.082 23.2984 36.0748C24.2965 36.0675 25.3018 36.0603 26.2998 36.0748C26.8494 36.082 27.1387 36.3857 27.1532 36.9426C27.1604 37.4489 27.1532 37.9624 27.1532 38.4686ZM24.0217 39.1918C24.5568 39.1918 25.0486 39.1918 25.5332 39.1918C25.5332 38.6639 25.5332 38.1649 25.5332 37.6731C25.0125 37.6731 24.5279 37.6731 24.0217 37.6731C24.0217 38.1865 24.0217 38.6711 24.0217 39.1918Z" fill="#1DAEE5"/>
<path d="M32.7003 40.8042C32.2086 40.8042 31.7168 40.8114 31.225 40.8042C30.6103 40.797 30.3137 40.5149 30.3065 39.9074C30.2993 38.9383 30.2993 37.9692 30.3065 37.0001C30.3137 36.3781 30.5958 36.0888 31.2033 36.0816C32.1724 36.0744 33.1415 36.0744 34.1106 36.0816C34.7254 36.0888 35.0219 36.3709 35.0291 36.9784C35.0363 37.9475 35.0363 38.9166 35.0291 39.8857C35.0219 40.5221 34.7326 40.797 34.0817 40.8042C33.6188 40.8042 33.1632 40.8042 32.7003 40.8042ZM33.4308 39.2059C33.4308 38.6635 33.4308 38.1789 33.4308 37.6799C32.9101 37.6799 32.4111 37.6799 31.912 37.6799C31.912 38.2078 31.912 38.6996 31.912 39.2059C32.4328 39.2059 32.9173 39.2059 33.4308 39.2059Z" fill="#1DAEE5"/>
<path d="M42.9049 38.4609C42.9049 38.9527 42.9121 39.4445 42.9049 39.9363C42.8904 40.4859 42.5939 40.7897 42.0442 40.7897C41.0462 40.8041 40.0409 40.8041 39.0429 40.7897C38.4932 40.7825 38.1967 40.4787 38.1895 39.9291C38.175 38.931 38.175 37.9258 38.1895 36.9277C38.1967 36.3781 38.4932 36.0816 39.0501 36.0743C40.0482 36.0599 41.0534 36.0599 42.0515 36.0743C42.6011 36.0816 42.8976 36.3781 42.9121 36.935C42.9193 37.4484 42.9049 37.9547 42.9049 38.4609ZM39.7733 39.1841C40.323 39.1841 40.822 39.1841 41.3066 39.1841C41.3066 38.6562 41.3066 38.1716 41.3066 37.6799C40.7858 37.6799 40.2868 37.6799 39.7733 37.6799C39.7733 38.1933 39.7733 38.6779 39.7733 39.1841Z" fill="#1DAEE5"/>
</svg>
