<svg width="20" height="17" viewBox="0 0 20 17" fill="none" xmlns="http://www.w3.org/2000/svg">
<path d="M9.99751 16.9775C9.60982 16.9785 9.22578 16.9012 8.86763 16.7501C8.50948 16.5989 8.18433 16.3769 7.91099 16.097L0.905762 8.96326L7.91099 1.82956C9.02557 0.693533 10.9694 0.693533 12.084 1.82956C12.6408 2.39456 12.9487 3.14891 12.9487 3.95234C12.9487 4.69967 12.6831 5.40592 12.1972 5.95791H16.9545C18.5816 5.95791 19.9058 7.30631 19.9058 8.96326C19.9058 10.6202 18.5816 11.9686 16.9545 11.9686H12.1972C12.6821 12.5186 12.9487 13.2228 12.9487 13.9702C12.9501 14.3655 12.8744 14.7571 12.726 15.1224C12.5775 15.4877 12.3593 15.8193 12.084 16.098C11.8106 16.3778 11.4854 16.5996 11.1273 16.7505C10.7691 16.9015 10.3851 16.9787 9.99751 16.9775ZM3.68779 8.96326L9.302 14.6804C9.48927 14.8628 9.7384 14.9646 9.99751 14.9646C10.2566 14.9646 10.5057 14.8628 10.693 14.6804C10.8789 14.4911 10.9813 14.2387 10.9813 13.9712C10.9813 13.7037 10.8789 13.4533 10.695 13.2649L7.45355 9.96504H16.9545C17.2078 9.9535 17.447 9.84292 17.6222 9.65631C17.7975 9.4697 17.8953 9.22145 17.8953 8.96326C17.8953 8.70506 17.7975 8.45681 17.6222 8.27021C17.447 8.0836 17.2078 7.97301 16.9545 7.96147H7.45355L10.693 4.6626C10.7847 4.56993 10.8575 4.45971 10.9072 4.33828C10.9569 4.21685 10.9826 4.08661 10.9827 3.95505C10.9828 3.82349 10.9573 3.69321 10.9078 3.57171C10.8582 3.4502 10.7856 3.33988 10.694 3.24708C10.5068 3.06429 10.2575 2.96216 9.9982 2.96197C9.73885 2.96179 9.48945 3.06356 9.302 3.24608L3.68779 8.96326Z" fill="black"/>
</svg>
