<svg width="14" height="12" viewBox="0 0 14 12" fill="none" xmlns="http://www.w3.org/2000/svg">
<path d="M2.07901 6.59992L13.3914 6.59992C13.5528 6.59992 13.7076 6.53672 13.8217 6.42421C13.9359 6.3117 14 6.15911 14 6C14 5.84089 13.9359 5.6883 13.8217 5.57579C13.7076 5.46328 13.5528 5.40007 13.3914 5.40008L2.07901 5.40008L6.51849 1.02543C6.63278 0.912778 6.69699 0.759991 6.69699 0.600681C6.69699 0.44137 6.63278 0.288584 6.51849 0.175934C6.40421 0.0632846 6.2492 -1.22975e-06 6.08757 -1.21562e-06C5.92594 -1.20149e-06 5.77094 0.0632846 5.65665 0.175935L0.178813 5.57525C0.122133 5.63098 0.0771622 5.69718 0.0464787 5.77007C0.0157952 5.84295 4.22239e-07 5.92109 4.29138e-07 6C4.36036e-07 6.07891 0.0157952 6.15705 0.0464787 6.22993C0.0771622 6.30282 0.122133 6.36902 0.178813 6.42475L5.65665 11.8241C5.77094 11.9367 5.92594 12 6.08757 12C6.2492 12 6.40421 11.9367 6.5185 11.8241C6.63278 11.7114 6.69699 11.5586 6.69699 11.3993C6.69699 11.24 6.63278 11.0872 6.51849 10.9746L2.07901 6.59992Z" fill="#1DAEE5"/>
</svg>
