<svg width="141" height="62" viewBox="0 0 141 62" fill="none" xmlns="http://www.w3.org/2000/svg">
<path d="M25.3407 1.61248C25.5956 1.14255 27.7382 0.0848652 28.2874 0.000837295C28.3367 -0.00627618 28.3815 0.0328479 28.3802 0.0835314C28.3598 0.552132 28.4352 1.24392 28.0152 1.57025C26.7925 2.51323 25.6395 3.53579 24.5576 4.63704C24.3937 4.80377 24.2086 4.89802 24.0026 4.91714C23.92 4.92603 23.8561 4.84333 23.8867 4.76464C24.3049 3.68384 24.7889 2.63238 25.3407 1.61248Z" fill="white"/>
<path d="M33.3634 2.71884C31.2989 3.57335 29.7982 4.35672 28.0774 5.32549C27.9429 5.40107 27.779 5.45887 27.5864 5.5011C27.5007 5.51844 27.4256 5.44597 27.4416 5.36061C27.4691 5.22145 27.5446 5.08808 27.6689 4.96003C29.0031 3.60358 30.149 2.55034 31.1066 1.8021C31.302 1.6496 31.6381 1.50466 32.1149 1.36817C32.9567 1.12898 33.7998 0.896906 34.6469 0.673276C34.967 0.587469 35.2019 0.470097 35.5437 0.550124C35.6263 0.568797 35.6583 0.671942 35.6001 0.734185C34.9177 1.46732 34.2993 2.33027 33.3634 2.71884Z" fill="white"/>
<path d="M20.8995 4.74197C20.7983 4.96382 20.5794 5.44398 20.2855 5.41775C20.1958 5.41064 20.1248 5.34084 20.1146 5.25236C20.0289 4.50545 19.9654 3.75098 19.9263 2.98806C19.8975 2.41809 21.0216 1.67251 21.4429 1.37774C21.8687 1.08031 22.2599 1.53024 22.4716 1.83612C22.5573 1.96105 22.5498 2.12777 22.453 2.24514C21.8252 3.00539 21.3084 3.83812 20.8995 4.74197Z" fill="white"/>
<path d="M39.5071 4.9572C38.5757 5.4796 37.8631 5.68989 36.7358 5.81749C34.7193 6.0469 32.6926 6.59508 30.7559 7.19261C30.6472 7.22595 30.4909 7.22017 30.2853 7.17527C30.2347 7.16504 30.213 7.13303 30.2232 7.07968C30.2476 6.95075 30.3102 6.8565 30.4127 6.79692C32.1944 5.76413 34.0995 4.80648 36.1276 3.92486C36.4535 3.78259 36.7678 3.70167 37.0706 3.68255C38.5424 3.58519 40.0155 3.50249 41.4904 3.43447C41.6658 3.42736 41.8309 3.46337 41.9872 3.54606C42.0653 3.58652 42.0769 3.69278 42.0116 3.75058C41.7639 3.96976 41.4873 4.1307 41.1814 4.23652C40.5167 4.46548 39.9591 4.70645 39.5071 4.9572Z" fill="white"/>
<path d="M15.0913 4.79691C15.6086 3.99887 16.1444 3.20972 17.2353 3.71477C17.3179 3.7539 17.3498 3.81614 17.3281 3.90461C17.1207 4.75467 17.0266 5.61763 17.0426 6.49392C17.0439 6.58239 17.0062 6.66642 16.9396 6.72333C16.7425 6.89138 16.5542 6.87271 16.3749 6.66686C15.9287 6.15336 15.5056 5.64119 15.106 5.13213C15.0305 5.03477 15.0243 4.89961 15.0913 4.79691Z" fill="white"/>
<path d="M12.6612 6.6065L13.7272 8.6912C13.756 8.74944 13.7489 8.81879 13.7067 8.86814C13.5185 9.08999 13.2676 9.106 12.9866 9.01308C12.2114 8.75922 11.4291 8.5387 10.6429 8.35464C10.5878 8.34175 10.5532 8.28662 10.5647 8.23149C10.6762 7.68464 10.8791 6.81279 11.5339 6.69542C11.8802 6.63318 12.2292 6.58961 12.5781 6.56204C12.6159 6.55849 12.6434 6.57316 12.6612 6.6065Z" fill="white"/>
<path d="M45.4818 8.77328C45.6367 8.81241 45.7557 8.88221 45.8396 8.98358C45.896 9.0516 45.8716 9.15474 45.7903 9.18942C44.7648 9.61756 43.6015 9.60289 42.576 9.82919C41.8558 9.98569 41.0274 10.2689 40.2842 10.2049C37.5755 9.97146 34.8619 9.91055 32.1456 10.0248C32.0111 10.0306 31.9125 9.9928 31.8531 9.91011C31.766 9.79273 31.8184 9.62423 31.9574 9.57666C34.5169 8.70348 37.2997 8.16241 39.968 7.73427C40.1985 7.69648 40.5257 7.71693 40.9488 7.79385C42.4716 8.07127 43.9825 8.3976 45.4818 8.77328Z" fill="white"/>
<path d="M8.72214 10.5558C9.4507 10.9563 10.2388 11.2275 10.9993 11.5552C11.1356 11.6135 11.1542 11.6975 11.0543 11.8077C10.9225 11.9527 10.7458 12.0398 10.5211 12.0687C9.24203 12.2328 7.97892 12.4822 6.73135 12.8143C6.68074 12.829 6.62568 12.8072 6.59683 12.7623C6.33177 12.343 5.86071 11.7628 6.53156 11.3974C7.11228 11.0795 7.69034 10.7941 8.26573 10.5371C8.41224 10.4717 8.5814 10.4775 8.72214 10.5558Z" fill="white"/>
<path d="M42.0435 13.7675C43.2617 14.3882 44.4685 15.0355 45.6605 15.7086C45.827 15.8028 45.9358 15.9278 45.9864 16.0856C46.0286 16.2163 45.93 16.3497 45.7937 16.3466C44.032 16.3075 42.2721 16.2377 40.5135 16.1376C40.1761 16.119 39.9586 16.0536 39.6575 15.9389C37.2197 15.0119 34.7339 14.2388 32.2001 13.6195C32.0221 13.5759 31.9017 13.4976 31.8396 13.3843C31.7659 13.2464 31.8498 13.0753 32.0047 13.0508C32.3279 13.0001 32.6521 12.9726 32.9784 12.965C35.4686 12.917 37.9558 12.9939 40.4389 13.1958C41.096 13.2496 41.4774 13.479 42.0435 13.7675Z" fill="white"/>
<path d="M7.49238 16.238C6.5365 16.7137 5.44832 17.3508 4.22738 18.1471C3.81315 18.4183 2.80755 18.2662 2.32672 18.2445C2.26146 18.2413 2.22106 18.1747 2.24547 18.1155C2.35425 17.8572 2.50342 17.6469 2.693 17.4846C3.09702 17.1365 3.73146 16.6012 4.59943 15.8774C4.89335 15.6307 5.1251 15.5164 5.52512 15.4435C6.73762 15.2217 7.95012 15.0563 9.16395 14.946C9.30602 14.9331 9.39437 15.0985 9.30291 15.2088C8.99169 15.5867 7.95855 16.0073 7.49238 16.238Z" fill="white"/>
<path d="M38.4528 19.1145C38.8133 19.2493 39.1512 19.4831 39.4624 19.8152C40.4432 20.8613 41.4266 21.9359 42.4104 23.043C42.4655 23.1052 42.4961 23.1866 42.4917 23.2693C42.4828 23.5218 42.3425 23.6103 42.0686 23.536C40.4156 23.0834 38.7774 22.5873 37.1506 22.0475C36.9624 21.9853 36.7915 21.9226 36.629 21.7937C34.6386 20.2038 32.5759 18.7126 30.4404 17.3215C30.3258 17.2477 30.265 17.1575 30.2566 17.0516C30.245 16.9023 30.3725 16.7791 30.5216 16.7978C31.747 16.9561 32.9959 17.3375 34.1765 17.6972C35.8915 18.2209 37.3171 18.6922 38.4528 19.1145Z" fill="white"/>
<path d="M5.32366 20.0497C6.42028 19.4753 7.52844 18.8791 8.66413 18.3829C8.73783 18.3509 8.82041 18.4002 8.82796 18.4816C8.8395 18.6368 8.79466 18.7586 8.69166 18.8502C6.49265 20.7837 5.36406 21.8267 3.52467 23.8083C3.37816 23.9648 3.2494 24.0359 3.06826 24.1275C2.25712 24.5423 1.47172 24.9744 0.714301 25.4257C0.528719 25.5373 0.463899 25.4879 0.518952 25.279C0.572673 25.0771 0.681003 24.8584 0.843498 24.6205C1.58227 23.534 2.35879 22.4767 3.17126 21.4453C3.59126 20.9144 4.71541 20.3689 5.32366 20.0497Z" fill="white"/>
<path d="M36.5638 28.9331C36.6681 29.1465 36.7436 29.3741 36.7884 29.6164C36.8173 29.776 36.6783 29.9165 36.5189 29.8876C36.4235 29.8716 36.3218 29.8294 36.2161 29.7645C34.375 28.6401 33.0146 27.7945 32.1356 27.2245C32.0197 27.1489 31.9038 27.0244 31.7866 26.8515C30.4076 24.7961 28.9922 22.7652 27.5391 20.7601C27.3868 20.5512 27.3912 20.3845 27.5493 20.2582C27.639 20.1871 27.7624 20.1755 27.8636 20.2275C28.6126 20.6161 29.3341 21.05 30.0293 21.5302C32.211 23.0347 33.6522 24.0715 34.3519 24.6401C34.6374 24.8722 34.9037 25.5106 35.0849 25.8845C35.5786 26.9008 36.0714 27.9163 36.5638 28.9331Z" fill="white"/>
<path d="M2.1513 31.1616C2.68141 29.8038 3.23061 28.4415 3.8433 27.1189C4.06484 26.6418 4.35032 26.3746 4.69662 26.0021C6.14797 24.4353 7.74895 22.9411 9.50043 21.5184C9.64695 21.3992 9.74684 21.4299 9.80323 21.6099C9.83652 21.7158 9.79168 21.858 9.66693 22.0336C7.86039 24.5678 6.94358 26.1563 5.69467 28.3295C5.03981 29.4668 3.91433 30.2706 3.02771 31.222C2.75822 31.5106 2.49317 31.7876 2.23388 32.0561C2.15264 32.1388 2.01367 32.0805 2.01367 31.9663C2.01367 31.6648 2.05985 31.3963 2.1513 31.1616Z" fill="white"/>
<path d="M26.0541 30.9571C25.889 30.7615 25.8135 30.5712 25.7354 30.3303C24.9864 28.0179 24.3013 25.6536 23.6784 23.2381C23.642 23.0976 23.7028 22.9496 23.8276 22.8753C23.9999 22.7722 24.1783 22.842 24.3608 23.0812C26.5612 25.9608 28.0347 27.9424 28.7775 29.0245C29.0079 29.3579 29.1833 29.8674 29.3032 30.5521C29.5234 31.8041 29.7289 33.0952 29.9189 34.4254C29.9434 34.6037 29.7724 34.7446 29.6033 34.685C29.4932 34.6459 29.3786 34.5677 29.2614 34.4498C28.1413 33.3317 27.0722 32.1682 26.0541 30.9571Z" fill="white"/>
<path d="M7.58746 36.0473C7.49023 36.2287 7.3819 36.4083 7.26291 36.587C7.19765 36.6844 7.06312 36.7044 6.97167 36.6306C6.90374 36.5755 6.86866 36.4826 6.86733 36.3523C6.8367 34.6535 7.14837 32.8142 7.37568 31.127C7.41475 30.8309 7.64784 30.3192 8.07539 29.5923C9.23283 27.6209 10.4671 25.7016 11.7808 23.8335C11.8736 23.7014 11.9908 23.645 12.1316 23.6636C12.2519 23.6796 12.33 23.797 12.2994 23.9131C12.2066 24.2625 12.0978 24.6035 11.9748 24.9374C11.1433 27.1844 10.4769 29.4793 9.97427 31.825C9.94985 31.9424 9.8251 32.2892 9.75539 32.3981C8.98376 33.5856 8.26097 34.8011 7.58746 36.0473Z" fill="white"/>
<path d="M21.7607 37.423C20.9842 36.1203 20.1877 34.7189 19.5386 33.3438C19.2647 32.7636 19.2562 31.9789 19.2545 31.4565C19.2473 29.2776 19.3095 27.1004 19.4383 24.9259C19.4511 24.7241 19.512 24.572 19.6238 24.472C19.7468 24.3617 19.9413 24.3964 20.0163 24.5445C20.1251 24.7534 20.2179 24.9784 20.2942 25.2202C20.9824 27.373 21.6763 29.5243 22.376 31.6739C22.4906 32.0265 22.5341 32.3893 22.5066 32.7619C22.3934 34.2677 22.3254 35.7749 22.301 37.2834C22.2966 37.527 22.1838 37.623 21.9592 37.5692C21.8766 37.5506 21.8038 37.4968 21.7607 37.423Z" fill="white"/>
<path d="M15.1416 25.4764C15.2344 25.2195 15.3081 24.9425 15.4994 24.7526C15.6282 24.6264 15.8457 24.6931 15.8803 24.8718C16.0801 25.9001 15.8644 27.113 15.7747 28.156C15.721 28.7669 15.76 30.2171 15.8892 32.5077C15.9154 32.9776 15.863 33.4622 15.6996 33.9468C15.2317 35.3277 14.8086 36.7348 14.4308 38.1695C14.4032 38.274 14.3193 38.3536 14.215 38.3772C14.0627 38.4105 13.9646 38.3527 13.918 38.2029C13.8323 37.9259 13.7586 37.6458 13.6978 37.3631C13.2849 35.454 13.0229 34.1251 12.911 33.3782C12.8604 33.0372 12.9039 32.6121 13.0416 32.1044C13.6467 29.8659 14.3464 27.6567 15.1416 25.4764Z" fill="white"/>
<path d="M78.3789 23.6954H87.9656C88.0988 23.6954 88.2063 23.8025 88.2063 23.9363V27.5166C88.2063 27.65 88.0993 27.7576 87.9656 27.7576H78.3789C78.2457 27.7576 78.1382 27.8648 78.1382 27.9986V38.1428C78.1382 38.2762 78.0312 38.3838 77.8976 38.3838H74.0688C73.9356 38.3838 73.8281 38.2767 73.8281 38.1428V13.0203C73.8281 12.8869 73.9351 12.7793 74.0688 12.7793H89.7398C89.873 12.7793 89.9804 12.8864 89.9804 13.0203V16.6006C89.9804 16.7339 89.8734 16.8415 89.7398 16.8415H78.3784C78.2452 16.8415 78.1378 16.9487 78.1378 17.0825V23.4553C78.1382 23.5878 78.2452 23.6954 78.3789 23.6954Z" fill="white"/>
<path d="M98.0261 22.5496C98.0101 27.5383 98.0133 32.5862 98.0363 37.6942C98.0363 37.9058 98.0159 38.0787 97.9755 38.2134C97.9422 38.325 97.8667 38.3815 97.7495 38.3815L94.4353 38.3828C94.2182 38.3828 94.1094 38.2739 94.1094 38.0565V13.1451C94.1094 12.929 94.2164 12.8201 94.4326 12.8188C95.5581 12.813 96.6955 12.813 97.841 12.8188C98.2175 12.8201 98.3351 13.17 98.467 13.4759C100.675 18.6096 102.882 23.7406 105.09 28.8712C105.118 28.9366 105.16 28.9481 105.218 28.909C105.225 28.9046 105.236 28.8815 105.255 28.8392C107.463 23.6286 109.677 18.4006 111.895 13.1536C111.982 12.9491 112.183 12.8157 112.406 12.8157L115.767 12.817C115.96 12.817 116.057 12.9126 116.057 13.1055V38.165C116.057 38.2855 115.96 38.3824 115.84 38.3824H112.435C112.295 38.3824 112.182 38.269 112.182 38.1285V22.6656C112.182 22.297 112.108 22.2828 111.962 22.6207L106.825 34.4695C106.71 34.7323 106.452 34.9017 106.167 34.9017H104.007C103.732 34.9017 103.483 34.7376 103.373 34.4838L98.1842 22.5176C98.0799 22.2797 98.0275 22.2899 98.0261 22.5496Z" fill="white"/>
<path d="M126.643 28.9826C126.632 29.019 126.658 29.0564 126.697 29.0564L133.129 29.0679C133.168 29.0679 133.194 29.0301 133.183 28.9941L129.984 19.2531C129.967 19.2024 129.894 19.2024 129.877 19.2531L126.643 28.9826ZM134.346 33.0515L125.479 33.0528C125.374 33.0528 125.283 33.1195 125.25 33.2182L123.606 38.2172C123.572 38.3159 123.481 38.3826 123.376 38.3826H119.6C119.435 38.3826 119.319 38.2203 119.373 38.0634L127.904 12.9777C127.937 12.8803 128.028 12.8154 128.131 12.8154H131.84C131.943 12.8154 132.034 12.8821 132.067 12.9795L140.486 38.0652C140.54 38.2216 140.424 38.383 140.259 38.383H136.451C136.346 38.383 136.255 38.3163 136.222 38.2176L134.574 33.2173C134.541 33.1182 134.45 33.0515 134.346 33.0515Z" fill="white"/>
<path d="M63.5347 28.2396C62.0776 27.5478 60.161 27.4229 58.5458 27.1779C58.1027 27.1113 57.4869 26.9414 56.6988 26.6689C53.361 25.5143 51.717 22.8801 52.1197 19.3402C52.5774 15.3149 55.6715 13.0835 59.5234 12.8647C62.6743 12.6847 65.7164 13.4405 68.3137 15.2526C68.5801 15.4385 68.6222 15.6688 68.4411 15.9431C67.8586 16.8265 67.285 17.6997 66.7189 18.5631C66.6017 18.7414 66.3624 18.7925 66.1844 18.6765C64.2273 17.4071 62.1819 16.6469 59.8133 16.7674C58.2634 16.8456 56.864 17.6899 56.5306 19.3087C55.7731 22.9832 60.3838 23.2513 62.7467 23.5936C64.6646 23.8706 66.8086 24.6904 68.1325 26.0989C69.7375 27.8048 69.9506 30.7147 69.3566 32.9025C68.7612 35.1032 67.178 36.6855 65.0136 37.5316C60.7155 39.2113 54.5748 38.2701 51.2228 34.9917C51.0808 34.8525 51.0705 34.6262 51.2011 34.4737L53.5102 31.787C53.6172 31.6639 53.8028 31.6492 53.9275 31.755C56.2744 33.757 59.8768 35.1161 62.9265 34.0776C65.5601 33.1804 66.3016 29.5556 63.5347 28.2396Z" fill="white"/>
<path d="M24.4695 45.8491C24.5001 45.8971 24.5419 45.9375 24.5956 45.9695C25.1821 46.3265 25.6083 47.1344 25.7952 47.7799C25.8098 47.8279 25.8387 47.8395 25.8809 47.8133C26.4154 47.4927 27.1063 46.6804 26.7719 46.0176C26.4172 45.3182 25.0857 45.4983 24.509 45.7259C24.4464 45.7504 24.4331 45.7921 24.4695 45.8491ZM19.2443 45.5427C17.7131 45.3395 17.5031 47.9435 18.6361 48.2134C19.001 48.2992 19.469 48.3165 20.0399 48.2654C20.0835 48.261 20.1052 48.2378 20.1065 48.1956C20.1496 47.2184 20.3525 45.6894 19.2443 45.5427ZM31.6011 48.9821C31.3564 49.3084 30.9942 49.4725 30.5147 49.4751C29.2227 49.4823 27.9303 49.4823 26.6396 49.4738C26.379 49.4725 26.0647 49.3724 25.6953 49.1706C25.6505 49.1461 25.6056 49.1444 25.5577 49.1662C25.1088 49.3693 24.7452 49.472 24.4668 49.4738C23.5021 49.4783 22.5373 49.4809 21.5712 49.4796C21.5193 49.4796 21.4944 49.5058 21.4957 49.5578C21.6147 52.2009 19.5431 51.94 17.6758 51.9035C17.6092 51.9022 17.5568 51.8484 17.5568 51.783L17.5479 50.7894C17.5479 50.7156 17.5843 50.6778 17.658 50.6778C18.53 50.6733 20.238 51.0272 20.1132 49.5565C20.1088 49.5072 20.0826 49.4827 20.0337 49.4827C18.7315 49.4769 17.1785 49.7019 16.7119 48.1045C16.5916 47.691 16.5556 47.1704 16.6062 46.5435C16.8451 43.5376 21.3883 43.4812 21.478 46.5466C21.494 47.0935 21.4997 47.6448 21.4984 48.2005C21.4984 48.2512 21.5246 48.2774 21.5752 48.2787C22.5546 48.2934 23.6077 48.3468 24.568 48.1845C24.6129 48.1774 24.6289 48.1511 24.6173 48.1076C24.358 47.1166 23.7613 46.7542 23.0457 46.2087C23.0066 46.178 22.9862 46.1376 22.9848 46.0869C22.9777 45.6894 22.837 45.0177 23.2805 44.8131C24.5219 44.2445 27.3265 43.8266 28.0799 45.3267C28.5683 46.303 28.0755 47.5198 27.2181 48.1307C27.0863 48.2249 27.1009 48.2743 27.2643 48.2774C28.103 48.2876 28.9461 48.2876 29.7905 48.2761C30.2061 48.2703 30.4179 48.0671 30.4281 47.667C30.4454 46.9561 30.4485 46.2785 30.437 45.6361C30.4356 45.5169 30.4934 45.4578 30.6123 45.456L31.6335 45.4516C31.7538 45.4516 31.8133 45.5112 31.8146 45.6299C31.8191 46.2594 31.8217 46.9005 31.8204 47.555C31.8204 48.2049 32.2954 48.3152 32.8358 48.2685C33.2282 48.2352 33.4298 48.0191 33.4369 47.6203C33.4516 46.921 33.4542 46.2381 33.4471 45.569C33.4458 45.5036 33.4991 45.4516 33.5643 45.4516L34.7147 45.4574C34.7697 45.4587 34.8146 45.5023 34.8159 45.5574C34.8274 46.2581 34.8305 46.9734 34.823 47.703C34.8159 48.385 36.3729 48.5517 36.4107 47.703C36.4568 46.6889 36.4688 45.6792 36.4471 44.674C36.4457 44.5651 36.4977 44.5117 36.6065 44.5117H37.6205C37.7364 44.5117 37.7945 44.57 37.7945 44.6873C37.7932 45.6405 37.7945 46.6111 37.799 47.5959C37.8034 48.3952 39.2521 48.3241 39.7516 48.2485C39.9762 48.2152 40.089 48.0818 40.0908 47.8479C40.1068 45.7677 40.1139 43.6643 40.1125 41.5392C40.1125 41.4174 40.1734 41.3564 40.295 41.3564H41.3046C41.4249 41.3564 41.4857 41.4174 41.4857 41.5378C41.4902 43.8097 41.4902 46.0696 41.4844 48.3179C41.4813 49.2435 40.7963 49.4769 39.9665 49.4814C39.3218 49.4858 38.1195 49.6539 37.727 49.0288C37.6893 48.9692 37.6476 48.9648 37.5996 49.0159C37.3315 49.296 37.0464 49.444 36.7436 49.4596C35.9454 49.5018 35.1618 49.6339 34.6938 48.9883C34.6592 48.9403 34.6259 48.9421 34.5926 48.9897C34.3883 49.2915 34.1233 49.4494 33.7987 49.4654C32.9645 49.5045 32.1285 49.6436 31.6881 48.9839C31.6588 48.943 31.6313 48.943 31.6011 48.9821Z" fill="white"/>
<path d="M44.3861 49.3305C44.3861 49.4132 44.3195 49.4799 44.2369 49.4799H43.1589C43.0764 49.4799 43.0098 49.4132 43.0098 49.3305V41.5088C43.0098 41.4261 43.0764 41.3594 43.1589 41.3594H44.2369C44.3195 41.3594 44.3861 41.4261 44.3861 41.5088V49.3305Z" fill="white"/>
<path d="M66.0794 49.3438C66.0794 49.4194 66.0186 49.4803 65.9432 49.4803H64.8394C64.764 49.4803 64.7031 49.4194 64.7031 49.3438V41.4959C64.7031 41.4203 64.764 41.3594 64.8394 41.3594H65.9432C66.0186 41.3594 66.0794 41.4203 66.0794 41.4959V49.3438Z" fill="white"/>
<path d="M75.4432 46.5365C75.4432 45.9883 74.9984 45.5428 74.4509 45.5428H74.2916C73.7441 45.5428 73.2993 45.9883 73.2993 46.5365V47.3545C73.2993 47.9027 73.7441 48.3482 74.2916 48.3482H74.4509C74.9984 48.3482 75.4432 47.9027 75.4432 47.3545V46.5365ZM69.533 49.277C69.5113 49.525 69.4926 49.7731 69.478 50.0181C69.3909 51.5617 68.3929 52.0041 67.0081 51.9067C66.898 51.8996 66.843 51.84 66.843 51.7298L66.8399 50.8579C66.8385 50.7637 66.9136 50.6854 67.0077 50.6823C68.1465 50.6503 68.1491 50.1457 68.158 49.1898C68.1709 47.6738 68.1798 46.1653 68.1824 44.6652C68.1824 44.5652 68.2331 44.5158 68.333 44.5145L69.3732 44.5087C69.4718 44.5087 69.521 44.5581 69.521 44.6568C69.5197 45.5375 69.5179 46.4569 69.5179 47.4128C69.5166 48.3033 70.4045 48.3091 71.0434 48.2873C71.5678 48.27 71.843 47.9956 71.8692 47.4635C71.9389 46.0519 71.9966 44.7363 73.6438 44.3651C74.2232 44.2344 74.7884 44.2593 75.3371 44.4389C76.6104 44.8568 76.8453 45.9505 76.8422 47.1474C76.8409 47.8249 76.9177 48.2384 77.668 48.2731C78.0707 48.2917 79.0035 48.4038 79.0052 47.8116C79.0097 45.7429 79.0097 43.6524 79.0084 41.5406C79.0084 41.4201 79.0678 41.3606 79.1882 41.3606L80.208 41.3574C80.3252 41.3561 80.3847 41.4157 80.3847 41.5331C80.386 43.6524 80.3833 45.7936 80.3789 47.9565C80.3776 49.0822 79.9935 49.4668 78.8752 49.4784C77.8989 49.4886 76.9572 49.6526 76.2908 48.952C76.2544 48.9142 76.2197 48.9142 76.1838 48.952C75.3393 49.8367 73.4329 49.7789 72.5463 48.9609C72.5072 48.9244 72.4708 48.9275 72.4362 48.9666C72.1507 49.293 71.8421 49.4615 71.5136 49.4713C70.7793 49.493 70.1231 49.5873 69.62 49.2361C69.5676 49.2 69.5388 49.2129 69.533 49.277Z" fill="white"/>
<path d="M83.2444 49.379C83.2444 49.4355 83.1996 49.4804 83.1432 49.4804H82.0075C81.9511 49.4804 81.9062 49.4355 81.9062 49.379V41.4617C81.9062 41.4053 81.9511 41.3604 82.0075 41.3604H83.1432C83.1996 41.3604 83.2444 41.4053 83.2444 41.4617V49.379Z" fill="white"/>
<path d="M98.3817 49.3399C98.3817 49.4181 98.3196 49.4804 98.2414 49.4804H97.1462C97.068 49.4804 97.0059 49.4181 97.0059 49.3399V41.5008C97.0059 41.4226 97.068 41.3604 97.1462 41.3604H98.2414C98.3196 41.3604 98.3817 41.4226 98.3817 41.5008V49.3399Z" fill="white"/>
<path d="M107.11 49.3557C107.11 49.4255 107.054 49.482 106.984 49.482H105.898C105.828 49.482 105.771 49.4255 105.771 49.3557V41.4847C105.771 41.4149 105.828 41.3584 105.898 41.3584H106.984C107.054 41.3584 107.11 41.4149 107.11 41.4847V49.3557Z" fill="white"/>
<path d="M2.99323 42.7226C2.99278 42.8089 2.92352 42.88 2.83739 42.88L1.88728 42.8831C1.80115 42.8831 1.73011 42.8133 1.73011 42.727L1.72656 41.7347C1.72701 41.6485 1.79627 41.5773 1.8824 41.5773L2.83251 41.5742C2.91864 41.5742 2.98967 41.644 2.98967 41.7303L2.99323 42.7226Z" fill="white"/>
<path d="M4.54774 42.7359C4.54818 42.8145 4.48425 42.8786 4.40655 42.8786L3.42714 42.8839C3.34856 42.8843 3.28463 42.8203 3.28463 42.7425L3.2793 41.7213C3.27886 41.6426 3.34279 41.5786 3.42048 41.5786L4.39989 41.5732C4.47848 41.5728 4.54241 41.6368 4.54241 41.7146L4.54774 42.7359Z" fill="white"/>
<path d="M113.553 42.7153C113.552 42.8078 113.477 42.8834 113.384 42.8825L112.454 42.8776C112.362 42.8772 112.287 42.8016 112.287 42.7087L112.292 41.7394C112.292 41.647 112.367 41.5714 112.461 41.5723L113.391 41.5772C113.483 41.5776 113.558 41.6532 113.558 41.7461L113.553 42.7153Z" fill="white"/>
<path d="M115.112 42.735C115.113 42.8114 115.051 42.8741 114.976 42.8741L113.988 42.8826C113.911 42.8826 113.85 42.8217 113.849 42.7461L113.84 41.716C113.839 41.6395 113.901 41.5768 113.976 41.5768L114.964 41.5684C115.041 41.5684 115.102 41.6293 115.103 41.7048L115.112 42.735Z" fill="white"/>
<path d="M54.1995 43.2068C54.199 43.286 54.1369 43.3495 54.0578 43.3495L53.0758 43.3531C52.9967 43.3526 52.9328 43.2904 52.9332 43.2113L52.9297 42.1931C52.9301 42.114 52.9923 42.0504 53.0713 42.0504L54.0534 42.0469C54.1324 42.0473 54.1964 42.1096 54.1959 42.1887L54.1995 43.2068Z" fill="white"/>
<path d="M55.7618 43.1782C55.7627 43.2711 55.6877 43.3467 55.5949 43.3476L54.627 43.3543C54.5342 43.3551 54.4587 43.28 54.4578 43.1871L54.4512 42.221C54.4503 42.1281 54.5253 42.0525 54.6181 42.0516L55.586 42.0449C55.6788 42.044 55.7543 42.1192 55.7551 42.2121L55.7618 43.1782Z" fill="white"/>
<path d="M61.5901 43.2047C61.5906 43.2852 61.5266 43.3505 61.4458 43.3505L60.3248 43.3563C60.2444 43.3563 60.1796 43.2923 60.1792 43.2118L60.1738 42.1995C60.1734 42.119 60.2373 42.0536 60.3181 42.0536L61.4392 42.0479C61.5195 42.0479 61.5843 42.1119 61.5848 42.1923L61.5901 43.2047Z" fill="white"/>
<path d="M89.692 43.2222C89.692 43.2947 89.6338 43.3529 89.5615 43.3529H88.5563C88.4839 43.3529 88.4258 43.2947 88.4258 43.2222V42.1805C88.4258 42.108 88.4839 42.0498 88.5563 42.0498H89.5615C89.6338 42.0498 89.692 42.108 89.692 42.1805V43.2222Z" fill="white"/>
<path d="M91.2483 43.2032C91.2478 43.285 91.1826 43.3521 91.1009 43.3517L90.1304 43.3552C90.0482 43.3548 89.9816 43.2899 89.9821 43.2076L89.9785 42.1979C89.979 42.1161 90.0442 42.049 90.1259 42.0495L91.0964 42.0459C91.1786 42.0463 91.2452 42.1113 91.2447 42.1935L91.2483 43.2032Z" fill="white"/>
<path d="M2.9864 47.7611C4.22332 47.8452 4.20778 46.4758 4.08169 45.604C4.07592 45.5617 4.05283 45.54 4.01066 45.5386C3.09385 45.4924 2.13308 45.3746 1.99723 46.4323C1.88845 47.2663 2.21877 47.7091 2.9864 47.7611ZM4.11632 48.6592C3.36467 49.0714 2.61391 49.1278 1.86537 48.8304C0.75587 48.3893 0.522339 47.3957 0.61957 46.3078C0.797604 44.2915 2.46074 44.2653 4.03552 44.2955C4.08613 44.2969 4.11233 44.2724 4.11233 44.2217L4.1181 43.7878C4.1181 43.7314 4.16427 43.6865 4.2211 43.6847L5.33637 43.6758C5.41895 43.6758 5.48688 43.7425 5.48688 43.8252C5.48998 45.154 5.48998 46.458 5.48821 47.7389C5.48688 47.8736 5.51884 47.9986 5.58366 48.1101C5.60675 48.1506 5.64449 48.1826 5.69066 48.1986C6.17903 48.3596 6.948 48.2915 7.471 48.2711C7.79111 48.2582 7.95183 48.091 7.95183 47.7705V44.7272C7.95183 44.6068 8.05039 44.5081 8.17071 44.5081L9.10794 44.5112C9.22693 44.5112 9.32238 44.6054 9.32371 44.7246C9.34103 46.4407 9.33837 47.626 9.31661 48.2813C9.29042 49.0518 8.88507 49.4435 8.09834 49.4564C7.1176 49.4724 6.13996 49.4782 5.16366 49.4737C4.67129 49.4724 4.35119 49.2127 4.20467 48.6961C4.19047 48.6477 4.16161 48.6343 4.11632 48.6592Z" fill="white"/>
<path d="M132.516 46.5559C132.521 46.0023 132.076 45.5511 131.525 45.5462L131.357 45.5448C130.804 45.5395 130.354 45.9837 130.349 46.5372L130.341 47.3348C130.336 47.8883 130.781 48.3396 131.332 48.3444L131.5 48.3458C132.053 48.3511 132.503 47.907 132.509 47.3534L132.516 46.5559ZM125.64 46.6714C126.082 45.2367 123.949 45.463 123.27 45.7547C123.244 45.7649 123.239 45.8009 123.263 45.8169C123.951 46.306 124.403 46.9631 124.62 47.7856C124.633 47.8318 124.66 47.8438 124.703 47.8189C125.175 47.546 125.488 47.1632 125.64 46.6714ZM114.603 45.5355C113.323 45.4835 112.275 45.4906 112.569 47.0907C112.643 47.4895 112.912 47.7145 113.379 47.7625C114.813 47.9132 114.712 46.6163 114.671 45.604C114.67 45.56 114.647 45.5368 114.603 45.5355ZM114.691 48.657C113.992 49.0442 113.286 49.1211 112.575 48.8877C111.318 48.4756 111.029 47.3517 111.202 46.1548C111.478 44.2457 113.097 44.2573 114.603 44.2982C114.654 44.2995 114.68 44.2738 114.68 44.2226V43.8585C114.68 43.7571 114.761 43.6758 114.861 43.6758L115.876 43.6789C115.997 43.6802 116.056 43.7398 116.056 43.8603V47.7727C116.056 48.0875 116.212 48.2529 116.527 48.2689C116.934 48.2893 118.09 48.3805 118.393 48.131C118.475 48.063 118.523 47.9568 118.536 47.8132C118.628 46.7395 118.594 45.6751 118.588 44.6579C118.588 44.5605 118.637 44.5112 118.735 44.5112H119.786C119.866 44.5112 119.931 44.5752 119.931 44.6548C119.932 45.435 119.931 46.2402 119.93 47.0716C119.93 47.8652 120.056 48.2422 120.912 48.2613C121.987 48.2844 122.817 48.2671 123.402 48.2075C123.453 48.2017 123.486 48.1524 123.473 48.103C123.247 47.2645 122.637 46.7119 121.942 46.2709C121.862 46.2215 121.814 46.1344 121.814 46.0401V45.1363C121.814 45.094 121.827 45.0567 121.852 45.0229C121.928 44.9197 122.012 44.8486 122.104 44.8068C123.349 44.244 126.198 43.8261 126.927 45.3492C127.428 46.398 126.875 47.4557 126.045 48.143C125.945 48.2257 125.961 48.268 126.09 48.2706C126.705 48.2835 127.334 48.2938 127.973 48.304C128.636 48.3142 128.966 47.995 128.964 47.345C128.959 46.418 128.98 45.6262 129.581 44.9762C130.268 44.2333 131.526 44.1568 132.449 44.4525C133.769 44.8762 133.932 46.1873 133.886 47.4481C133.868 47.9745 134.141 48.2417 134.708 48.252C136.271 48.2795 137.418 48.2866 138.148 48.2751C138.294 48.2738 138.445 48.2462 138.597 48.1924C139.286 47.9545 139.058 46.6563 138.833 46.1775C138.503 45.471 137.567 45.3972 136.948 45.6858C136.737 45.7845 136.53 45.9788 136.313 46.1295C136.275 46.1557 136.224 46.1513 136.192 46.1179L135.613 45.532C135.512 45.4288 135.507 45.323 135.6 45.2141C136.124 44.5974 136.828 44.2929 137.711 44.2973C140.022 44.3089 140.66 46.0046 140.45 48.027C140.311 49.3603 139.451 49.4804 138.248 49.479C137.007 49.4777 135.767 49.4759 134.527 49.4719C134.053 49.4706 133.666 49.2994 133.365 48.9553C133.33 48.9162 133.268 48.9149 133.232 48.954C132.383 49.8578 130.464 49.7534 129.604 48.9629C129.57 48.9309 129.537 48.9322 129.505 48.9686C128.992 49.5386 128.54 49.4719 127.672 49.4777C126.67 49.4848 125.444 49.6444 124.533 49.1674C124.489 49.1443 124.44 49.1429 124.397 49.1629C123.34 49.6547 121.908 49.4879 120.765 49.475C120.368 49.4706 120.054 49.3154 119.823 49.0096C119.793 48.9673 119.761 48.9673 119.728 49.0064C119.465 49.3212 119.122 49.4795 118.701 49.4808C117.698 49.4853 116.698 49.4822 115.696 49.4719C115.2 49.4661 114.89 49.2052 114.766 48.6886C114.755 48.6454 114.73 48.6357 114.691 48.657Z" fill="white"/>
<path d="M13.5902 45.6855C13.0685 45.417 12.0358 45.5246 11.4782 45.5272C11.3508 45.5286 11.2868 45.465 11.2855 45.3387L11.2824 44.5047C11.2824 44.3682 11.3503 44.2988 11.4866 44.297C13.1191 44.2766 15.2356 43.9329 15.4078 46.1786C15.4815 47.1593 15.4398 47.9467 15.2804 48.5402C15.0691 49.3307 14.3911 49.4672 13.607 49.4743C12.664 49.4845 11.7441 49.4845 10.8473 49.4774C10.7749 49.4761 10.7385 49.4396 10.7403 49.3672L10.7447 48.3895C10.7447 48.3126 10.7825 48.2761 10.8593 48.2779C12.1153 48.3055 12.9686 48.2997 13.4206 48.2575C13.79 48.2241 13.9898 48.0094 14.0173 47.6164C14.0568 47.0548 14.19 45.9932 13.5902 45.6855Z" fill="white"/>
<path d="M61.9786 46.5455C61.9768 45.9906 61.5248 45.5411 60.9712 45.5438L60.7971 45.5443C60.2426 45.5469 59.7951 45.9982 59.7969 46.553L59.7995 47.2813C59.8013 47.8361 60.2533 48.2856 60.8069 48.2829L60.9805 48.2825C61.535 48.2798 61.9826 47.8286 61.9808 47.2737L61.9786 46.5455ZM53.3565 46.1707C53.167 46.6495 53.0755 47.9215 53.765 48.1522C54.1983 48.2972 54.7182 48.3336 55.3251 48.2594C55.3673 48.2549 55.3873 48.2318 55.3891 48.1896C55.4077 47.412 55.4077 46.8754 55.3877 46.5793C55.3092 45.3962 53.7708 45.1219 53.3565 46.1707ZM55.338 49.478C54.1632 49.4869 52.9654 49.6145 52.3234 48.7484C51.7773 48.0113 51.7569 46.6566 52.0353 45.7834C52.4251 44.5564 53.817 44.0762 55.0064 44.359C56.9749 44.8276 56.7938 46.6046 56.7694 48.2047C56.7681 48.2554 56.7938 48.2816 56.8449 48.2816L58.6137 48.2829C58.6341 48.2829 58.6483 48.2625 58.6412 48.2425C58.2532 47.1981 58.3038 45.8186 59.0918 44.9787C59.8754 44.1433 61.4285 44.11 62.3804 44.6609C63.5493 45.3366 63.6466 47.6925 62.9002 48.7111C62.5278 49.2188 61.995 49.474 61.2979 49.4758C59.8173 49.4802 58.3357 49.4816 56.8537 49.4802C56.8031 49.4789 56.7769 49.5047 56.7756 49.5558C56.7698 49.9053 56.8045 50.3058 56.7219 50.6117C56.4715 51.5374 55.5529 51.8521 54.6707 51.8739C53.5741 51.9028 52.4761 51.913 51.3764 51.9028C48.2983 51.8766 47.7145 49.1944 49.0877 46.9154C49.1632 46.7891 49.3239 46.7429 49.4558 46.8096L50.2163 47.1955C50.3699 47.2724 50.4019 47.3853 50.3135 47.532C49.4891 48.8943 49.5472 50.6219 51.6144 50.6379C52.5747 50.6451 53.5337 50.6468 54.494 50.6424C55.2257 50.6393 55.5342 50.2756 55.4197 49.5487C55.4122 49.5011 55.3846 49.478 55.338 49.478Z" fill="white"/>
<path d="M90.8805 46.5371C90.8805 45.9871 90.4356 45.5421 89.8868 45.5421H89.7248C89.1756 45.5421 88.7312 45.9875 88.7312 46.5371V47.3524C88.7312 47.9024 89.176 48.3474 89.7248 48.3474H89.8868C90.436 48.3474 90.8805 47.902 90.8805 47.3524V46.5371ZM92.2523 47.4005C92.2523 48.6018 91.2787 49.5763 90.0795 49.5763H89.5263C88.3267 49.5763 87.3535 48.6013 87.3535 47.4005V46.4864C87.3535 45.2851 88.3272 44.3105 89.5263 44.3105H90.0795C91.2792 44.3105 92.2523 45.2855 92.2523 46.4864V47.4005Z" fill="white"/>
<path d="M102.196 48.2677C103.247 48.2446 103.038 47.3305 103.013 46.5747C102.993 45.9439 102.675 45.5997 102.059 45.5433C101.745 45.5144 101.201 45.5099 100.431 45.5317C100.325 45.5348 100.271 45.4824 100.27 45.3766L100.267 44.4727C100.267 44.3771 100.342 44.3002 100.438 44.2971C101.547 44.2753 102.286 44.2811 102.656 44.3144C104.077 44.4407 104.378 45.4837 104.397 46.7006C104.411 47.664 104.508 49.4161 103.09 49.4713C102.634 49.4899 101.568 49.4899 99.8918 49.4744C99.7804 49.473 99.724 49.4161 99.724 49.3045L99.7227 48.4576C99.7227 48.362 99.7995 48.2851 99.8949 48.2851C100.672 48.2909 101.439 48.2851 102.196 48.2677Z" fill="white"/>
<path d="M93.0658 50.6772C93.6989 50.7017 94.1349 50.5247 94.1451 49.8067C94.1695 48.0879 94.1829 46.3834 94.1815 44.6948C94.1815 44.5716 94.2424 44.5107 94.3653 44.5107L95.3749 44.5121C95.4966 44.5134 95.5574 44.5743 95.5574 44.6961C95.5574 46.3238 95.5574 47.9674 95.5561 49.6253C95.5548 51.3139 94.7001 51.9941 93.0556 51.9101C92.9135 51.903 92.8425 51.8287 92.8412 51.6851L92.8398 50.8946C92.8398 50.7439 92.9153 50.6715 93.0658 50.6772Z" fill="white"/>
<path d="M105.493 52.0828C104.896 50.5916 106.461 49.7953 107.614 50.6276C107.715 50.7014 107.724 50.8495 107.631 50.9353L107.457 51.0976C107.356 51.1918 107.249 51.1989 107.134 51.122C105.972 50.3373 105.71 52.1739 106.753 52.165C107.078 52.1619 107.377 52.1619 107.651 52.1663C107.724 52.1677 107.76 52.2041 107.76 52.2766L107.761 52.6349C107.761 52.7323 107.713 52.7799 107.617 52.7799H105.154C105.083 52.7799 105.047 52.7434 105.047 52.671L105.048 52.2895C105.05 52.2068 105.09 52.1646 105.173 52.1646L105.438 52.1632C105.496 52.1641 105.515 52.1366 105.493 52.0828Z" fill="white"/>
<path d="M7.05134 51.7649C6.99051 51.7649 6.94256 51.7156 6.94256 51.656L6.93945 50.681C6.93945 50.5579 7.03358 50.4592 7.14812 50.4592L8.00011 50.4561C8.11599 50.4561 8.20878 50.5561 8.20878 50.6779L8.21189 51.6529C8.21189 51.7138 8.16261 51.7618 8.10311 51.7618L7.05134 51.7649Z" fill="white"/>
<path d="M9.76508 51.6341C9.76596 51.7053 9.70914 51.7617 9.63854 51.7626L8.62761 51.7697C8.55791 51.7706 8.49975 51.7142 8.4993 51.643L8.4922 50.5956C8.49131 50.5244 8.54814 50.468 8.61873 50.4671L9.62966 50.46C9.69937 50.4591 9.75753 50.5155 9.75797 50.5867L9.76508 51.6341Z" fill="white"/>
<path d="M119.058 51.6295C119.058 51.7051 118.998 51.766 118.922 51.766H117.931C117.856 51.766 117.795 51.7051 117.795 51.6295V50.5994C117.795 50.5238 117.856 50.4629 117.931 50.4629H118.922C118.998 50.4629 119.058 50.5238 119.058 50.5994V51.6295Z" fill="white"/>
<path d="M120.587 51.6217C120.589 51.6982 120.526 51.7622 120.45 51.7622L119.462 51.7706C119.385 51.7706 119.323 51.7097 119.321 51.6328L119.313 50.6089C119.311 50.5324 119.373 50.4684 119.45 50.4684L120.438 50.46C120.515 50.46 120.577 50.5209 120.578 50.5978L120.587 51.6217Z" fill="white"/>
<path d="M138.578 51.6246C138.578 51.702 138.514 51.766 138.437 51.7647L137.31 51.7607C137.233 51.7598 137.17 51.6976 137.17 51.6193L137.173 50.5981C137.173 50.5207 137.237 50.4567 137.315 50.458L138.441 50.462C138.519 50.4629 138.581 50.5252 138.581 50.6034L138.578 51.6246Z" fill="white"/>
<path d="M1.86508 56.0762C1.64798 57.4686 4.80287 56.3345 4.87657 58.5783C4.92274 59.9606 3.62944 60.4958 2.44891 60.3798C1.77984 60.3145 1.20444 60.097 0.723618 59.7298C0.591757 59.6298 0.580214 59.5182 0.688988 59.3933L1.05971 58.9624C1.16271 58.8433 1.27104 58.8375 1.38559 58.9438C1.8491 59.3733 2.80542 59.6124 3.34396 59.3719C4.09561 59.0354 3.94955 58.136 3.15128 57.9897C2.3095 57.8345 1.04639 57.7416 0.851039 56.6626C0.42793 54.3374 3.10066 54.1644 4.48542 55.038C4.58088 55.0989 4.61018 55.2265 4.54936 55.3226L4.24523 55.8041C4.16976 55.9232 4.0743 55.9419 3.95976 55.8605C3.44119 55.4929 2.0187 55.0909 1.86508 56.0762Z" fill="white"/>
<path d="M16.9531 57.798C16.9531 57.3947 16.6259 57.0671 16.2232 57.0671H16.1162C15.7135 57.0671 15.3863 57.3947 15.3863 57.798V58.7872C15.3863 59.1905 15.7135 59.5181 16.1162 59.5181H16.2232C16.6259 59.5181 16.9531 59.1905 16.9531 58.7872V57.798ZM16.9704 56.4798L16.9718 54.7392C16.9718 54.6654 17.0095 54.6276 17.0832 54.6289L17.8406 54.6334C17.9117 54.6334 17.9476 54.6698 17.9476 54.7405V60.1806C17.9476 60.2401 17.8984 60.2895 17.8375 60.2895L17.0681 60.2864C17.0219 60.2864 16.9824 60.2517 16.9784 60.205L16.9682 60.1063C16.9611 60.041 16.9318 60.0281 16.8812 60.0672C15.8645 60.8332 14.5113 60.2748 14.4216 58.9864C14.3244 57.6068 14.3634 55.9023 16.3236 56.2246C16.5584 56.2637 16.7147 56.3771 16.903 56.5131C16.9487 56.5447 16.9704 56.5331 16.9704 56.4798Z" fill="white"/>
<path d="M20.0803 55.4697C20.0789 55.5262 20.0328 55.5729 19.9764 55.572L19.2056 55.5653C19.1488 55.5644 19.1026 55.5178 19.1035 55.4613L19.1097 54.7273C19.1111 54.6708 19.1572 54.6241 19.2136 54.625L19.9844 54.6317C20.0412 54.6326 20.0874 54.6793 20.0865 54.7357L20.0803 55.4697Z" fill="white"/>
<path d="M24.2133 55.6177V56.9421C24.2133 56.9857 24.2497 57.0217 24.2927 57.0217L26.4496 57.023C26.4931 57.023 26.529 57.0595 26.529 57.1026L26.5304 57.886C26.5304 57.9296 26.494 57.9656 26.4509 57.9656H24.2923C24.2488 57.9656 24.2128 58.002 24.2128 58.0452V60.2081C24.2128 60.2517 24.1764 60.2877 24.1333 60.2877L23.28 60.2846C23.2365 60.2846 23.2006 60.2481 23.2006 60.205L23.1992 54.7085C23.1992 54.6649 23.2356 54.6289 23.2787 54.6289H26.8483C26.8931 54.6289 26.9277 54.6636 26.9277 54.7085L26.9322 55.4541C26.9322 55.4976 26.8958 55.5337 26.8527 55.5337L24.2932 55.5368C24.2492 55.5381 24.2133 55.5746 24.2133 55.6177Z" fill="white"/>
<path d="M36.7062 55.4556C36.7071 55.5174 36.6564 55.5681 36.5934 55.569L35.8431 55.5703C35.78 55.5712 35.7307 55.5205 35.7299 55.4574L35.7285 54.7407C35.7276 54.6789 35.7783 54.6282 35.8413 54.6273L36.5916 54.626C36.6547 54.6251 36.7039 54.6758 36.7048 54.7389L36.7062 55.4556Z" fill="white"/>
<path d="M39.0264 59.4548C39.1205 59.4837 39.216 59.4971 39.3119 59.4939C39.3714 59.4908 39.422 59.5402 39.422 59.5998V60.2453C39.422 60.3209 39.3843 60.36 39.3092 60.3613C38.2952 60.3876 37.8738 60.2075 37.8694 59.1183C37.8636 57.6573 37.8636 56.1937 37.8707 54.7244C37.8707 54.659 37.904 54.6257 37.9706 54.627L38.7125 54.6359C38.7645 54.6372 38.8066 54.6795 38.8066 54.7315L38.8111 59.1632C38.8106 59.2979 38.899 59.4157 39.0264 59.4548Z" fill="white"/>
<path d="M41.2385 55.4529C41.2398 55.5165 41.1874 55.5672 41.1253 55.5685L40.4127 55.5748C40.3492 55.5761 40.2986 55.5236 40.2973 55.4614L40.291 54.7478C40.2897 54.6842 40.3421 54.6336 40.4043 54.6322L41.1168 54.626C41.1803 54.6247 41.2309 54.6771 41.2323 54.7394L41.2385 55.4529Z" fill="white"/>
<path d="M51.9554 56.9553L51.9541 60.2382C51.9541 60.2626 51.9337 60.2831 51.9093 60.2831L51.0937 60.2946C51.0693 60.2946 51.0488 60.2742 51.0488 60.2497V54.6719C51.0488 54.6474 51.0693 54.627 51.0937 54.627L51.9758 54.6341C51.9932 54.6341 52.0091 54.6443 52.0163 54.6603L53.5475 58.0952C53.5635 58.1317 53.6141 58.1299 53.6301 58.0952L55.1325 54.6585C55.1396 54.6412 55.1556 54.631 55.1729 54.631L56.0378 54.6278C56.0622 54.6278 56.0826 54.6483 56.0826 54.6727V60.243C56.0826 60.2675 56.0622 60.2879 56.0378 60.2879L55.2222 60.2866C55.1978 60.2866 55.1774 60.2662 55.1774 60.2417V56.9837C55.1774 56.9344 55.1108 56.9215 55.0917 56.9651L53.9529 59.5037C53.9458 59.521 53.9298 59.5313 53.9125 59.5313L53.2256 59.5241C53.2083 59.5241 53.1923 59.5139 53.1852 59.4979L52.0407 56.9362C52.022 56.8926 51.9554 56.9073 51.9554 56.9553Z" fill="white"/>
<path d="M100.879 58.1625C100.869 58.1901 100.89 58.219 100.92 58.2208L102.27 58.2221C102.301 58.2221 102.322 58.1932 102.312 58.1639L101.64 56.2188C101.627 56.1796 101.572 56.1796 101.557 56.2188L100.879 58.1625ZM100.107 60.285L99.27 60.2895C99.2079 60.2895 99.1644 60.2272 99.1848 60.169L101.114 54.6898C101.127 54.6534 101.162 54.6289 101.2 54.6289L102.024 54.6334C102.062 54.6334 102.097 54.6578 102.108 54.6929L104.012 60.169C104.032 60.2272 103.989 60.2881 103.928 60.2881H103.089C103.05 60.2881 103.015 60.2637 103.004 60.2272L102.658 59.1886C102.646 59.1522 102.611 59.1277 102.572 59.1277L100.606 59.1291C100.567 59.1291 100.532 59.1535 100.52 59.1913L100.193 60.2228C100.181 60.2601 100.146 60.285 100.107 60.285Z" fill="white"/>
<path d="M122.173 55.4477C122.172 55.5179 122.115 55.573 122.046 55.573L121.36 55.5695C121.289 55.5699 121.234 55.5117 121.234 55.4428L121.238 54.7523C121.239 54.6821 121.296 54.627 121.364 54.627L122.051 54.6305C122.121 54.6301 122.177 54.6883 122.177 54.7572L122.173 55.4477Z" fill="white"/>
<path d="M131.301 55.4741C131.301 55.5265 131.259 55.5688 131.207 55.5688L130.457 55.5714C130.404 55.5714 130.362 55.5296 130.362 55.4776L130.359 54.7263C130.359 54.6738 130.401 54.632 130.453 54.6316L131.203 54.6289C131.256 54.6289 131.298 54.6707 131.298 54.7227L131.301 55.4741Z" fill="white"/>
<path d="M43.4407 57.0988L43.4536 59.2631C43.4536 59.3284 43.4926 59.3862 43.5521 59.4125C43.6809 59.4689 43.8158 59.4952 43.9535 59.492C44.033 59.4889 44.1 59.5543 44.0982 59.6356L44.0969 60.2114C44.0956 60.3056 44.0489 60.355 43.9548 60.3594C43.2001 60.4017 42.4959 60.2621 42.4759 59.3787C42.4688 59.0203 42.4657 58.2601 42.467 57.0984C42.467 57.0477 42.4426 57.0228 42.3916 57.0214H42.1771C42.1048 57.0214 42.0684 56.985 42.0684 56.9125L42.0697 56.3714C42.0697 56.3003 42.1043 56.2656 42.1754 56.2656L42.3925 56.2643C42.4404 56.2643 42.4648 56.2398 42.4648 56.1905L42.4693 55.1173C42.4693 55.0768 42.4897 55.0563 42.5301 55.0577L43.3732 55.0692C43.4123 55.0706 43.4429 55.1012 43.4429 55.139L43.446 56.1909C43.446 56.2403 43.4704 56.2647 43.5184 56.2634L43.9153 56.259C44.0383 56.2576 44.1009 56.3199 44.0991 56.443L44.0978 56.8418C44.0964 56.9623 44.0356 57.0219 43.9153 57.0232H43.5139C43.4651 57.0246 43.4407 57.0495 43.4407 57.0988Z" fill="white"/>
<path d="M96.135 57.0202C96.0773 57.0202 96.0294 57.0682 96.0294 57.126L96.0325 59.1205C96.0325 59.3045 96.1714 59.4584 96.3539 59.4757L96.6017 59.4988C96.6785 59.5059 96.7175 59.5495 96.7175 59.6264V60.2195C96.7175 60.308 96.6727 60.3542 96.5843 60.3587C95.9237 60.3893 95.1183 60.3124 95.101 59.481C95.085 58.6848 95.0824 57.8881 95.0895 57.0905C95.0908 57.05 95.0562 57.0149 95.014 57.0167L94.7649 57.0238C94.7143 57.0251 94.6895 57.002 94.6895 56.9513V56.3582C94.6895 56.3031 94.717 56.2742 94.7734 56.2711L94.9807 56.2608C95.0517 56.2577 95.0877 56.2217 95.0877 56.1506V55.1005C95.0877 55.0818 95.1037 55.0658 95.1241 55.0658L95.9934 55.0645C96.0138 55.0645 96.0311 55.0805 96.0311 55.1009L96.0298 56.1888C96.0298 56.2382 96.0542 56.2626 96.1022 56.2626L96.6079 56.2613C96.6802 56.2613 96.7166 56.2978 96.7166 56.3702L96.718 56.9126C96.718 56.9838 96.6816 57.0198 96.611 57.0198H96.135V57.0202Z" fill="white"/>
<path d="M127.679 57.0212L127.431 57.0283C127.389 57.0296 127.354 56.9963 127.356 56.9545L127.361 56.3351C127.361 56.2902 127.383 56.2685 127.428 56.2671L127.683 56.2613C127.731 56.26 127.754 56.2369 127.754 56.1889V55.137C127.754 55.0876 127.778 55.0632 127.827 55.0645L128.624 55.0676C128.665 55.0676 128.697 55.0996 128.697 55.1401V56.1889C128.698 56.2351 128.721 56.2587 128.768 56.26L129.204 56.2658C129.324 56.2671 129.384 56.3267 129.384 56.4459V56.8433C129.384 56.9638 129.323 57.0247 129.202 57.0247H128.775C128.727 57.0247 128.703 57.0492 128.701 57.0972C128.691 57.5684 128.694 58.2229 128.707 59.0569C128.713 59.369 128.884 59.5126 129.221 59.4878C129.328 59.4806 129.382 59.53 129.383 59.6371L129.384 60.1853C129.386 60.2898 129.334 60.3476 129.23 60.3596C128.117 60.4787 127.759 60.0826 127.758 59.0107C127.756 58.3723 127.753 57.7325 127.751 57.0914C127.751 57.0429 127.727 57.0194 127.679 57.0212Z" fill="white"/>
<path d="M6.51746 59.0147C6.41179 59.8936 8.21966 59.8558 8.05006 58.7026C8.04296 58.6603 8.0181 58.6359 7.97636 58.6314C7.6012 58.591 7.02048 58.5661 6.70304 58.7417C6.60137 58.7973 6.53211 58.8986 6.51746 59.0147ZM7.96882 60.0795C7.23004 60.593 5.76714 60.5596 5.62951 59.4121C5.44703 57.8903 6.67241 57.8525 7.76903 57.8961C8.00789 57.9063 8.09935 57.7947 8.04562 57.5626L8.01677 57.435C7.95861 57.1856 7.80233 57.0504 7.54615 57.0318C7.24203 57.01 6.98719 57.0171 6.77985 57.0562C6.61025 57.0882 6.43355 57.2345 6.23065 57.2781C6.17871 57.2883 6.12765 57.2634 6.10323 57.2185L5.8293 56.7139C5.80488 56.669 5.81198 56.6299 5.85105 56.5947C6.41757 56.0972 7.60076 56.1017 8.21078 56.3004C8.66719 56.4498 8.90605 56.7935 8.9278 57.3332C8.96554 58.2864 8.97709 59.2365 8.96421 60.1808C8.96288 60.2404 8.91493 60.288 8.85721 60.2866H8.16639C8.11266 60.2866 8.0807 60.2604 8.06782 60.2097L8.0434 60.1066C8.03142 60.0621 8.00655 60.0532 7.96882 60.0795Z" fill="white"/>
<path d="M28.2299 59.2142C28.2703 59.7873 29.9827 59.854 29.742 58.6949C29.7332 58.6527 29.7074 58.6296 29.6652 58.6282C29.1107 58.602 28.1792 58.4802 28.2299 59.2142ZM29.7047 60.0629C28.8066 60.7605 27.135 60.4066 27.3073 58.9692C27.4507 57.7608 28.7702 57.8711 29.6728 57.8929C29.7047 57.8942 29.7309 57.8724 29.738 57.8435C29.9871 56.7903 28.5793 56.9254 28.078 57.2358C27.9462 57.3171 27.8463 57.2896 27.7752 57.1517L27.5768 56.7689C27.5057 56.6311 27.5404 56.5324 27.6811 56.4702C28.4212 56.1425 29.1502 56.0829 29.8641 56.2919C30.5319 56.4875 30.6535 56.9779 30.658 57.6541C30.6624 58.5086 30.6624 59.3631 30.6566 60.2172C30.6566 60.2652 30.6335 60.2883 30.5856 60.2883L29.9019 60.2897C29.8481 60.2897 29.8162 60.2634 29.8033 60.2114L29.7727 60.0883C29.7625 60.0438 29.7394 60.0354 29.7047 60.0629Z" fill="white"/>
<path d="M33.5579 57.0603C32.496 56.834 32.46 58.2976 32.6553 58.9636C32.7841 59.4091 33.1508 59.6061 33.5855 59.506C33.791 59.4598 33.9446 59.2842 34.1475 59.1726C34.1879 59.1508 34.2372 59.1566 34.2705 59.1855L34.7354 59.5932C34.7975 59.6483 34.8051 59.7426 34.75 59.8048C34.3562 60.253 33.807 60.4375 33.2045 60.3863C32.1816 60.2992 31.6502 59.6728 31.608 58.5079C31.5676 57.4227 31.782 56.4059 33.003 56.2045C33.6419 56.0987 34.2168 56.2667 34.7283 56.7078C34.8153 56.7834 34.8166 56.9181 34.7296 56.995L34.279 57.3925C34.2426 57.4245 34.1893 57.4302 34.1484 57.404C33.9331 57.2706 33.8026 57.1124 33.5579 57.0603Z" fill="white"/>
<path d="M58.32 59.5384C58.9762 59.7185 59.6728 59.5371 59.5543 58.7013C59.5485 58.6577 59.5236 58.6346 59.4788 58.6301C58.9456 58.591 57.8738 58.4692 58.0678 59.3059C58.0958 59.4211 58.1797 59.4993 58.32 59.5384ZM59.4863 60.0737C58.6619 60.6512 57.1439 60.4743 57.0902 59.273C57.0263 57.8805 58.2983 57.8339 59.2937 57.9006C59.5383 57.9166 59.6284 57.805 59.56 57.5684L59.5356 57.48C59.469 57.2466 59.3167 57.103 59.0792 57.0518C58.6606 56.9634 58.2667 57.0171 57.9 57.2159C57.7522 57.2955 57.6376 57.2608 57.5568 57.1145L57.3903 56.8126C57.302 56.6517 57.3424 56.5343 57.5093 56.4587C58.2117 56.144 58.9234 56.0844 59.6444 56.2818C60.3428 56.4716 60.4542 57.0127 60.4613 57.7076C60.4702 58.5417 60.4702 59.3788 60.4626 60.2187C60.4613 60.2564 60.4307 60.2867 60.3929 60.2867H59.6875C59.628 60.2853 59.592 60.256 59.5805 60.1982L59.5618 60.104C59.5516 60.0546 59.5267 60.0448 59.4863 60.0737Z" fill="white"/>
<path d="M62.6304 56.5166C63.8545 55.739 65.0266 56.373 65.0292 57.8206C65.0306 58.6142 65.0292 59.3989 65.0261 60.1779C65.0248 60.2517 64.9884 60.2881 64.916 60.2868L64.1599 60.2854C64.0862 60.2854 64.0485 60.2477 64.0485 60.1721C64.0529 59.4803 64.0529 58.7809 64.0454 58.0758C64.0409 57.4899 63.8713 56.9474 63.1805 57.0559C62.8111 57.1142 62.6184 57.3578 62.6025 57.7855C62.5718 58.5978 62.5603 59.3972 62.5661 60.185C62.5661 60.253 62.5328 60.2881 62.4648 60.2881L61.7318 60.2868C61.6595 60.2868 61.623 60.2503 61.623 60.1779V56.3352C61.623 56.2961 61.655 56.2654 61.6941 56.2641L62.4488 56.257C62.4968 56.2557 62.5225 56.2788 62.5283 56.3268L62.5456 56.4762C62.5541 56.5344 62.5829 56.5473 62.6304 56.5166Z" fill="white"/>
<path d="M68.3656 58.6616C67.8772 58.5674 66.8707 58.5007 66.8836 59.1302C66.8996 59.8265 68.5219 59.8656 68.4308 58.7341C68.4264 58.6937 68.4046 58.6688 68.3656 58.6616ZM68.3745 60.079C67.6921 60.5534 66.3726 60.5778 66.0391 59.638C65.8593 59.1347 65.9495 58.5718 66.3624 58.2104C66.845 57.7885 67.724 57.9045 68.3225 57.8809C68.366 57.8796 68.3922 57.8578 68.3993 57.8156C68.5978 56.7637 67.2508 56.9335 66.6754 57.2599C66.587 57.3092 66.5191 57.2905 66.468 57.2016L66.2216 56.765C66.171 56.6752 66.1883 56.601 66.2722 56.5432C67.1096 55.9599 69.2362 55.9078 69.2926 57.3252C69.3317 58.2855 69.3463 59.2458 69.3388 60.2075C69.3374 60.2595 69.3112 60.2857 69.2593 60.2857L68.5423 60.2871C68.4828 60.2871 68.4335 60.2391 68.4335 60.1799L68.4322 60.1088C68.4308 60.063 68.4118 60.0528 68.3745 60.079Z" fill="white"/>
<path d="M71.9809 59.3638C72.4271 59.3638 72.7877 58.8388 72.7877 58.1901C72.7877 57.5414 72.4271 57.0164 71.9809 57.0164C71.5348 57.0164 71.1742 57.5414 71.1742 58.1901C71.1742 58.8388 71.5348 59.3638 71.9809 59.3638ZM72.7108 59.8613C72.5444 60.0018 72.4009 60.0863 72.2833 60.1165C70.4639 60.5749 70.1393 59.046 70.261 57.6766C70.3276 56.9368 70.7463 56.2521 71.5445 56.1739C71.9805 56.1316 72.3659 56.2406 72.7006 56.5033C72.7428 56.5367 72.7686 56.5264 72.7788 56.4744L72.8076 56.3437C72.8205 56.2873 72.8556 56.2597 72.912 56.2597L73.6436 56.261C73.684 56.261 73.7173 56.2944 73.7173 56.3348C73.7231 57.6317 73.7231 58.9357 73.7173 60.2486C73.7129 61.2133 73.0496 61.7993 72.1239 61.8807C71.5592 61.9314 70.7316 61.7691 70.3884 61.2538C70.3609 61.2116 70.3667 61.1564 70.4013 61.1218L70.8794 60.6505C70.9185 60.6114 70.9589 60.61 71.0011 60.6447C71.7891 61.2902 72.8627 61.1378 72.7828 59.8933C72.7792 59.8338 72.7557 59.824 72.7108 59.8613Z" fill="white"/>
<path d="M75.726 57.8982L77.1978 57.9014C77.2413 57.9014 77.2773 57.8667 77.2773 57.8231V57.7942C77.2773 57.3678 76.9425 57.0224 76.5296 57.0211H76.3991C75.9849 57.0197 75.6488 57.3647 75.6488 57.7915V57.8204C75.6492 57.8631 75.6843 57.8982 75.726 57.8982ZM75.6785 58.6914C75.7163 59.6633 76.8071 59.7113 77.4442 59.2093C77.5614 59.1164 77.6746 59.1222 77.783 59.2267L78.0711 59.5081C78.1826 59.617 78.1799 59.7215 78.0596 59.8229C77.3106 60.4538 76.4994 60.5902 75.6288 60.2319C74.696 59.8491 74.6219 58.5825 74.7204 57.708C74.8625 56.4502 76.1358 55.8296 77.2382 56.3226C78.1235 56.7187 78.2842 57.6182 78.2452 58.4824C78.2421 58.5594 78.1799 58.6189 78.1031 58.6189H75.7478C75.7003 58.6189 75.6768 58.6438 75.6785 58.6914Z" fill="white"/>
<path d="M80.2498 56.5129C80.9246 56.0475 81.6594 56.0399 82.2605 56.6232C82.2951 56.6565 82.3316 56.6579 82.3675 56.6276C83.3554 55.8225 85.0331 56.0955 85.0447 57.6026C85.0518 58.4803 85.0549 59.3405 85.0549 60.1835C85.0549 60.2546 85.0203 60.2893 84.9492 60.288H84.1874C84.1279 60.2866 84.0804 60.2386 84.0804 60.1808L84.0733 57.6364C84.0719 57.3332 83.8326 57.0838 83.5298 57.0691L83.3327 57.0602C82.9505 57.0429 82.6304 57.3488 82.6304 57.7333L82.629 60.1777C82.629 60.2489 82.5926 60.2849 82.522 60.2849L81.757 60.2893C81.6833 60.2906 81.6469 60.2528 81.6483 60.179C81.6612 58.9924 81.6598 58.1828 81.6438 57.7507C81.6092 56.7873 80.1778 56.8282 80.1707 57.8218C80.165 58.6239 80.1636 59.4103 80.1676 60.1804C80.169 60.2515 80.133 60.2875 80.062 60.2875H79.3334C79.261 60.2875 79.2246 60.2511 79.2246 60.1786V56.356C79.2246 56.2978 79.2535 56.2689 79.3116 56.2675L80.0446 56.2573C80.0895 56.256 80.117 56.2778 80.1285 56.3195L80.1721 56.4836C80.1845 56.5316 80.2107 56.5405 80.2498 56.5129Z" fill="white"/>
<path d="M86.9907 57.9008L88.4856 57.9039C88.526 57.9039 88.558 57.8719 88.558 57.8327V57.8083C88.558 57.3761 88.2192 57.0249 87.8019 57.0236H87.6802C87.2615 57.0222 86.921 57.373 86.921 57.8056V57.8301C86.921 57.8687 86.9516 57.9008 86.9907 57.9008ZM87.1559 58.6188C86.9388 58.6188 86.8793 58.7161 86.9761 58.9104L87.0875 59.1309C87.1905 59.3341 87.3526 59.4573 87.5741 59.4995C88.0567 59.5938 88.4678 59.472 88.811 59.1367C88.8456 59.1034 88.8994 59.1021 88.9358 59.1323L89.4299 59.5644C89.4663 59.5964 89.4721 59.6324 89.4459 59.6733C89.3371 59.8458 89.1911 59.9837 89.0086 60.0837C87.9351 60.6755 86.3678 60.503 86.0504 59.106C85.7636 57.8425 86.0433 56.254 87.6252 56.1873C89.2084 56.1219 89.5431 57.2374 89.5125 58.5401C89.5112 58.5823 89.4761 58.617 89.4344 58.617L87.1559 58.6188Z" fill="white"/>
<path d="M91.5707 56.5085L91.636 56.4347C91.6604 56.4085 91.6879 56.3867 91.7199 56.3707C92.4413 55.9964 93.4305 56.1707 93.7626 56.958C93.8421 57.1465 93.8829 57.4626 93.8874 57.9055C93.8945 58.6786 93.8962 59.4491 93.8887 60.2133C93.8887 60.2627 93.8643 60.2871 93.815 60.2871H93.0256C92.975 60.2871 92.9501 60.2627 92.9501 60.2116C92.9488 59.4135 93.0416 58.4274 92.8937 57.6191C92.7765 56.9691 91.9379 56.8647 91.6075 57.3524C91.5179 57.4844 91.4712 57.7121 91.4699 58.0357C91.4641 58.748 91.461 59.45 91.4628 60.1449C91.4628 60.2391 91.4166 60.2871 91.3225 60.2871H90.633C90.5358 60.2871 90.4883 60.2391 90.4883 60.1422V56.3547C90.4883 56.2951 90.5171 56.2662 90.5766 56.2662L91.3487 56.2591C91.3935 56.2591 91.4224 56.2809 91.4326 56.3258L91.4717 56.4841C91.4881 56.5548 91.5214 56.5637 91.5707 56.5085Z" fill="white"/>
<path d="M106.943 59.1085C106.954 58.9329 106.827 58.7777 106.653 58.7533C105.767 58.6283 104.612 58.6648 104.679 57.3768C104.756 55.8812 106.749 56.0044 107.637 56.5761C107.781 56.6677 107.799 56.7806 107.695 56.914L107.471 57.2012C107.365 57.3377 107.239 57.3608 107.093 57.271C106.742 57.0563 106.36 56.9709 105.945 57.0127C105.749 57.0331 105.647 57.1416 105.637 57.3377L105.631 57.4351C105.624 57.576 105.722 57.7005 105.861 57.7267C106.8 57.8979 108.051 57.8081 107.908 59.2005C107.85 59.7647 107.536 60.1244 106.966 60.28C106.071 60.5236 105.278 60.3787 104.585 59.8461C104.479 59.7647 104.47 59.6736 104.556 59.5704L104.849 59.221C104.934 59.1178 105.036 59.1018 105.15 59.1703C105.515 59.3855 106.893 59.999 106.943 59.1085Z" fill="white"/>
<path d="M109.784 57.5347C109.818 57.6477 109.915 57.7304 110.031 57.7464C110.499 57.8117 111.107 57.8335 111.475 58.0233C112.199 58.3946 112.215 59.5074 111.613 60.0209C110.855 60.6651 109.266 60.4691 108.611 59.7324C108.579 59.6946 108.58 59.6394 108.614 59.6048L109.043 59.1593C109.11 59.0913 109.217 59.0855 109.291 59.1477C109.718 59.5118 110.212 59.6368 110.77 59.5221C111.081 59.4581 111.248 58.8432 110.729 58.7663C109.862 58.6373 108.781 58.6444 108.788 57.4303C108.797 55.8666 110.899 56.0085 111.809 56.6193C111.913 56.6891 111.926 56.7732 111.846 56.8719L111.542 57.2489C111.461 57.3489 111.365 57.3649 111.257 57.2951C110.891 57.0604 109.537 56.6905 109.784 57.5347Z" fill="white"/>
<path d="M115.344 57.8153C115.344 57.4063 115.013 57.0742 114.604 57.0742H114.497C114.089 57.0742 113.757 57.4063 113.757 57.8153V58.7699C113.757 59.1789 114.089 59.511 114.497 59.511H114.604C115.013 59.511 115.344 59.1789 115.344 58.7699V57.8153ZM116.331 58.7463C116.331 59.6501 115.599 60.3824 114.697 60.3824H114.407C113.505 60.3824 112.773 59.6497 112.773 58.7463V57.8353C112.773 56.9315 113.505 56.1992 114.407 56.1992H114.697C115.6 56.1992 116.331 56.9319 116.331 57.8353V58.7463Z" fill="white"/>
<path d="M119.125 57.0931C117.394 56.6014 117.848 60.8459 119.594 59.1662C119.629 59.1329 119.684 59.1315 119.72 59.1631L120.239 59.6126C120.284 59.6517 120.291 59.6953 120.263 59.746C119.91 60.396 118.841 60.4973 118.233 60.3088C117.534 60.0927 117.22 59.5646 117.108 58.8421C116.961 57.876 117.111 56.6649 118.19 56.3066C118.879 56.0772 119.54 56.1937 120.174 56.6534C120.298 56.745 120.305 56.929 120.188 57.0291L119.775 57.3843C119.731 57.4234 119.681 57.4279 119.628 57.399C119.445 57.2976 119.318 57.1464 119.125 57.0931Z" fill="white"/>
<path d="M124.103 59.1259C124.077 59.8035 125.756 59.9022 125.65 58.7098C125.646 58.6604 125.618 58.6342 125.568 58.6302C125.133 58.5977 124.128 58.4746 124.103 59.1259ZM125.588 60.0791C124.684 60.6913 123.133 60.481 123.185 59.0841C123.234 57.7539 124.567 57.8988 125.539 57.8917C125.584 57.8904 125.611 57.8686 125.62 57.8237C125.827 56.8069 124.503 56.9069 123.995 57.2186C123.842 57.3128 123.723 57.2808 123.637 57.123L123.47 56.8198C123.381 56.6557 123.421 56.5353 123.593 56.4615C124.515 56.0627 126.457 55.8653 126.516 57.3422C126.556 58.3025 126.568 59.2597 126.556 60.216C126.554 60.2565 126.522 60.2885 126.483 60.2872H125.762C125.689 60.2872 125.653 60.2507 125.652 60.18L125.65 60.112C125.649 60.0613 125.629 60.0515 125.588 60.0791Z" fill="white"/>
<path d="M134.839 57.8019C134.839 57.3987 134.513 57.071 134.11 57.0697H134.006C133.602 57.0683 133.275 57.396 133.274 57.7997L133.273 58.7862C133.272 59.1895 133.598 59.5171 134.002 59.5185H134.106C134.509 59.5198 134.837 59.1921 134.837 58.7884L134.839 57.8019ZM135.823 58.7595C135.823 59.659 135.094 60.3885 134.196 60.3885H133.912C133.014 60.3885 132.285 59.659 132.285 58.7595V57.8223C132.285 56.9229 133.014 56.1934 133.912 56.1934H134.196C135.094 56.1934 135.823 56.9229 135.823 57.8223V58.7595Z" fill="white"/>
<path d="M137.848 56.5228C138.519 55.944 139.662 56.1023 140.057 56.9305C140.15 57.1262 140.199 57.4454 140.206 57.8895C140.217 58.6773 140.218 59.4447 140.208 60.1889C140.206 60.2556 140.173 60.289 140.106 60.289L139.346 60.2876C139.285 60.2863 139.237 60.2383 139.237 60.1787C139.236 59.4825 139.234 58.7831 139.231 58.0811C139.227 57.4689 139.064 56.9092 138.326 57.0657C137.971 57.1413 137.786 57.3978 137.773 57.8362C137.748 58.6555 137.742 59.4478 137.754 60.2152C137.756 60.2632 137.731 60.2876 137.682 60.2876H136.881C136.833 60.2876 136.809 60.2632 136.809 60.2152V56.3726C136.809 56.3143 136.857 56.2668 136.916 56.2654L137.614 56.2583C137.673 56.257 137.724 56.3019 137.733 56.3614L137.752 56.4877C137.761 56.558 137.793 56.5709 137.848 56.5228Z" fill="white"/>
<path d="M12.4257 60.0119C12.0101 60.4049 11.5288 60.5138 10.9828 60.3382C10.2018 60.0875 10.0642 59.4606 10.0571 58.6626C10.0513 57.8881 10.0513 57.1234 10.0571 56.3676C10.0584 56.2964 10.0935 56.2618 10.1641 56.2618L10.8842 56.2631C10.9579 56.2631 10.9956 56.2995 10.9956 56.3733C10.9956 57.0638 10.9925 57.776 10.9867 58.5101C10.9854 58.8159 11.0462 59.0716 11.1706 59.2748C11.4529 59.7362 12.189 59.5331 12.3759 59.128C12.4381 58.996 12.4701 58.7395 12.4745 58.3549C12.4834 57.7049 12.4847 57.058 12.4803 56.4125C12.479 56.3284 12.5469 56.26 12.6295 56.2618H13.2768C13.3562 56.2618 13.4215 56.3271 13.4215 56.4067V60.2146C13.4215 60.2626 13.3971 60.2871 13.3491 60.2871L12.5771 60.2884C12.5207 60.2884 12.4914 60.2595 12.4887 60.2026L12.4829 60.0359C12.4821 59.9857 12.4634 59.9768 12.4257 60.0119Z" fill="white"/>
<path d="M20.0833 60.1614C20.0833 60.2325 20.0251 60.2903 19.9545 60.2903H19.2362C19.1651 60.2903 19.1074 60.2321 19.1074 60.1614V56.3926C19.1074 56.3215 19.1656 56.2637 19.2362 56.2637H19.9545C20.0256 56.2637 20.0833 56.3219 20.0833 56.3926V60.1614Z" fill="white"/>
<path d="M36.7068 60.1867C36.7068 60.2418 36.6619 60.2867 36.6069 60.2867H35.8304C35.7753 60.2867 35.7305 60.2418 35.7305 60.1867V56.3627C35.7305 56.3076 35.7753 56.2627 35.8304 56.2627H36.6069C36.6619 56.2627 36.7068 56.3076 36.7068 56.3627V60.1867Z" fill="white"/>
<path d="M41.2342 60.1899C41.2342 60.2464 41.1894 60.2913 41.133 60.2913H40.3942C40.3378 60.2913 40.293 60.2464 40.293 60.1899V56.366C40.293 56.3095 40.3378 56.2646 40.3942 56.2646H41.133C41.1894 56.2646 41.2342 56.3095 41.2342 56.366V60.1899Z" fill="white"/>
<path d="M46.5739 58.7623L47.3517 56.4429C47.3939 56.3197 47.4792 56.257 47.6097 56.2588L48.198 56.2619C48.3369 56.2633 48.3835 56.3286 48.3369 56.4607C47.8139 57.9127 47.2865 59.3487 46.755 60.7705C46.474 61.5219 45.9701 61.8674 45.2429 61.8047C45.1603 61.7976 45.1181 61.7526 45.1168 61.6682L45.1097 61.0809C45.1083 60.9951 45.1518 60.9519 45.2371 60.9502C45.6296 60.9457 45.8746 60.7701 45.9745 60.4207C46.0309 60.2206 45.9989 59.9681 45.8804 59.6635C45.4746 58.6249 45.059 57.5441 44.6333 56.4229C44.6026 56.3433 44.6608 56.2588 44.746 56.2588L45.4759 56.2633C45.5527 56.2646 45.6207 56.3126 45.6455 56.3851L46.4611 58.7628C46.4984 58.8739 46.5362 58.8739 46.5739 58.7623Z" fill="white"/>
<path d="M122.176 60.1873C122.176 60.2455 122.13 60.2918 122.072 60.2918H121.339C121.281 60.2918 121.234 60.2455 121.234 60.1873V56.3691C121.234 56.3109 121.281 56.2646 121.339 56.2646H122.072C122.129 56.2646 122.176 56.3109 122.176 56.3691V60.1873Z" fill="white"/>
<path d="M131.303 60.1893C131.303 60.2445 131.258 60.2894 131.203 60.2894H130.461C130.406 60.2894 130.361 60.2445 130.361 60.1893V56.3627C130.361 56.3076 130.406 56.2627 130.461 56.2627H131.203C131.258 56.2627 131.303 56.3076 131.303 56.3627V60.1893Z" fill="white"/>
</svg>
