<?xml version="1.0" encoding="utf-8"?>
<!-- Generator: Adobe Illustrator 24.3.0, SVG Export Plug-In . SVG Version: 6.00 Build 0)  -->
<svg version="1.1" id="Layer_1" xmlns="http://www.w3.org/2000/svg" xmlns:xlink="http://www.w3.org/1999/xlink" x="0px" y="0px"
	 viewBox="0 0 1440 420" style="enable-background:new 0 0 1440 420;" xml:space="preserve">
<style type="text/css">
	.st0{fill:#00B4E2;}
	.st1{fill:#61B8A0;}
	.st2{fill:none;stroke:#FFFFFF;stroke-width:2;stroke-miterlimit:10;}
	.st3{fill:none;stroke:#61B8A0;stroke-width:2;stroke-miterlimit:10;}
	.st4{fill:none;stroke:#5CB8A4;stroke-width:2;stroke-miterlimit:10;}
	.st5{fill:none;stroke:#56B8A7;stroke-width:2;stroke-miterlimit:10;}
	.st6{fill:none;stroke:#51B7AB;stroke-width:2;stroke-miterlimit:10;}
	.st7{fill:none;stroke:#4BB7AF;stroke-width:2;stroke-miterlimit:10;}
	.st8{fill:none;stroke:#46B7B2;stroke-width:2;stroke-miterlimit:10;}
	.st9{fill:none;stroke:#41B7B6;stroke-width:2;stroke-miterlimit:10;}
	.st10{fill:none;stroke:#3BB6BA;stroke-width:2;stroke-miterlimit:10;}
	.st11{fill:none;stroke:#36B6BD;stroke-width:2;stroke-miterlimit:10;}
	.st12{fill:none;stroke:#31B6C1;stroke-width:2;stroke-miterlimit:10;}
	.st13{fill:none;stroke:#2BB6C5;stroke-width:2;stroke-miterlimit:10;}
	.st14{fill:none;stroke:#26B6C8;stroke-width:2;stroke-miterlimit:10;}
	.st15{fill:none;stroke:#20B5CC;stroke-width:2;stroke-miterlimit:10;}
	.st16{fill:none;stroke:#1BB5D0;stroke-width:2;stroke-miterlimit:10;}
	.st17{fill:none;stroke:#16B5D3;stroke-width:2;stroke-miterlimit:10;}
	.st18{fill:none;stroke:#10B5D7;stroke-width:2;stroke-miterlimit:10;}
	.st19{fill:none;stroke:#0BB4DB;stroke-width:2;stroke-miterlimit:10;}
	.st20{fill:none;stroke:#05B4DE;stroke-width:2;stroke-miterlimit:10;}
	.st21{fill:none;stroke:#00B4E2;stroke-width:2;stroke-miterlimit:10;}
	.st22{opacity:0.9;}
</style>
<g>
	<g>
		<rect x="-796.34" class="st0" width="3048.46" height="425.51"/>
	</g>
	<g>
		<path class="st2" d="M-953.95,517C-554.24,77.25-247.03,12.92-36.97,39.78C247.7,76.17,311.72,274.61,643.85,307.49
			c369.39,36.56,487.14-189.4,829.75-212.42c205.74-13.83,514.11,44.08,906.35,421.93"/>
		<path class="st2" d="M2379.24,495.18c-378.05-349.14-680.84-394.84-888.97-382.49c-343.45,20.73-460.89,214.03-829.99,178.15
			C329.93,258.67,265.02,84.32-22.08,55.78c-211.89-21.05-522.38,39.83-928.45,434.06"/>
		<path class="st2" d="M2378.53,473.35c-363.87-320.43-661.07-353.92-871.6-343.04c-344.28,18.44-461.41,179.08-830.23,143.88
			C348.14,242.74,282.34,92.47-7.18,71.79c-213.72-15.24-527.49,42.2-939.91,390.89"/>
		<path class="st2" d="M2377.83,451.53c-349.68-291.72-641.3-313.01-854.22-303.6c-345.12,16.15-461.94,144.13-830.46,109.61
			C366.36,226.8,299.65,100.62,7.71,87.79c-215.55-9.43-532.61,44.57-951.38,347.73"/>
		<path class="st2" d="M2377.12,429.7c-335.5-263.01-621.54-272.09-836.85-264.15c-345.95,13.86-462.46,109.18-830.7,75.33
			c-325-30.03-392.6-132.11-686.97-137.09c-217.38-3.62-537.72,46.93-962.84,304.57"/>
		<path class="st2" d="M2376.41,407.88c-321.31-234.3-601.77-231.17-819.47-224.71c-346.78,11.57-462.99,74.23-830.94,41.06
			C402.78,194.92,334.29,116.92,37.5,119.8c-219.21,2.19-542.84,49.3-974.31,261.4"/>
		<path class="st2" d="M2375.7,386.06c-307.12-205.59-582.01-190.69-802.09-185.26c-347.64,8.58-463.51,39.28-831.17,6.79
			C421,178.98,351.61,125.07,52.39,135.81c-221.04,8-547.95,51.67-985.78,218.24"/>
		<path class="st2" d="M2374.99,364.23c-292.94-176.88-562.24-149.81-784.72-145.82c-348.47,6.25-464.04,4.33-831.41-27.48
			c-319.65-27.89-389.94-57.71-691.58-39.12c-222.87,13.81-553.06,54.03-997.24,175.08"/>
		<path class="st2" d="M2374.28,342.41c-278.75-148.17-542.47-108.91-767.34-106.37c-349.3,3.93-464.56-30.62-831.64-61.75
			c-317.87-27.18-389.05-32.91-693.12-6.47c-224.7,19.62-558.18,56.4-1008.71,131.91"/>
		<path class="st2" d="M2373.57,320.58c-264.57-119.45-522.7-67.99-749.97-66.93c-350.13,1.64-465.09-65.57-831.88-96.03
			c-316.08-26.47-388.16-8.11-694.65,26.19c-226.53,25.42-563.29,58.77-1020.17,88.75"/>
		<path class="st2" d="M2372.86,298.76c-250.38-90.74-502.92-27.07-732.59-27.48c-350.96-0.63-465.61-100.52-832.12-130.3
			c-314.3-25.75-387.27,16.69-696.19,58.84c-228.36,31.23-568.4,61.13-1031.64,45.59"/>
		<path class="st2" d="M2372.15,276.93c-236.2-62.03-483.15,13.87-715.22,11.96c-351.79-2.89-466.13-135.47-832.35-164.57
			c-312.51-25.04-386.39,41.49-697.73,91.5c-230.19,37.04-573.52,63.5-1043.1,2.42"/>
		<path class="st2" d="M2371.44,255.11c-222.01-33.32-463.39,55.25-697.84,51.41c-352.63-4.47-466.66-170.42-832.59-198.84
			c-310.73-24.33-385.5,66.29-699.26,124.15c-232.02,42.85-578.63,65.87-1054.57-40.74"/>
		<path class="st2" d="M2370.73,233.29c-207.82-4.61-443.62,96.17-680.47,90.85c-353.46-6.77-467.18-205.37-832.83-233.11
			c-308.95-23.62-384.61,91.09-700.8,156.81c-233.85,48.66-583.75,68.23-1066.03-83.9"/>
		<path class="st2" d="M2370.02,211.46c-193.64,24.1-423.85,137.09-663.09,130.3c-354.29-9.06-467.71-240.32-833.06-267.39
			C566.7,51.47,490.14,190.27,171.53,263.84c-235.68,54.47-588.86,70.6-1077.5-127.06"/>
		<path class="st2" d="M2369.31,189.64c-179.45,52.81-404.08,178-645.72,169.74c-355.13-11.35-468.23-275.27-833.3-301.66
			c-305.38-22.19-382.84,140.7-703.87,222.12c-237.51,60.28-593.97,72.97-1088.96-170.23"/>
		<path class="st2" d="M2368.61,167.81c-165.27,81.52-384.32,218.92-628.34,209.19C1384.3,363.36,1271.5,66.78,906.73,41.07
			c-303.6-21.48-381.95,165.5-705.41,254.78C-38.02,361.94-397.77,371.18-899.11,82.46"/>
		<path class="st2" d="M2367.9,145.99c-151.08,110.23-364.55,259.84-610.97,248.63c-356.8-15.93-469.28-345.17-833.77-370.2
			C621.34,3.65,542.1,214.72,216.21,311.85c-241.17,71.9-604.2,77.7-1111.89-256.55"/>
		<path class="st2" d="M2367.19,124.17c-136.89,138.94-344.78,300.76-593.59,288.08C1415.96,394.02,1303.79,32.12,939.59,7.77
			C639.56-12.29,559.41,222.87,231.1,327.86c-243,77.71-609.31,80.07-1123.36-299.72"/>
	</g>
	<g class="st22">
		<rect x="-803.96" class="st0" width="3063.7" height="427.64"/>
	</g>
</g>
</svg>
