<?xml version="1.0" encoding="utf-8"?>
<!-- Generator: Adobe Illustrator 24.3.0, SVG Export Plug-In . SVG Version: 6.00 Build 0)  -->
<svg version="1.1" xmlns="http://www.w3.org/2000/svg" xmlns:xlink="http://www.w3.org/1999/xlink" x="0px" y="0px"
	 viewBox="0 0 256 256" style="enable-background:new 0 0 256 256;" xml:space="preserve">
<style type="text/css">
	.st0{clip-path:url(#SVGID_2_);}
	.st1{fill:#006C35;}
	.st2{fill:#FFFFFF;}
	.st3{fill:url(#SVGID_3_);}
	.st4{opacity:0.1;}
	.st5{fill:#231F20;}
</style>
<g id="Countryflags.com">
	<g>
		<defs>
			<circle id="SVGID_1_" cx="128" cy="128" r="128"/>
		</defs>
		<clipPath id="SVGID_2_">
			<use xlink:href="#SVGID_1_"  style="overflow:visible;"/>
		</clipPath>
		<g class="st0">
			<rect id="_x32__1_" x="-64" class="st1" width="384" height="256"/>
			<path id="_x31_" class="st2" d="M101.52,60.46c-0.2-0.01-0.5,0.11-0.91,0.35c-0.94,0.63-2.79,2.56-2.85,4.78
				c-0.06,1.26-0.29,1.25,0.53,2.05c0.59,0.86,1.19,0.77,2.38,0.14c0.69-0.51,0.92-0.83,1.15-1.68c0.29-1.43-1.5,0.67-1.73-0.91
				c-0.4-1.47,0.74-2.08,1.82-3.5C101.94,61.02,101.96,60.47,101.52,60.46L101.52,60.46z M118.96,60.56
				c-0.33,0.05-0.74,0.47-1.31,1.5c-0.41,1.08-2.16,2.71-0.9,6.08c1.04,2.14,1.46,5.61,0.99,9.47c-0.72,1.1-0.88,1.48-1.82,2.58
				c-1.32,1.42-2.76,1.06-3.86,0.53c-1.03-0.69-1.83-1.05-2.3-3.25c0.08-3.51,0.29-9.25-0.35-10.46c-0.94-1.89-2.5-1.21-3.17-0.64
				c-3.2,2.92-4.78,7.86-5.74,11.79c-0.89,2.86-1.83,2.04-2.5,0.88c-1.62-1.51-1.73-13.35-3.68-11.41
				c-3.12,8.93,1.79,18.71,5.2,17.76c2.46,1.02,4.02-3.66,5.02-8.78c0.69-1.44,1.21-1.6,1.57-0.86c-0.09,6.81,0.49,8.33,2.24,10.4
				c3.91,3.01,7.14,0.38,7.39,0.13c0.25-0.25,3.04-3.04,3.04-3.04c0.68-0.71,1.57-0.76,2.53-0.13c0.93,0.84,0.81,2.3,2.8,3.31
				c1.67,0.67,5.25,0.16,6.08-1.28c1.12-1.91,1.39-2.57,1.9-3.3c0.8-1.06,2.16-0.59,2.16-0.26c-0.13,0.59-0.93,1.18-0.38,2.24
				c0.95,0.71,1.17,0.25,1.73,0.1c1.98-0.95,3.47-5.25,3.47-5.25c0.09-1.6-0.82-1.48-1.41-1.15c-0.76,0.46-0.81,0.62-1.57,1.09
				c-0.97,0.14-2.85,0.78-3.78-0.66c-0.95-1.73-0.95-4.14-1.68-5.89c0-0.13-1.27-2.74-0.1-2.91c0.59,0.11,1.86,0.44,2.06-0.62
				c0.62-1.04-1.34-3.97-2.67-5.46c-1.16-1.27-2.76-1.42-4.3-0.13c-1.08,1-0.92,2.11-1.14,3.17c-0.28,1.21-0.22,2.72,1.01,4.32
				c1.08,2.13,3.05,4.87,2.4,8.74c0,0-1.14,1.84-3.15,1.6c-0.84-0.18-2.2-0.55-2.93-5.9c-0.55-4.06,0.14-9.74-1.58-12.4
				C119.85,61.46,119.52,60.48,118.96,60.56L118.96,60.56z M113.44,60.99c-0.52,0.05-1.1,0.65-1.57,1.82
				c-0.4,0.89-0.9,5.55-0.82,5.55c-0.32,1.39,1.45,1.97,2.26,0.19c1.21-3.27,1.22-4.66,1.3-6.05
				C114.42,61.45,113.96,60.94,113.44,60.99L113.44,60.99z M133.82,61.36c-0.53,0.05-0.96,0.36-1.12,1.15
				c-0.21,1.86-0.1,2.87,0.21,4.42c0.24,1.03,1.74,2.76,2.48,3.76c3.53,4.75,6.93,9.51,10.21,14.45c0.52,3.66,0.89,7.25,1.14,10.82
				c0.53,7.83,0.69,17.57,0.21,25.81c1.47,0.06,3.82-2.37,4.64-5.92c0.54-4.91-0.19-14.94-0.24-17.84c-0.03-1.2-0.11-2.64-0.19-4.14
				c3.82,6.24,7.52,12.84,11.15,20.1c1.32-0.63,1.03-8.09,0.26-9.14c-2.91-6.26-6.93-12.44-8.21-14.82
				c-0.46-0.86-2.04-3.25-3.9-6.02c-0.34-3.94-0.72-7.28-0.96-8.29c-0.6-4.17,1.71,0.47,1.39-1.95c-0.75-4.16-3.05-6.99-5.76-10.8
				c-0.87-1.24-0.86-1.49-2.21,0.3c-0.81,1.83-0.8,3.35-0.56,4.78c-0.36-0.52-0.79-1.13-1.42-1.89c-2.34-2.01-2.49-2.12-4.43-3.76
				C135.88,61.94,134.71,61.27,133.82,61.36L133.82,61.36z M194.24,61.98c-0.26-0.04-0.54,0.09-0.86,0.56
				c-0.61,0.54-1.27,1.51-1.25,2.75c0.15,2.2,0.54,4.44,0.69,6.64c0.05,0.29,0.11,0.59,0.16,0.88c-0.24-0.3-0.44-0.54-0.56-0.66
				c-4.28-4.5,1.97-0.74-0.82-4.21c-2.35-2.58-3.04-3.41-5.06-4.96c-1.01-0.65-1.62-1.9-1.95,0.22c-0.13,1.87-0.27,4.03-0.14,5.6
				c-0.01,0.87,0.9,2.52,1.68,3.49c2.86,3.51,5.77,7.24,8.7,11.14c0.62,7.94,0.78,15.23,1.41,23.18c-0.09,3.4-1.14,7.92-2.13,8.35
				c0,0-1.51,0.87-2.53-0.1c-0.74-0.3-3.68-4.91-3.68-4.91c-1.51-1.38-2.51-0.99-3.58,0c-2.96,2.86-4.29,8.2-6.3,11.89
				c-0.52,0.82-1.98,1.52-3.6-0.06c-4.12-5.63-1.71-13.64-2.22-11.58c-3.67,4.14-2.04,10.99-1.22,12.46
				c1.21,2.42,2.19,3.97,4.54,5.17c2.14,1.58,3.82,0.59,4.74-0.51c2.16-2.24,2.19-7.96,3.2-9.09c0.71-2.08,2.49-1.72,3.36-0.8
				c0.84,1.21,1.84,2,3.07,2.66c2.01,1.78,4.42,2.1,6.78,0.48c1.62-0.91,2.67-2.09,3.62-4.42c1.02-2.72,0.51-16.97,0.29-24.9
				c1.52,2.14,3.02,4.33,4.51,6.54c0.65,6.96,0.95,13.81,0.74,20.38c-0.15,1.31,4.56-3.9,4.53-6.37c-0.02-2.16,0-4.11,0-5.94
				c2.29,3.65,4.5,7.36,6.59,11.12c1.3-0.69,0.85-8.03,0.03-9.04c-2.19-3.67-5-7.65-7.17-10.72c-0.43-3.88-1.01-8.45-1.28-9.86
				c-0.41-2.19-0.83-5.47-1.46-8.06c-0.17-1.01-0.69-4.25-0.53-4.56c0.26-0.72,1.22,0.02,1.7-0.82c0.71-0.78-2.47-9.01-4.08-11.36
				c-0.58-1.05-1.63-0.69-2.93,1.02c-1.2,1.13-0.76,3.7-0.3,6.14c1.19,6.23,2.26,12.58,3.1,18.91c-1.56-2.32-3.47-5.13-5.34-7.84
				c-0.05-0.26-0.24-1.22-0.24-1.23c0-0.11-0.26-5.1-0.48-6.29c-0.04-0.48-0.15-0.62,0.35-0.56c0.54,0.45,0.61,0.47,0.94,0.62
				c0.54,0.1,1.02-0.82,0.69-1.66c-1.67-3.09-3.35-6.19-5.02-9.28C194.73,62.23,194.5,62.02,194.24,61.98L194.24,61.98z
				 M38.32,62.14c-0.93-0.03-1.95,0.55-1.55,1.66c-0.23,0.61,1.82,2.66,2.18,3.79c0.32,0.8-0.32,3.39,0.35,3.63
				c0.62,0.27,1.47-1.79,1.79-3.7c0.18-1.04,0.04-4.61-2.38-5.34C38.58,62.16,38.45,62.14,38.32,62.14L38.32,62.14z M215.94,62.16
				c-0.21,0.02-0.47,0.36-0.86,1.2c-0.95,1.56-1.28,4.34-0.9,6.8c2.29,15.46,3.99,30.44,4.34,44.14c-0.2,1.3-0.25,1.99-0.86,3.63
				c-1.35,1.73-2.84,3.9-4.24,4.94c-1.4,1.04-4.38,2.04-5.36,2.82c-3.09,1.79-3.11,3.85-0.61,3.92c4.31-0.5,9.41-0.85,12.93-6.16
				c0.94-1.49,2.05-5.52,2.1-7.98c0.33-14.46-0.19-28.6-2.35-39.06c-0.14-1.02-0.59-3.36-0.42-3.66c0.28-0.72,1.69,0.07,2.19-0.75
				c0.74-0.75-3.65-6.37-5.18-8.77C216.4,62.63,216.21,62.13,215.94,62.16L215.94,62.16z M170.72,62.4
				c-0.18,0.03-0.44,0.3-0.93,0.94c-1.2,3.94-1.63,7.15-1.17,9.6c3.09,16.14,6.26,30.85,5.76,46.22c1.47,0.01,3.16-3.36,3.89-6.69
				c0.4-4.59-0.26-7.38-0.38-10.08c-0.12-2.7-3.05-24.58-3.65-26.62c-0.72-3.86,2.85-0.51,2.46-2.75c-1.23-2.83-4.32-6.95-5.28-9.41
				C171.06,62.96,171.02,62.35,170.72,62.4L170.72,62.4z M60.63,62.71c-0.38,0.07-0.75,0.38-0.88,0.9c-0.08,0.34,0.15,0.9-0.16,1.07
				c-0.18,0.18-0.84,0.06-0.82-0.88c0-0.3-0.22-0.61-0.35-0.8c-0.13-0.09-0.22-0.11-0.46-0.11c-0.29,0.01-0.29,0.09-0.45,0.34
				c-0.07,0.25-0.16,0.5-0.16,0.78c-0.04,0.33-0.17,0.45-0.42,0.5c-0.27,0-0.21,0.03-0.43-0.11c-0.13-0.14-0.29-0.2-0.29-0.45
				c0-0.26-0.07-0.66-0.14-0.83c-0.12-0.15-0.3-0.23-0.51-0.29c-1.15,0-1.23,1.33-1.17,1.82c-0.09,0.09-0.13,2.44,1.44,3.09
				c2.11,1,6.06,0.58,5.89-2.82c0-0.3-0.07-1.31-0.1-1.58C61.4,62.83,61,62.64,60.63,62.71L60.63,62.71z M88.88,62.74
				c-0.73,0.04-1.37,0.25-1.92,0.53c-1.4,1.34-1.72,3.48-0.62,4.82c1.07,0.5,2.14,1.58,1.42,2.18c-3.03,3.23-10.9,8.63-11.3,9.62
				c0,0.01-0.01,0.02-0.02,0.03c0,0.01,0,0.03,0,0.03c0,0,0,0.01,0,0.02c0,0.01,0.01,0.03,0.02,0.03c0,0,0.01,0.01,0.02,0.02
				c0,0,0.01,0,0.02,0c0,0,0.01,0.02,0.02,0.02c0,0,0.01,0,0.02,0c0,0,0.02,0.01,0.02,0.01c0.4,0.27,5.33,0.26,5.87,0.02
				c0,0,0.01-0.01,0.02-0.02c0,0,0.01,0,0.02,0c0,0,0-0.01,0-0.02c1.69-0.62,9.73-9.81,9.73-9.81c-0.42-0.36-0.8-0.62-1.22-0.98
				c-0.45-0.39-0.4-0.77,0-1.15c1.99-1.16,1.36-3.71,0.32-4.86C90.42,62.83,89.61,62.7,88.88,62.74L88.88,62.74z M162.74,62.77
				c-0.21,0.02-0.47,0.35-0.86,1.18c-0.95,1.55-1.59,4.26-1.52,6.8c2.06,14.24,2.69,26.7,4.03,40.94c0.11,1.38-0.09,3.38-1.01,4.18
				c-3.39,3.54-8.27,7.9-13.58,9.9c-0.57,0.64,1.42,3.38,4,3.38c4.31-0.5,8.1-2.92,11.62-9.3c0.94-1.49,2.59-4.67,2.64-7.14
				c0.33-14.46-0.73-25.71-2.9-36.16c-0.14-1.02-0.04-2.22,0.13-2.53c0.28-0.33,1.23,0.01,1.73-0.82c0.74-0.75-1.97-6.99-3.5-9.39
				C163.2,63.22,163.01,62.74,162.74,62.77L162.74,62.77z M48.32,63.2c-0.59,0.07-1.16,0.55-1.42,1.2c-0.1,2.28-0.11,4.57,0.14,6.67
				c1.04,3.69,1.37,6.94,1.87,10.72c0.14,5.06-2.92,2.19-2.78-0.32c0.71-3.26,0.52-8.39-0.11-9.7c-0.5-1.3-1.08-1.62-2.29-1.41
				c-0.96-0.06-3.45,2.65-4.14,7.14c0,0-0.58,2.3-0.83,4.35c-0.34,2.32-1.87,3.96-2.94-0.32c-0.92-3.11-1.49-10.77-3.04-8.98
				c-0.44,5.98-0.97,16.5,4.11,17.58c6.15,0.59,2.75-10.39,4.98-12.38c0.42-0.98,1.2-1,1.26,0.24v9.33
				c-0.06,3.03,1.94,3.93,3.49,4.56c1.61-0.12,2.68-0.08,3.31,1.49c0.25,5.38,0.52,10.77,0.77,16.14c0,0,3.73,1.07,3.9-9.07
				c0.18-5.96-1.19-10.95-0.38-12.11c0.03-1.14,1.49-1.19,2.5-0.64c1.61,1.13,2.32,2.53,4.82,1.97c3.8-1.05,6.09-2.89,6.14-5.81
				c-0.22-2.77-0.54-5.55-1.74-8.32c0.17-0.5-0.73-1.82-0.56-2.32c0.68,1.07,1.72,0.98,1.95,0c-0.65-2.13-1.65-4.17-3.28-5.06
				c-1.34-1.18-3.31-0.93-4.03,1.54c-0.33,2.85,1.03,6.22,3.1,8.98c0.44,1.08,1.06,2.87,0.78,4.48c-1.1,0.63-2.2,0.37-3.12-0.61
				c0,0-3.02-2.26-3.02-2.77c0.8-5.14,0.17-5.73-0.27-7.15c-0.31-1.97-1.24-2.59-2-3.94c-0.76-0.8-1.78-0.8-2.27,0
				c-1.34,2.32-0.71,7.29,0.26,9.52c0.7,2.05,1.77,3.33,1.26,3.33c-0.42,1.16-1.28,0.89-1.9-0.45c-0.89-2.76-1.07-6.88-1.07-8.74
				c-0.27-2.3-0.57-7.22-2.08-8.46C49.26,63.34,48.79,63.15,48.32,63.2L48.32,63.2z M69.91,63.24c-0.31,0.04-0.64,0.21-1.04,0.3
				c-1.31,0.42-2.53,1.55-2.14,3.74c1.54,9.39,2.55,16.55,4.1,25.94c0.24,1.1-0.68,2.55-1.87,2.4c-2.02-1.37-2.52-4.13-5.97-4.02
				c-2.5,0.03-5.34,2.74-5.7,5.36c-0.42,2.08-0.56,4.33,0,6.14c1.75,2.11,3.85,1.88,5.7,1.41c1.51-0.62,2.76-2.12,3.3-1.76
				c0,0,0.01,0,0.02,0c0,0,0,0.01,0,0.02c0.33,0.58-0.03,5.46-7.14,9.23c-4.37,1.96-7.84,2.43-9.71-1.14
				c-1.16-2.23,0.08-10.71-2.77-8.75c-8.44,21.74,19.76,24.78,22.91,0.9c0.2-0.67,0.83-1.35,1.26-1.18
				c0.19,0.08,0.37,0.34,0.43,0.83c-0.65,21.62-21.81,23.11-25.41,16.3c-0.89-1.6-1.16-5.17-1.25-7.31
				c-0.16-1.29-0.49-2.04-0.86-2.34c-0.86-0.64-2.01,1.04-2.26,3.95c-0.36,2.35-0.26,2.99-0.26,5.25
				c1.13,17.08,28.36,9.74,32.78-4.37c2.19-7.29-0.04-12.8,0.69-13.47c0.01-0.01,0.03-0.01,0.03-0.02c0.01,0,0.02-0.01,0.03-0.02
				c0.01,0,0.02-0.01,0.03-0.02c0.02-0.01,0.07-0.02,0.1-0.02c2.7,2.91,6.5,0.37,7.33-0.64c0.36-0.51,1.25-0.83,1.87-0.18
				c2.11,1.52,5.8,0.8,6.58-1.87c0.45-2.61,0.82-5.3,0.91-8.1c-1.37,0.43-2.48,0.75-2.93,1.22c-0.11,0.12-0.18,0.24-0.21,0.38
				c-0.12,0.77-0.23,1.55-0.35,2.32c-0.01,0.06-0.03,0.12-0.06,0.18c-0.06,0.09-0.16,0.18-0.26,0.24c-0.49,0.27-1.33,0.11-1.38-0.59
				c-0.65-2.97-3.34-3.36-4.98,1.25c-1.1,0.89-3.1,1.06-3.31-0.27c0.27-3.09-0.98-3.5-3.47-2.05c-0.8-6.12-1.6-11.96-2.4-18.08
				c1.04-0.03,1.99,0.72,2.94-0.46c-1.03-3.2-3.21-9.71-4.43-10.32c-0.01,0-0.02-0.01-0.03-0.02c-0.06-0.07-0.12-0.13-0.18-0.18
				c-0.02-0.02-0.06-0.05-0.08-0.06c-0.02-0.02-0.06-0.03-0.08-0.05c-0.05-0.03-0.11-0.05-0.16-0.06
				C70.13,63.24,70.02,63.22,69.91,63.24L69.91,63.24z M154.05,63.28c-1.08-0.03-2.27,0.65-1.81,2c-0.27,0.74,2.32,3.24,2.74,4.61
				c0.75,2.1-0.57,4.11,0.21,4.4c0.72,0.32,1.72-2.17,2.1-4.48c0.43-1.87-0.9-5.69-2.78-6.48C154.35,63.3,154.2,63.29,154.05,63.28
				L154.05,63.28z M88.5,65.59c0.49-0.05,1.08,0.4,1.38,1.04c0.31,0.68,0.15,1.33-0.35,1.46c-0.51,0.12-1.16-0.33-1.47-1.01
				c-0.31-0.68-0.15-1.35,0.35-1.47C88.43,65.6,88.46,65.59,88.5,65.59z M210.1,68.74c-0.98-0.03-2.06,0.71-1.63,2.18
				c-0.25,0.8,2.1,3.51,2.48,4.99c0.34,1.06-0.52,4.45,0.19,4.77c0.66,0.35,1.58-2.35,1.92-4.85c0.19-1.37-0.82-6.17-2.54-7.02
				C210.38,68.77,210.24,68.74,210.1,68.74L210.1,68.74z M142.87,70.4c0.09,0.4,0.18,0.81,0.24,1.22c0.2,0.89,0.38,1.77,0.56,2.64
				c-0.78-1.07-1.42-1.93-1.7-2.24C140.21,69.93,142.01,70.65,142.87,70.4L142.87,70.4z M158.35,78.02
				c-0.38,0.07-0.75,0.4-0.88,0.91c-0.08,0.34,0.16,0.89-0.14,1.06c-0.18,0.18-0.86,0.07-0.83-0.86c0-0.3-0.22-0.63-0.35-0.82
				c-0.13-0.09-0.22-0.11-0.46-0.11c-0.29,0.01-0.29,0.09-0.45,0.34c-0.07,0.25-0.16,0.5-0.16,0.78c-0.04,0.33-0.15,0.45-0.4,0.5
				c-0.27,0-0.23,0.03-0.45-0.11c-0.13-0.14-0.29-0.2-0.29-0.45c0-0.26-0.07-0.66-0.14-0.83c-0.12-0.15-0.3-0.22-0.51-0.27
				c-1.15,0-1.22,1.31-1.15,1.81c-0.09,0.09-0.14,2.45,1.42,3.1c2.11,1,6.07,0.56,5.9-2.83c0-0.3-0.08-1.31-0.11-1.58
				C159.13,78.14,158.73,77.95,158.35,78.02L158.35,78.02z M87.64,78.72c-0.26-0.03-0.6,0.07-0.99,0.3c-1.86,1.01-2.58,4-1.42,5.74
				c1.08,1.54,2.8,0.98,3.02,0.98c1.82,0.23,2.91-3.42,2.91-3.42s0.05-1.03-2.11,0.91c-0.91,0.17-1.04-0.16-1.26-0.67
				c-0.19-0.95-0.15-1.91,0.29-2.86C88.27,79.13,88.07,78.77,87.64,78.72L87.64,78.72z M187.6,79.19c-1.03-0.05-2.13,0.62-2.42,2.03
				c0,0.83,0.38,1.29,0.3,2.05c-0.11,0.43-0.55,0.72-1.62,0.21c0.17-0.15-0.69-1.36-0.69-1.36c-0.83-0.5-1.94,0.03-2.66,0.5
				c-0.4,0.72-0.69,1.96-0.24,3.22c1.19,2.2,5.27,5.95,7.22,5.98c0.04-1.98,0.23-4.62,0.34-6.26c0.05-0.62,0.19-1.3,0.78-1.46
				c0.59-0.15,1.62,0.6,1.63-0.05c-0.11-1.26-0.36-3.12-1.07-4C188.82,79.51,188.23,79.22,187.6,79.19L187.6,79.19z M104.86,86.08
				c-0.03,0.01-0.05,0.03-0.08,0.05c-0.01,0.01-0.04,0.02-0.05,0.03c-0.21,0.15-0.45,0.51-0.99,0.9c-0.92,1.04-1.08,1.77-1.02,3.86
				c0.05,0.22,1.74,4.91,3.17,8.21c0.96,3.43,1.85,7.35,1.2,11.06c-2.26,4.9-6.79,9.29-11.17,11.68c-2.23,0.71-4.16,0.47-4.67-0.02
				c0,0-0.01-0.01-0.02-0.02c-1.28-0.86-1.31-2.39-1.23-2.66c0,0,0-0.01,0-0.02c0,0,0.01-0.01,0.02-0.02
				c3.69-2.57,7.91-4.65,11.22-11.6c0.98-2.65,1.27-4.25,0.3-8.35c-0.38-1.53-0.84-2.79-1.89-3.87c0,0,0.01-0.01,0.02-0.02
				c0.63-0.3,2.26,0.9,2.51,0.14c-0.39-1.96-1.71-4.59-3.22-5.94c-1.32-1.2-2.75-1.33-3.95-0.24c-1.36,0.75-1.65,3.47-0.99,5.84
				c0.73,1.79,2.68,2.1,4.08,5.7c0,0,0,0.01,0,0.02c0.03,0.23,0.48,2.68-0.22,3.68c-0.57,1.78-7.9,7.56-8.42,7.9
				c-0.01,0.01-0.04,0.03-0.05,0.03c0,0-0.01,0.01-0.02,0.02c0,0-0.01,0.01-0.02,0.02c0,0-0.01,0.01-0.02,0.02c0,0-0.01,0-0.02,0
				c0,0-0.01,0-0.02,0c0,0-0.01-0.01-0.02-0.02c0,0,0-0.01,0-0.02c0-0.01-0.01-0.03-0.02-0.03c-0.02-0.14,0.02-0.51,0-1.1
				c-0.05-1.08,0.4-3.53,0.37-3.95c0,0,0-0.01,0-0.02c0,0-0.01-0.01-0.02-0.02c0,0,0-0.01,0-0.02c0,0-0.02,0-0.02,0
				c-2.42,1.56-3.22,6.36-3.66,7.78c-6.13,4.24-13.09,7.39-17.1,11.68c-2.09,3.26,14.39-3.75,16.3-4.59
				c0.02,0.01,0.03,0.03,0.05,0.05c0.36,0.4,0.4,1.8,1.49,3.06c1.71,2.32,5.35,3.75,8.9,2.86c5.94-2.15,9.36-6.2,12.85-10.69
				c0.5-0.72,1.28-1.3,2-0.74c2.39,5.36,9.3,9.18,18.22,9.57c2.07-2.51,1.08-3.75,0.24-4.27c-0.26-0.17-4.44-1.8-5.09-3.42
				c-0.41-1.51,0.59-2.85,2.58-3.86c5.73-0.69,11.36-1.46,16.82-3.22c0.06-1.83,1.13-4.57,1.86-5.76c0.5-0.83,0.82-0.91,0.94-1.02
				c0,0,0.01-0.01,0.02-0.02c0,0,0.01-0.01,0.02-0.02c0,0,0.01-0.01,0.02-0.02c0-0.01,0-0.03,0-0.03c0-0.04,0-0.1-0.02-0.16
				l-0.93-0.54l-18.29-0.08c-0.23-0.09-0.39-0.17-0.5-0.26c-0.01-0.01-0.03-0.03-0.03-0.03c0,0-0.01-0.01-0.02-0.02
				c0,0-0.01-0.01-0.02-0.02c0-0.01-0.01-0.03-0.02-0.03c0,0-0.01-0.01-0.02-0.02c0,0,0-0.01,0-0.02c0,0-0.01-0.01-0.02-0.02
				c0,0,0-0.01,0-0.02c0,0,0-0.01,0-0.02c0,0,0-0.01,0-0.02c0,0,0-0.01,0-0.02c0,0,0-0.01,0-0.02c0,0,0-0.01,0-0.02
				c0,0,0-0.01,0-0.02c0,0,0-0.01,0-0.02c0,0,0.01-0.01,0.02-0.02c0-0.01,0.01-0.02,0.02-0.03c0.09-0.12,0.31-0.23,0.58-0.34
				c4.37-0.59,12.13-1.87,12.64-9.33c-0.08-3.89-1.66-6.43-6.43-7.14c-3.5,0.27-6,3.66-5.6,7.39c-0.17,1,0.34,2.98-0.69,3.2
				c-6.72,0.61-14.06,4.83-14.3,7.84c0,0-0.01,0-0.02,0c0,0-0.01,0.01-0.02,0.02c-0.01,0-0.02,0.01-0.03,0.02c-0.01,0-0.03,0-0.03,0
				c-0.01,0-0.04,0.01-0.05,0.02c0,0-0.01,0-0.02,0c-0.01,0-0.03,0-0.03,0c0,0-0.01,0-0.02,0c-0.01,0-0.03,0-0.03,0
				c-0.02,0-0.05-0.01-0.06-0.02c-0.44-0.12-1-0.84-0.91-1.86c-0.26-5.21-1.95-11.11-4.61-15.65c-0.95-0.95-1.36-1.33-1.63-1.38
				c-0.01,0-0.02,0-0.03,0c-0.01,0-0.03,0-0.05,0c0,0-0.01,0-0.02,0c0,0-0.01,0-0.02,0C104.87,86.09,104.86,86.08,104.86,86.08
				L104.86,86.08z M122.36,88.84c-0.38,0.07-0.75,0.38-0.88,0.9c-0.08,0.34,0.16,0.9-0.14,1.07c-0.18,0.18-0.86,0.07-0.83-0.86
				c0-0.3-0.22-0.63-0.35-0.82c-0.13-0.09-0.21-0.11-0.45-0.11c-0.29,0.01-0.3,0.09-0.46,0.34c-0.07,0.25-0.16,0.5-0.16,0.78
				c-0.04,0.33-0.15,0.45-0.4,0.5c-0.27,0-0.21,0.03-0.43-0.11c-0.13-0.14-0.3-0.2-0.3-0.45c0-0.26-0.05-0.66-0.13-0.83
				c-0.12-0.15-0.32-0.22-0.53-0.27c-1.15,0-1.22,1.31-1.15,1.81c-0.09,0.09-0.15,2.45,1.42,3.1c2.11,1,7.12,0.41,5.9-2.83
				c0-0.3-0.08-1.31-0.11-1.58C123.14,88.96,122.74,88.77,122.36,88.84L122.36,88.84z M193,91.73c-0.05-0.01-0.11-0.01-0.18,0.02
				c0,0-9.76,6.94-10,7.18c-0.97,0.86-0.48,3.89,0,3.54c0.7,0.27,10.52-6.39,10.34-7.17C193.59,95.32,193.79,91.88,193,91.73
				L193,91.73z M131.58,92.76c0.4-0.04,0.92,0.09,1.42,0.38c0.73,0.42,1.18,1.06,1.12,1.52c0,0.01,0,0.04,0,0.05
				c0,0.01-0.03,0.04-0.03,0.05c0,0.01-0.01,0.04-0.02,0.05c0,0.01-0.01,0.02-0.02,0.03c0,0.01-0.01,0.03-0.02,0.03
				c-0.02,0.04-0.06,0.08-0.1,0.11c-0.35,0.33-1.16,0.28-1.92-0.16c-0.72-0.42-1.17-1.06-1.12-1.52c0-0.01,0.01-0.04,0.02-0.05
				c0.01-0.06,0.04-0.11,0.06-0.16c0.01-0.02,0.02-0.05,0.03-0.06c0,0,0.01-0.01,0.02-0.02c0.02-0.02,0.05-0.06,0.08-0.08
				C131.23,92.85,131.4,92.78,131.58,92.76L131.58,92.76z M46.12,94.52c-5.06,0.09-12.46,6.63-12.66,10.26
				c5.34-2.56,10.58-5.03,16-7.68C48.59,95.79,49.41,94.61,46.12,94.52L46.12,94.52z M62.51,96.79c0.5,0.01,1.02,0.25,1.3,0.94
				c0.25,0.64,0.01,1.3-0.29,1.63c0,0,0,0.01,0,0.02c0,0.01-0.01,0.03-0.02,0.03c-0.21,0.27-0.96,0.16-1.49,0.16
				c-0.64-0.03-0.96-0.13-1.34-0.66c-0.18-0.58,0.38-1.15,0.62-1.58c0,0,0.01-0.01,0.02-0.02c0.03-0.04,0.07-0.09,0.11-0.13
				c0.19-0.18,0.52-0.34,0.88-0.38C62.37,96.8,62.44,96.79,62.51,96.79L62.51,96.79z M191.1,98.81c-0.9,0.11-1.75,0.96-1.36,2.32
				c-0.25,0.8,1.22,3.59,1.6,5.07c0.34,1.05-0.44,4.04,0.27,4.35c0.66,0.35,2.38-1.77,2.32-4.43c0.19-1.37-0.49-6.41-2.21-7.26
				C191.53,98.8,191.31,98.78,191.1,98.81L191.1,98.81z M81.89,103.73c-0.79,0.06-1.5,0.48-1.18,1.6c-0.05,0.81,2.25,1.8,2.38,3.68
				c0.33,0.78-0.49,3.26,0.19,3.49c0.63,0.26,1.5-1.72,1.82-3.55c0.18-1.01-0.79-4.52-2.43-5.15
				C82.42,103.74,82.15,103.72,81.89,103.73L81.89,103.73z M114.57,108.2c0.06,0,0.11,0,0.18,0c0.01,0,0.02,0,0.03,0
				c2.04,0.55,5.04,0.61,7.65,0.88c2.12,0.13,3.17,1.8,1.18,2.5c-1.96,0.67-3.85,1.2-3.86,4.03c0.26,1.4,0.2,2.14-0.02,2.48
				c-0.02,0.03-0.04,0.06-0.06,0.08c0,0-0.01,0.01-0.02,0.02c0,0-0.01,0.01-0.02,0.02c0,0-0.01,0.01-0.02,0.02l-0.02,0.02
				c-0.01,0-0.03,0.01-0.03,0.02c-0.03,0.02-0.07,0.04-0.1,0.05c-0.03,0.01-0.07,0.01-0.1,0.02c-0.47,0.07-1.14-0.38-1.65-0.64
				c-1.21-0.87-4.6-2.97-5.09-7.49C112.59,109.16,113.35,108.28,114.57,108.2L114.57,108.2z M34.73,111.67
				c-0.13,0-0.38,0.38-0.72,0.82c-3.01,4.79-3.28,11.95-1.62,14.08c0.88,1.01,2.34,1.45,3.41,1.14c1.89-0.82,2.72-4.65,2.27-6.05
				c-0.63-0.99-1.13-1.14-1.76-0.3c-1.33,2.7-1.88,0.85-2-0.66c-0.2-2.86,0.07-5.5,0.38-7.58
				C34.87,112.04,34.86,111.67,34.73,111.67L34.73,111.67z M137.21,117.96c-0.22-0.01-0.46,0.02-0.7,0.14
				c-0.05,0-2.15,1.42-2.83,2.42c-0.41,0.31-0.37,0.59-0.24,1.14c0.32,0.74,0.89,0.51,1.54,0.16c0.86-0.12,1.27,0.44,1.2,1.47
				c-0.4,1.28,0.18,1.76,0.18,1.84c0,0.08,0.82,0.79,1.79,0.22c2.04-0.78,3.32-1.54,6.18-2.16c0.75-0.02,0.71-2.02-0.48-2.1
				c-1.55,0.08-2.98,0.16-4.53,1.38c-0.95,0.22-1.12-0.36-1.33-0.88c-0.24-1.29,0.54-2.2,0.38-3.17
				C138.41,118.47,137.89,118,137.21,117.96L137.21,117.96z M202.83,120.41c-0.38,0.01-0.78,0.06-1.36,0.11
				c-0.63,0.13-0.85,0.41-0.96,1.17c0.04,1.15,0.75,1.1,1.47,1.55c0.42,0.53,0.69,1.01-0.03,1.89c-0.68,0.63-1.17,0.97-1.86,1.6
				c-0.32,0.55-0.52,1.4,0.46,1.66c1.83,0.51,6.05-2.23,6.05-2.29c0.68-0.51,0.46-1.49,0.4-1.49c-0.4-0.46-1.3-0.18-1.9-0.26
				c-0.29,0-1.23-0.14-0.78-0.98c0.37-0.52,0.51-0.83,0.77-1.47c0.28-0.63,0.03-1.05-0.99-1.39
				C203.57,120.43,203.21,120.4,202.83,120.41L202.83,120.41z M175.42,175.91c0,0-0.01,0.01-0.02,0.02
				c-3.03,0.78-2.94,3.93-0.99,5.31c-32.05,0-81.23-0.54-91.78-0.54c-5.9,0-24.57-0.7-24.93-0.7c4,5.86,9.8,7.05,17.39,7.17
				c14.23,0,80.19-0.18,98.96-0.18c-1.33,2.37,0.12,6.18,1.17,6.88c0.02,0.01,0.06,0.04,0.08,0.05c0.04,0.02,0.09,0.04,0.13,0.05
				c0.01,0,0.04,0,0.05,0c1.24,0.29,1.79-0.61,2.21-1.26c2.02,0.18,13.36,0.34,14.4-0.02c0,0,0.01-0.01,0.02-0.02
				c0.7,1.03,1.4,2.01,2.74,1.84c2.34-0.5,4.18-0.76,4.24-5.5c0,0-0.24-8.09-5.55-7.58c-1.26,0.19-4.78,0.54-4.78,0.54
				c-4.08-0.49-7.08-0.54-11.66-0.7c0.42-0.54,1.17-2.72,0.26-3.5c-0.24-0.2-0.6-0.31-1.09-0.27c0,0-0.01,0-0.02,0
				c-0.01,0-0.03,0-0.03,0c0,0-0.01-0.01-0.02-0.02c-0.01,0-0.04-0.01-0.05-0.02c-0.03-0.02-0.06-0.05-0.08-0.08
				c-0.01-0.01-0.03-0.02-0.03-0.03c-0.23-0.34-0.36-1.17-0.51-1.38c0,0-0.01-0.01-0.02-0.02c0,0-0.01-0.01-0.02-0.02
				c-0.01,0-0.03-0.01-0.03-0.02c0,0-0.01,0-0.02,0C175.43,175.91,175.42,175.91,175.42,175.91L175.42,175.91z M177.6,187.48
				c0.01,0,0.01,0,0.02,0c4.68,0.23,9.07,0.04,13.74,0.27c0.74,0.63,0.37,2.07-0.11,2.34c-0.02,0.01-0.06,0.03-0.08,0.03
				c-0.02,0-0.05,0-0.06,0c-0.02,0-0.05,0-0.06,0c-1.52-0.04-2.4-0.07-3.92-0.11c0-0.08-0.01-0.16-0.03-0.22
				c-0.36-1.07-2.97-1-3.58-0.16c-0.01,0.01-0.02,0.04-0.03,0.05c-0.01,0.02-0.02,0.05-0.03,0.06c-0.01,0.02-0.02,0.06-0.03,0.08
				c-0.01,0.03-0.01,0.08-0.02,0.11c0,0.04-0.02,0.09-0.02,0.13c-2.05,0.25-3.9-0.07-5.95-0.14
				C176.82,189.16,176.89,187.8,177.6,187.48L177.6,187.48z"/>
		</g>
	</g>
</g>
<g id="Light">
	<linearGradient id="SVGID_3_" gradientUnits="userSpaceOnUse" x1="48.4505" y1="207.5495" x2="207.5495" y2="48.4505">
		<stop  offset="0" style="stop-color:#FFFFFF;stop-opacity:0.1"/>
		<stop  offset="0.8361" style="stop-color:#FFFFFF;stop-opacity:0.2725"/>
		<stop  offset="0.9694" style="stop-color:#FFFFFF;stop-opacity:0.3"/>
		<stop  offset="1" style="stop-color:#FFFFFF;stop-opacity:0.2"/>
	</linearGradient>
	<circle class="st3" cx="128" cy="128" r="112.5"/>
</g>
<g id="Edge">
	<g id="XMLID_1_" class="st4">
		<g>
			<path class="st5" d="M128,0c70.69,0,128,57.31,128,128s-57.31,128-128,128S0,198.69,0,128S57.31,0,128,0z M240.5,128
				c0-62.13-50.37-112.5-112.5-112.5S15.5,65.87,15.5,128S65.87,240.5,128,240.5S240.5,190.13,240.5,128z"/>
		</g>
	</g>
</g>
</svg>
