<svg width="28" height="28" viewBox="0 0 28 28" fill="none" xmlns="http://www.w3.org/2000/svg">
<path fill-rule="evenodd" clip-rule="evenodd" d="M13.7121 2.9707C19.6349 2.9707 24.4526 7.78835 24.4526 13.7111C24.4526 16.5055 23.3802 19.0541 21.6253 20.9668L25.0784 24.4127C25.4015 24.7358 25.4026 25.2586 25.0795 25.5818C24.9184 25.745 24.7056 25.8255 24.4938 25.8255C24.2832 25.8255 24.0714 25.745 23.9093 25.584L20.4145 22.099C18.5762 23.5713 16.2452 24.4527 13.7121 24.4527C7.78933 24.4527 2.97058 19.6339 2.97058 13.7111C2.97058 7.78835 7.78933 2.9707 13.7121 2.9707ZM13.7121 4.62511C8.70146 4.62511 4.62499 8.70048 4.62499 13.7111C4.62499 18.7218 8.70146 22.7983 13.7121 22.7983C18.7217 22.7983 22.7982 18.7218 22.7982 13.7111C22.7982 8.70048 18.7217 4.62511 13.7121 4.62511Z" fill="white"/>
</svg>
