<?xml version="1.0" encoding="utf-8"?>
<!-- Generator: Adobe Illustrator 24.3.0, SVG Export Plug-In . SVG Version: 6.00 Build 0)  -->
<svg version="1.1" id="Layer_1" xmlns="http://www.w3.org/2000/svg" xmlns:xlink="http://www.w3.org/1999/xlink" x="0px" y="0px"
	 viewBox="0 0 1652.21 1392.07" style="enable-background:new 0 0 1652.21 1392.07;" xml:space="preserve">
<style type="text/css">
	.st0{fill:#10B7D4;}
	.st1{fill:#00B4E2;}
	.st2{fill:#49BABE;}
	.st3{fill:#61B8A0;}
	.st4{fill:#1DAEE5;}
	.st5{fill:#1C1C1C;}
	.st6{fill:#FFFFFF;}
	.st7{opacity:0.9;}
	.st8{clip-path:url(#SVGID_2_);fill:#10B7D4;}
	.st9{clip-path:url(#SVGID_2_);fill:#00B4E2;}
	.st10{clip-path:url(#SVGID_2_);fill:#49BABE;}
	.st11{clip-path:url(#SVGID_2_);fill:#61B8A0;}
	.st12{clip-path:url(#SVGID_2_);fill:#1DAEE5;}
	.st13{clip-path:url(#SVGID_2_);fill:#1C1C1C;}
</style>
<g>
	<path class="st0" d="M902.1,58.48c9.26-17.04,87.06-55.39,107-58.45c1.79-0.26,3.42,1.16,3.37,3c-0.74,16.99,2,42.09-13.26,53.92
		c-44.4,34.19-86.27,71.28-125.57,111.21c-5.94,6.05-12.68,9.47-20.15,10.15c-3,0.32-5.31-2.68-4.21-5.52
		C864.49,133.6,882.06,95.46,902.1,58.48z"/>
	<path class="st1" d="M1193.44,98.62c-74.96,30.99-129.47,59.39-191.96,94.53c-4.89,2.74-10.84,4.84-17.83,6.37
		c-3.1,0.63-5.84-2-5.26-5.1c1-5.05,3.74-9.89,8.26-14.52c48.45-49.19,90.06-87.38,124.84-114.52c7.1-5.52,19.31-10.78,36.61-15.73
		c30.56-8.68,61.18-17.1,91.96-25.2c11.63-3.1,20.15-7.36,32.56-4.47c3,0.68,4.16,4.42,2.05,6.68
		C1249.88,53.22,1227.42,84.52,1193.44,98.62z"/>
	<path class="st2" d="M740.86,171.95c-3.68,8.05-11.63,25.46-22.31,24.51c-3.26-0.26-5.84-2.79-6.21-6
		c-3.1-27.09-5.42-54.45-6.84-82.12c-1.05-20.67,39.77-47.71,55.08-58.39c15.47-10.78,29.67,5.52,37.35,16.62
		c3.1,4.52,2.84,10.57-0.68,14.83C774.48,108.98,755.7,139.18,740.86,171.95z"/>
	<path class="st1" d="M1416.54,179.79c-33.83,18.94-59.71,26.57-100.64,31.2c-73.23,8.31-146.83,28.2-217.16,49.87
		c-3.95,1.21-9.63,1-17.1-0.63c-1.84-0.37-2.63-1.53-2.26-3.47c0.89-4.68,3.16-8.1,6.89-10.26
		c64.71-37.46,133.88-72.18,207.53-104.16c11.84-5.16,23.25-8.1,34.25-8.79c53.45-3.52,106.95-6.52,160.5-9
		c6.37-0.26,12.36,1.05,18.04,4.05c2.84,1.47,3.26,5.31,0.89,7.42c-9,7.94-19.04,13.78-30.14,17.62
		C1453.21,161.95,1432.96,170.69,1416.54,179.79z"/>
	<path class="st3" d="M529.91,173.95c18.78-28.93,38.25-57.55,77.86-39.24c3,1.42,4.16,3.68,3.37,6.89
		c-7.52,30.83-10.94,62.13-10.36,93.9c0.05,3.21-1.32,6.26-3.74,8.31c-7.15,6.1-13.99,5.42-20.52-2.05
		c-16.2-18.62-31.56-37.19-46.08-55.66C527.7,182.58,527.49,177.68,529.91,173.95z"/>
	<path class="st3" d="M441.64,239.55l38.72,75.6c1.05,2.1,0.79,4.63-0.74,6.42c-6.84,8.05-15.94,8.63-26.15,5.26
		c-28.14-9.21-56.55-17.2-85.12-23.88c-2-0.47-3.26-2.47-2.84-4.47c4.05-19.83,11.42-51.45,35.19-55.71
		c12.57-2.26,25.25-3.84,37.93-4.84C440,237.81,441,238.34,441.64,239.55z"/>
	<path class="st4" d="M1633.49,318.2c5.63,1.42,9.94,3.95,12.99,7.63c2.05,2.47,1.16,6.21-1.79,7.47
		c-37.25,15.52-79.49,14.99-116.73,23.2c-26.15,5.68-56.24,15.94-83.22,13.63c-98.37-8.47-196.91-10.68-295.54-6.52
		c-4.89,0.21-8.47-1.16-10.63-4.16c-3.16-4.26-1.26-10.36,3.79-12.1c92.96-31.67,194.01-51.29,290.91-66.81
		c8.36-1.37,20.25-0.63,35.61,2.16C1524.18,292.73,1579.04,304.57,1633.49,318.2z"/>
	<path class="st3" d="M298.6,382.8c26.46,14.52,55.08,24.36,82.7,36.25c4.95,2.1,5.63,5.16,2,9.15c-4.79,5.26-11.21,8.42-19.36,9.47
		c-46.45,5.94-92.32,14.99-137.62,27.04c-1.84,0.53-3.84-0.26-4.89-1.89c-9.63-15.2-26.72-36.25-2.37-49.5
		c21.1-11.52,42.09-21.88,62.97-31.2C287.34,379.75,293.5,379.96,298.6,382.8z"/>
	<path class="st4" d="M1508.66,499.27c44.24,22.52,88.06,45.98,131.36,70.39c6.05,3.42,10,7.94,11.84,13.68
		c1.53,4.73-2.05,9.57-7,9.47c-63.97-1.42-127.89-3.95-191.75-7.58c-12.26-0.68-20.15-3.05-31.09-7.21
		c-88.54-33.62-178.81-61.65-270.82-84.12c-6.47-1.58-10.84-4.42-13.1-8.52c-2.68-5,0.37-11.21,6-12.1
		c11.73-1.84,23.52-2.84,35.35-3.1c90.43-1.74,180.76,1.05,270.92,8.36C1474.25,480.49,1488.09,488.8,1508.66,499.27z"/>
	<path class="st3" d="M253.93,588.86c-34.72,17.26-74.23,40.35-118.58,69.23c-15.05,9.84-51.55,4.31-69.02,3.52
		c-2.37-0.11-3.84-2.53-2.95-4.68c3.95-9.36,9.36-16.99,16.26-22.88c14.68-12.63,37.72-32.04,69.23-58.29
		c10.68-8.94,19.1-13.1,33.62-15.73c44.03-8.05,88.06-14.05,132.15-18.04c5.16-0.47,8.36,5.52,5.05,9.52
		C308.38,565.24,270.87,580.49,253.93,588.86z"/>
	<path class="st4" d="M1378.24,693.18c13.1,4.89,25.36,13.36,36.67,25.41c35.61,37.93,71.33,76.91,107.05,117.05
		c2,2.26,3.1,5.21,2.95,8.21c-0.32,9.15-5.42,12.36-15.36,9.68c-60.02-16.41-119.52-34.4-178.6-53.97
		c-6.84-2.26-13.05-4.52-18.94-9.21c-72.28-57.66-147.19-111.74-224.74-162.19c-4.16-2.68-6.37-5.94-6.68-9.78
		c-0.42-5.42,4.21-9.89,9.63-9.21c44.51,5.73,89.85,19.57,132.73,32.62C1285.24,660.77,1337,677.87,1378.24,693.18z"/>
	<path class="st3" d="M175.18,727.11c39.82-20.83,80.07-42.45,121.31-60.45c2.68-1.16,5.68,0.63,5.94,3.58
		c0.42,5.63-1.21,10.05-4.95,13.36c-79.86,70.12-120.84,107.95-187.65,179.81c-5.31,5.68-10,8.26-16.57,11.57
		c-29.46,15.05-57.97,30.72-85.49,47.08c-6.73,4.05-9.1,2.26-7.1-5.31c1.95-7.31,5.89-15.26,11.78-23.88
		c26.83-39.4,55.03-77.75,84.54-115.16C112.27,758.46,153.09,738.68,175.18,727.11z"/>
	<path class="st4" d="M1309.65,1049.27c3.79,7.73,6.52,15.99,8.15,24.78c1.05,5.79-4,10.89-9.78,9.84
		c-3.47-0.58-7.15-2.1-10.99-4.47c-66.86-40.77-116.26-71.44-148.19-92.11c-4.21-2.74-8.42-7.26-12.68-13.52
		c-50.08-74.54-101.48-148.19-154.24-220.9c-5.52-7.58-5.37-13.63,0.37-18.2c3.26-2.58,7.73-3,11.42-1.1
		c27.2,14.1,53.4,29.83,78.65,47.24c79.23,54.55,131.57,92.17,156.98,112.79c10.36,8.42,20.04,31.56,26.62,45.14
		C1273.87,975.57,1291.76,1012.39,1309.65,1049.27z"/>
	<path class="st3" d="M59.97,1130.08c19.25-49.24,39.19-98.64,61.44-146.61c8.05-17.31,18.41-26.99,30.99-40.51
		c52.71-56.82,110.84-111,174.44-162.61c5.31-4.31,8.94-3.21,10.99,3.31c1.21,3.84-0.42,9-4.95,15.36
		c-65.6,91.9-98.9,149.51-144.25,228.31c-23.78,41.24-64.65,70.39-96.85,104.9c-9.78,10.47-19.41,20.52-28.83,30.25
		c-2.95,3-8,0.89-8-3.26C54.98,1148.33,56.66,1138.6,59.97,1130.08z"/>
	<path class="st4" d="M928.04,1122.66c-6-7.1-8.73-13.99-11.57-22.73c-27.2-83.86-52.08-169.6-74.7-257.19
		c-1.32-5.1,0.89-10.47,5.42-13.15c6.26-3.74,12.73-1.21,19.36,7.47c79.91,104.42,133.41,176.28,160.4,215.53
		c8.36,12.1,14.73,30.56,19.1,55.39c8,45.4,15.47,92.22,22.36,140.46c0.89,6.47-5.31,11.57-11.47,9.42c-4-1.42-8.15-4.26-12.42-8.52
		C1003.84,1208.77,965.02,1166.58,928.04,1122.66z"/>
	<path class="st2" d="M257.35,1307.25c-3.52,6.58-7.47,13.1-11.78,19.57c-2.37,3.52-7.26,4.26-10.57,1.58
		c-2.47-2-3.74-5.37-3.79-10.1c-1.1-61.6,10.21-128.31,18.46-189.49c1.42-10.73,9.89-29.3,25.41-55.66
		c42.03-71.49,86.85-141.09,134.57-208.85c3.37-4.79,7.63-6.84,12.73-6.16c4.37,0.58,7.21,4.84,6.1,9.05
		c-3.37,12.68-7.31,25.04-11.78,37.14c-30.2,81.49-54.4,164.71-72.65,249.78c-0.89,4.26-5.42,16.83-7.94,20.78
		C308.07,1217.98,281.82,1262.07,257.35,1307.25z"/>
	<path class="st1" d="M772.11,1357.13c-28.2-47.24-57.13-98.06-80.7-147.93c-9.94-21.04-10.26-49.5-10.31-68.44
		c-0.26-79.02,2-157.98,6.68-236.84c0.47-7.31,2.68-12.84,6.73-16.47c4.47-4,11.52-2.74,14.26,2.63c3.95,7.58,7.31,15.73,10.1,24.51
		c24.99,78.07,50.19,156.08,75.6,234.05c4.16,12.78,5.73,25.94,4.73,39.45c-4.1,54.61-6.58,109.26-7.47,163.98
		c-0.16,8.84-4.26,12.31-12.42,10.36C776.32,1361.76,773.69,1359.81,772.11,1357.13z"/>
	<path class="st0" d="M531.7,923.91c3.37-9.31,6.05-19.36,12.99-26.25c4.68-4.58,12.57-2.16,13.84,4.31
		c7.26,37.3-0.58,81.28-3.84,119.1c-1.95,22.15-0.53,74.75,4.16,157.82c0.95,17.04-0.95,34.62-6.89,52.19
		c-16.99,50.08-32.35,101.11-46.08,153.14c-1,3.79-4.05,6.68-7.84,7.52c-5.52,1.21-9.1-0.89-10.78-6.31
		c-3.1-10.05-5.79-20.2-8-30.46c-14.99-69.23-24.51-117.42-28.57-144.51c-1.84-12.36-0.26-27.78,4.73-46.19
		C477.41,1083.1,502.82,1002.98,531.7,923.91z"/>
</g>
</svg>
