<svg width="18" height="22" viewBox="0 0 18 22" fill="none" xmlns="http://www.w3.org/2000/svg">
<path fill-rule="evenodd" clip-rule="evenodd" d="M8.75006 0.25C7.49028 0.25 6.2821 0.750445 5.3913 1.64124C4.5005 2.53204 4.00006 3.74022 4.00006 5C4.00006 6.25978 4.5005 7.46796 5.3913 8.35876C6.2821 9.24955 7.49028 9.75 8.75006 9.75C10.0098 9.75 11.218 9.24955 12.1088 8.35876C12.9996 7.46796 13.5001 6.25978 13.5001 5C13.5001 3.74022 12.9996 2.53204 12.1088 1.64124C11.218 0.750445 10.0098 0.25 8.75006 0.25ZM5.50006 5C5.50006 4.13805 5.84247 3.3114 6.45196 2.7019C7.06145 2.09241 7.8881 1.75 8.75006 1.75C9.61201 1.75 10.4387 2.09241 11.0482 2.7019C11.6576 3.3114 12.0001 4.13805 12.0001 5C12.0001 5.86195 11.6576 6.6886 11.0482 7.2981C10.4387 7.90759 9.61201 8.25 8.75006 8.25C7.8881 8.25 7.06145 7.90759 6.45196 7.2981C5.84247 6.6886 5.50006 5.86195 5.50006 5ZM8.75006 11.25C6.43706 11.25 4.30506 11.776 2.72606 12.664C1.17006 13.54 5.59019e-05 14.866 5.59019e-05 16.5V16.602C-0.000944098 17.764 -0.00194418 19.222 1.27706 20.264C1.90606 20.776 2.78706 21.141 3.97706 21.381C5.16906 21.623 6.72406 21.75 8.75006 21.75C10.7761 21.75 12.3301 21.623 13.5241 21.381C14.7141 21.141 15.5941 20.776 16.2241 20.264C17.5031 19.222 17.5011 17.764 17.5001 16.602V16.5C17.5001 14.866 16.3301 13.54 14.7751 12.664C13.1951 11.776 11.0641 11.25 8.75006 11.25ZM1.50006 16.5C1.50006 15.649 2.12206 14.725 3.46106 13.972C4.77706 13.232 6.64506 12.75 8.75106 12.75C10.8551 12.75 12.7231 13.232 14.0391 13.972C15.3791 14.725 16.0001 15.649 16.0001 16.5C16.0001 17.808 15.9601 18.544 15.2761 19.1C14.9061 19.402 14.2861 19.697 13.2261 19.911C12.1691 20.125 10.7241 20.25 8.75006 20.25C6.77606 20.25 5.33006 20.125 4.27406 19.911C3.21406 19.697 2.59406 19.402 2.22406 19.101C1.54006 18.544 1.50006 17.808 1.50006 16.5Z" fill="white"/>
</svg>
